%TF.GenerationSoftware,KiCad,Pcbnew,5.1.7*%
%TF.CreationDate,2020-11-09T18:16:13+01:00*%
%TF.ProjectId,AS3310-ADSR,41533333-3130-42d4-9144-53522e6b6963,1*%
%TF.SameCoordinates,Original*%
%TF.FileFunction,Legend,Top*%
%TF.FilePolarity,Positive*%
%FSLAX46Y46*%
G04 Gerber Fmt 4.6, Leading zero omitted, Abs format (unit mm)*
G04 Created by KiCad (PCBNEW 5.1.7) date 2020-11-09 18:16:13*
%MOMM*%
%LPD*%
G01*
G04 APERTURE LIST*
%ADD10C,0.300000*%
%ADD11C,0.127000*%
%ADD12C,0.120000*%
%ADD13C,0.015000*%
%ADD14C,0.150000*%
G04 APERTURE END LIST*
D10*
%TO.C,RV6*%
X85580000Y-47130000D02*
G75*
G03*
X85580000Y-47130000I-100000J0D01*
G01*
D11*
X93035000Y-43550000D02*
X93035000Y-48050000D01*
X93035000Y-48050000D02*
X86325000Y-48050000D01*
X86325000Y-48050000D02*
X86325000Y-43550000D01*
X86325000Y-43550000D02*
X93035000Y-43550000D01*
D10*
%TO.C,RV5*%
X112910000Y-117080000D02*
G75*
G03*
X112910000Y-117080000I-100000J0D01*
G01*
D11*
X120365000Y-113500000D02*
X120365000Y-118000000D01*
X120365000Y-118000000D02*
X113655000Y-118000000D01*
X113655000Y-118000000D02*
X113655000Y-113500000D01*
X113655000Y-113500000D02*
X120365000Y-113500000D01*
D12*
%TO.C,C10*%
X102265225Y-84625000D02*
X102265225Y-85125000D01*
X102015225Y-84875000D02*
X102515225Y-84875000D01*
X107421000Y-86066000D02*
X107421000Y-86634000D01*
X107381000Y-85832000D02*
X107381000Y-86868000D01*
X107341000Y-85673000D02*
X107341000Y-87027000D01*
X107301000Y-85545000D02*
X107301000Y-87155000D01*
X107261000Y-85435000D02*
X107261000Y-87265000D01*
X107221000Y-85339000D02*
X107221000Y-87361000D01*
X107181000Y-85252000D02*
X107181000Y-87448000D01*
X107141000Y-85172000D02*
X107141000Y-87528000D01*
X107101000Y-87390000D02*
X107101000Y-87601000D01*
X107101000Y-85099000D02*
X107101000Y-85310000D01*
X107061000Y-87390000D02*
X107061000Y-87669000D01*
X107061000Y-85031000D02*
X107061000Y-85310000D01*
X107021000Y-87390000D02*
X107021000Y-87733000D01*
X107021000Y-84967000D02*
X107021000Y-85310000D01*
X106981000Y-87390000D02*
X106981000Y-87793000D01*
X106981000Y-84907000D02*
X106981000Y-85310000D01*
X106941000Y-87390000D02*
X106941000Y-87850000D01*
X106941000Y-84850000D02*
X106941000Y-85310000D01*
X106901000Y-87390000D02*
X106901000Y-87904000D01*
X106901000Y-84796000D02*
X106901000Y-85310000D01*
X106861000Y-87390000D02*
X106861000Y-87955000D01*
X106861000Y-84745000D02*
X106861000Y-85310000D01*
X106821000Y-87390000D02*
X106821000Y-88003000D01*
X106821000Y-84697000D02*
X106821000Y-85310000D01*
X106781000Y-87390000D02*
X106781000Y-88049000D01*
X106781000Y-84651000D02*
X106781000Y-85310000D01*
X106741000Y-87390000D02*
X106741000Y-88093000D01*
X106741000Y-84607000D02*
X106741000Y-85310000D01*
X106701000Y-87390000D02*
X106701000Y-88135000D01*
X106701000Y-84565000D02*
X106701000Y-85310000D01*
X106661000Y-87390000D02*
X106661000Y-88176000D01*
X106661000Y-84524000D02*
X106661000Y-85310000D01*
X106621000Y-87390000D02*
X106621000Y-88214000D01*
X106621000Y-84486000D02*
X106621000Y-85310000D01*
X106581000Y-87390000D02*
X106581000Y-88251000D01*
X106581000Y-84449000D02*
X106581000Y-85310000D01*
X106541000Y-87390000D02*
X106541000Y-88287000D01*
X106541000Y-84413000D02*
X106541000Y-85310000D01*
X106501000Y-87390000D02*
X106501000Y-88321000D01*
X106501000Y-84379000D02*
X106501000Y-85310000D01*
X106461000Y-87390000D02*
X106461000Y-88354000D01*
X106461000Y-84346000D02*
X106461000Y-85310000D01*
X106421000Y-87390000D02*
X106421000Y-88385000D01*
X106421000Y-84315000D02*
X106421000Y-85310000D01*
X106381000Y-87390000D02*
X106381000Y-88415000D01*
X106381000Y-84285000D02*
X106381000Y-85310000D01*
X106341000Y-87390000D02*
X106341000Y-88445000D01*
X106341000Y-84255000D02*
X106341000Y-85310000D01*
X106301000Y-87390000D02*
X106301000Y-88472000D01*
X106301000Y-84228000D02*
X106301000Y-85310000D01*
X106261000Y-87390000D02*
X106261000Y-88499000D01*
X106261000Y-84201000D02*
X106261000Y-85310000D01*
X106221000Y-87390000D02*
X106221000Y-88525000D01*
X106221000Y-84175000D02*
X106221000Y-85310000D01*
X106181000Y-87390000D02*
X106181000Y-88550000D01*
X106181000Y-84150000D02*
X106181000Y-85310000D01*
X106141000Y-87390000D02*
X106141000Y-88574000D01*
X106141000Y-84126000D02*
X106141000Y-85310000D01*
X106101000Y-87390000D02*
X106101000Y-88597000D01*
X106101000Y-84103000D02*
X106101000Y-85310000D01*
X106061000Y-87390000D02*
X106061000Y-88618000D01*
X106061000Y-84082000D02*
X106061000Y-85310000D01*
X106021000Y-87390000D02*
X106021000Y-88640000D01*
X106021000Y-84060000D02*
X106021000Y-85310000D01*
X105981000Y-87390000D02*
X105981000Y-88660000D01*
X105981000Y-84040000D02*
X105981000Y-85310000D01*
X105941000Y-87390000D02*
X105941000Y-88679000D01*
X105941000Y-84021000D02*
X105941000Y-85310000D01*
X105901000Y-87390000D02*
X105901000Y-88698000D01*
X105901000Y-84002000D02*
X105901000Y-85310000D01*
X105861000Y-87390000D02*
X105861000Y-88715000D01*
X105861000Y-83985000D02*
X105861000Y-85310000D01*
X105821000Y-87390000D02*
X105821000Y-88732000D01*
X105821000Y-83968000D02*
X105821000Y-85310000D01*
X105781000Y-87390000D02*
X105781000Y-88748000D01*
X105781000Y-83952000D02*
X105781000Y-85310000D01*
X105741000Y-87390000D02*
X105741000Y-88764000D01*
X105741000Y-83936000D02*
X105741000Y-85310000D01*
X105701000Y-87390000D02*
X105701000Y-88778000D01*
X105701000Y-83922000D02*
X105701000Y-85310000D01*
X105661000Y-87390000D02*
X105661000Y-88792000D01*
X105661000Y-83908000D02*
X105661000Y-85310000D01*
X105621000Y-87390000D02*
X105621000Y-88805000D01*
X105621000Y-83895000D02*
X105621000Y-85310000D01*
X105581000Y-87390000D02*
X105581000Y-88818000D01*
X105581000Y-83882000D02*
X105581000Y-85310000D01*
X105541000Y-87390000D02*
X105541000Y-88830000D01*
X105541000Y-83870000D02*
X105541000Y-85310000D01*
X105500000Y-87390000D02*
X105500000Y-88841000D01*
X105500000Y-83859000D02*
X105500000Y-85310000D01*
X105460000Y-87390000D02*
X105460000Y-88851000D01*
X105460000Y-83849000D02*
X105460000Y-85310000D01*
X105420000Y-87390000D02*
X105420000Y-88861000D01*
X105420000Y-83839000D02*
X105420000Y-85310000D01*
X105380000Y-87390000D02*
X105380000Y-88870000D01*
X105380000Y-83830000D02*
X105380000Y-85310000D01*
X105340000Y-87390000D02*
X105340000Y-88878000D01*
X105340000Y-83822000D02*
X105340000Y-85310000D01*
X105300000Y-87390000D02*
X105300000Y-88886000D01*
X105300000Y-83814000D02*
X105300000Y-85310000D01*
X105260000Y-87390000D02*
X105260000Y-88893000D01*
X105260000Y-83807000D02*
X105260000Y-85310000D01*
X105220000Y-87390000D02*
X105220000Y-88900000D01*
X105220000Y-83800000D02*
X105220000Y-85310000D01*
X105180000Y-87390000D02*
X105180000Y-88906000D01*
X105180000Y-83794000D02*
X105180000Y-85310000D01*
X105140000Y-87390000D02*
X105140000Y-88911000D01*
X105140000Y-83789000D02*
X105140000Y-85310000D01*
X105100000Y-87390000D02*
X105100000Y-88915000D01*
X105100000Y-83785000D02*
X105100000Y-85310000D01*
X105060000Y-87390000D02*
X105060000Y-88919000D01*
X105060000Y-83781000D02*
X105060000Y-85310000D01*
X105020000Y-83777000D02*
X105020000Y-88923000D01*
X104980000Y-83774000D02*
X104980000Y-88926000D01*
X104940000Y-83772000D02*
X104940000Y-88928000D01*
X104900000Y-83771000D02*
X104900000Y-88929000D01*
X104860000Y-83770000D02*
X104860000Y-88930000D01*
X104820000Y-83770000D02*
X104820000Y-88930000D01*
X107440000Y-86350000D02*
G75*
G03*
X107440000Y-86350000I-2620000J0D01*
G01*
%TO.C,C9*%
X95815225Y-84625000D02*
X95815225Y-85125000D01*
X95565225Y-84875000D02*
X96065225Y-84875000D01*
X100971000Y-86066000D02*
X100971000Y-86634000D01*
X100931000Y-85832000D02*
X100931000Y-86868000D01*
X100891000Y-85673000D02*
X100891000Y-87027000D01*
X100851000Y-85545000D02*
X100851000Y-87155000D01*
X100811000Y-85435000D02*
X100811000Y-87265000D01*
X100771000Y-85339000D02*
X100771000Y-87361000D01*
X100731000Y-85252000D02*
X100731000Y-87448000D01*
X100691000Y-85172000D02*
X100691000Y-87528000D01*
X100651000Y-87390000D02*
X100651000Y-87601000D01*
X100651000Y-85099000D02*
X100651000Y-85310000D01*
X100611000Y-87390000D02*
X100611000Y-87669000D01*
X100611000Y-85031000D02*
X100611000Y-85310000D01*
X100571000Y-87390000D02*
X100571000Y-87733000D01*
X100571000Y-84967000D02*
X100571000Y-85310000D01*
X100531000Y-87390000D02*
X100531000Y-87793000D01*
X100531000Y-84907000D02*
X100531000Y-85310000D01*
X100491000Y-87390000D02*
X100491000Y-87850000D01*
X100491000Y-84850000D02*
X100491000Y-85310000D01*
X100451000Y-87390000D02*
X100451000Y-87904000D01*
X100451000Y-84796000D02*
X100451000Y-85310000D01*
X100411000Y-87390000D02*
X100411000Y-87955000D01*
X100411000Y-84745000D02*
X100411000Y-85310000D01*
X100371000Y-87390000D02*
X100371000Y-88003000D01*
X100371000Y-84697000D02*
X100371000Y-85310000D01*
X100331000Y-87390000D02*
X100331000Y-88049000D01*
X100331000Y-84651000D02*
X100331000Y-85310000D01*
X100291000Y-87390000D02*
X100291000Y-88093000D01*
X100291000Y-84607000D02*
X100291000Y-85310000D01*
X100251000Y-87390000D02*
X100251000Y-88135000D01*
X100251000Y-84565000D02*
X100251000Y-85310000D01*
X100211000Y-87390000D02*
X100211000Y-88176000D01*
X100211000Y-84524000D02*
X100211000Y-85310000D01*
X100171000Y-87390000D02*
X100171000Y-88214000D01*
X100171000Y-84486000D02*
X100171000Y-85310000D01*
X100131000Y-87390000D02*
X100131000Y-88251000D01*
X100131000Y-84449000D02*
X100131000Y-85310000D01*
X100091000Y-87390000D02*
X100091000Y-88287000D01*
X100091000Y-84413000D02*
X100091000Y-85310000D01*
X100051000Y-87390000D02*
X100051000Y-88321000D01*
X100051000Y-84379000D02*
X100051000Y-85310000D01*
X100011000Y-87390000D02*
X100011000Y-88354000D01*
X100011000Y-84346000D02*
X100011000Y-85310000D01*
X99971000Y-87390000D02*
X99971000Y-88385000D01*
X99971000Y-84315000D02*
X99971000Y-85310000D01*
X99931000Y-87390000D02*
X99931000Y-88415000D01*
X99931000Y-84285000D02*
X99931000Y-85310000D01*
X99891000Y-87390000D02*
X99891000Y-88445000D01*
X99891000Y-84255000D02*
X99891000Y-85310000D01*
X99851000Y-87390000D02*
X99851000Y-88472000D01*
X99851000Y-84228000D02*
X99851000Y-85310000D01*
X99811000Y-87390000D02*
X99811000Y-88499000D01*
X99811000Y-84201000D02*
X99811000Y-85310000D01*
X99771000Y-87390000D02*
X99771000Y-88525000D01*
X99771000Y-84175000D02*
X99771000Y-85310000D01*
X99731000Y-87390000D02*
X99731000Y-88550000D01*
X99731000Y-84150000D02*
X99731000Y-85310000D01*
X99691000Y-87390000D02*
X99691000Y-88574000D01*
X99691000Y-84126000D02*
X99691000Y-85310000D01*
X99651000Y-87390000D02*
X99651000Y-88597000D01*
X99651000Y-84103000D02*
X99651000Y-85310000D01*
X99611000Y-87390000D02*
X99611000Y-88618000D01*
X99611000Y-84082000D02*
X99611000Y-85310000D01*
X99571000Y-87390000D02*
X99571000Y-88640000D01*
X99571000Y-84060000D02*
X99571000Y-85310000D01*
X99531000Y-87390000D02*
X99531000Y-88660000D01*
X99531000Y-84040000D02*
X99531000Y-85310000D01*
X99491000Y-87390000D02*
X99491000Y-88679000D01*
X99491000Y-84021000D02*
X99491000Y-85310000D01*
X99451000Y-87390000D02*
X99451000Y-88698000D01*
X99451000Y-84002000D02*
X99451000Y-85310000D01*
X99411000Y-87390000D02*
X99411000Y-88715000D01*
X99411000Y-83985000D02*
X99411000Y-85310000D01*
X99371000Y-87390000D02*
X99371000Y-88732000D01*
X99371000Y-83968000D02*
X99371000Y-85310000D01*
X99331000Y-87390000D02*
X99331000Y-88748000D01*
X99331000Y-83952000D02*
X99331000Y-85310000D01*
X99291000Y-87390000D02*
X99291000Y-88764000D01*
X99291000Y-83936000D02*
X99291000Y-85310000D01*
X99251000Y-87390000D02*
X99251000Y-88778000D01*
X99251000Y-83922000D02*
X99251000Y-85310000D01*
X99211000Y-87390000D02*
X99211000Y-88792000D01*
X99211000Y-83908000D02*
X99211000Y-85310000D01*
X99171000Y-87390000D02*
X99171000Y-88805000D01*
X99171000Y-83895000D02*
X99171000Y-85310000D01*
X99131000Y-87390000D02*
X99131000Y-88818000D01*
X99131000Y-83882000D02*
X99131000Y-85310000D01*
X99091000Y-87390000D02*
X99091000Y-88830000D01*
X99091000Y-83870000D02*
X99091000Y-85310000D01*
X99050000Y-87390000D02*
X99050000Y-88841000D01*
X99050000Y-83859000D02*
X99050000Y-85310000D01*
X99010000Y-87390000D02*
X99010000Y-88851000D01*
X99010000Y-83849000D02*
X99010000Y-85310000D01*
X98970000Y-87390000D02*
X98970000Y-88861000D01*
X98970000Y-83839000D02*
X98970000Y-85310000D01*
X98930000Y-87390000D02*
X98930000Y-88870000D01*
X98930000Y-83830000D02*
X98930000Y-85310000D01*
X98890000Y-87390000D02*
X98890000Y-88878000D01*
X98890000Y-83822000D02*
X98890000Y-85310000D01*
X98850000Y-87390000D02*
X98850000Y-88886000D01*
X98850000Y-83814000D02*
X98850000Y-85310000D01*
X98810000Y-87390000D02*
X98810000Y-88893000D01*
X98810000Y-83807000D02*
X98810000Y-85310000D01*
X98770000Y-87390000D02*
X98770000Y-88900000D01*
X98770000Y-83800000D02*
X98770000Y-85310000D01*
X98730000Y-87390000D02*
X98730000Y-88906000D01*
X98730000Y-83794000D02*
X98730000Y-85310000D01*
X98690000Y-87390000D02*
X98690000Y-88911000D01*
X98690000Y-83789000D02*
X98690000Y-85310000D01*
X98650000Y-87390000D02*
X98650000Y-88915000D01*
X98650000Y-83785000D02*
X98650000Y-85310000D01*
X98610000Y-87390000D02*
X98610000Y-88919000D01*
X98610000Y-83781000D02*
X98610000Y-85310000D01*
X98570000Y-83777000D02*
X98570000Y-88923000D01*
X98530000Y-83774000D02*
X98530000Y-88926000D01*
X98490000Y-83772000D02*
X98490000Y-88928000D01*
X98450000Y-83771000D02*
X98450000Y-88929000D01*
X98410000Y-83770000D02*
X98410000Y-88930000D01*
X98370000Y-83770000D02*
X98370000Y-88930000D01*
X100990000Y-86350000D02*
G75*
G03*
X100990000Y-86350000I-2620000J0D01*
G01*
%TO.C,TP6*%
X121510000Y-39150000D02*
X121510000Y-34750000D01*
X125910000Y-39150000D02*
X121510000Y-39150000D01*
X125910000Y-34750000D02*
X125910000Y-39150000D01*
X121510000Y-34750000D02*
X125910000Y-34750000D01*
%TO.C,TP5*%
X115250000Y-39150000D02*
X115250000Y-34750000D01*
X119650000Y-39150000D02*
X115250000Y-39150000D01*
X119650000Y-34750000D02*
X119650000Y-39150000D01*
X115250000Y-34750000D02*
X119650000Y-34750000D01*
%TO.C,TP4*%
X108750000Y-39270000D02*
X108750000Y-34870000D01*
X113150000Y-39270000D02*
X108750000Y-39270000D01*
X113150000Y-34870000D02*
X113150000Y-39270000D01*
X108750000Y-34870000D02*
X113150000Y-34870000D01*
%TO.C,R26*%
X148490000Y-156140000D02*
X147720000Y-156140000D01*
X140410000Y-156140000D02*
X141180000Y-156140000D01*
X147720000Y-154770000D02*
X141180000Y-154770000D01*
X147720000Y-157510000D02*
X147720000Y-154770000D01*
X141180000Y-157510000D02*
X147720000Y-157510000D01*
X141180000Y-154770000D02*
X141180000Y-157510000D01*
%TO.C,U4*%
X108940000Y-134800000D02*
X107290000Y-134800000D01*
X108940000Y-145080000D02*
X108940000Y-134800000D01*
X103640000Y-145080000D02*
X108940000Y-145080000D01*
X103640000Y-134800000D02*
X103640000Y-145080000D01*
X105290000Y-134800000D02*
X103640000Y-134800000D01*
X107290000Y-134800000D02*
G75*
G02*
X105290000Y-134800000I-1000000J0D01*
G01*
%TO.C,U3*%
X122930000Y-134640000D02*
X121280000Y-134640000D01*
X122930000Y-144920000D02*
X122930000Y-134640000D01*
X117630000Y-144920000D02*
X122930000Y-144920000D01*
X117630000Y-134640000D02*
X117630000Y-144920000D01*
X119280000Y-134640000D02*
X117630000Y-134640000D01*
X121280000Y-134640000D02*
G75*
G02*
X119280000Y-134640000I-1000000J0D01*
G01*
%TO.C,U2*%
X93240000Y-51970000D02*
X91590000Y-51970000D01*
X93240000Y-72410000D02*
X93240000Y-51970000D01*
X87940000Y-72410000D02*
X93240000Y-72410000D01*
X87940000Y-51970000D02*
X87940000Y-72410000D01*
X89590000Y-51970000D02*
X87940000Y-51970000D01*
X91590000Y-51970000D02*
G75*
G02*
X89590000Y-51970000I-1000000J0D01*
G01*
%TO.C,U1*%
X108980000Y-148550000D02*
X107330000Y-148550000D01*
X108980000Y-158830000D02*
X108980000Y-148550000D01*
X103680000Y-158830000D02*
X108980000Y-158830000D01*
X103680000Y-148550000D02*
X103680000Y-158830000D01*
X105330000Y-148550000D02*
X103680000Y-148550000D01*
X107330000Y-148550000D02*
G75*
G02*
X105330000Y-148550000I-1000000J0D01*
G01*
%TO.C,TP3*%
X122130000Y-149100000D02*
X126530000Y-149100000D01*
X126530000Y-149100000D02*
X126530000Y-153500000D01*
X126530000Y-153500000D02*
X122130000Y-153500000D01*
X122130000Y-153500000D02*
X122130000Y-149100000D01*
%TO.C,TP2*%
X117810000Y-157760000D02*
X122210000Y-157760000D01*
X122210000Y-157760000D02*
X122210000Y-162160000D01*
X122210000Y-162160000D02*
X117810000Y-162160000D01*
X117810000Y-162160000D02*
X117810000Y-157760000D01*
%TO.C,TP1*%
X114280000Y-149350000D02*
X118680000Y-149350000D01*
X118680000Y-149350000D02*
X118680000Y-153750000D01*
X118680000Y-153750000D02*
X114280000Y-153750000D01*
X114280000Y-153750000D02*
X114280000Y-149350000D01*
%TO.C,R25*%
X141280000Y-149320000D02*
X141280000Y-152060000D01*
X141280000Y-152060000D02*
X147820000Y-152060000D01*
X147820000Y-152060000D02*
X147820000Y-149320000D01*
X147820000Y-149320000D02*
X141280000Y-149320000D01*
X140510000Y-150690000D02*
X141280000Y-150690000D01*
X148590000Y-150690000D02*
X147820000Y-150690000D01*
%TO.C,R24*%
X141440000Y-143980000D02*
X141440000Y-146720000D01*
X141440000Y-146720000D02*
X147980000Y-146720000D01*
X147980000Y-146720000D02*
X147980000Y-143980000D01*
X147980000Y-143980000D02*
X141440000Y-143980000D01*
X140670000Y-145350000D02*
X141440000Y-145350000D01*
X148750000Y-145350000D02*
X147980000Y-145350000D01*
%TO.C,R23*%
X141380000Y-138650000D02*
X141380000Y-141390000D01*
X141380000Y-141390000D02*
X147920000Y-141390000D01*
X147920000Y-141390000D02*
X147920000Y-138650000D01*
X147920000Y-138650000D02*
X141380000Y-138650000D01*
X140610000Y-140020000D02*
X141380000Y-140020000D01*
X148690000Y-140020000D02*
X147920000Y-140020000D01*
%TO.C,R22*%
X141430000Y-133520000D02*
X141430000Y-136260000D01*
X141430000Y-136260000D02*
X147970000Y-136260000D01*
X147970000Y-136260000D02*
X147970000Y-133520000D01*
X147970000Y-133520000D02*
X141430000Y-133520000D01*
X140660000Y-134890000D02*
X141430000Y-134890000D01*
X148740000Y-134890000D02*
X147970000Y-134890000D01*
%TO.C,R21*%
X141590000Y-128260000D02*
X141590000Y-131000000D01*
X141590000Y-131000000D02*
X148130000Y-131000000D01*
X148130000Y-131000000D02*
X148130000Y-128260000D01*
X148130000Y-128260000D02*
X141590000Y-128260000D01*
X140820000Y-129630000D02*
X141590000Y-129630000D01*
X148900000Y-129630000D02*
X148130000Y-129630000D01*
%TO.C,R20*%
X141590000Y-123120000D02*
X141590000Y-125860000D01*
X141590000Y-125860000D02*
X148130000Y-125860000D01*
X148130000Y-125860000D02*
X148130000Y-123120000D01*
X148130000Y-123120000D02*
X141590000Y-123120000D01*
X140820000Y-124490000D02*
X141590000Y-124490000D01*
X148900000Y-124490000D02*
X148130000Y-124490000D01*
%TO.C,R19*%
X141590000Y-117930000D02*
X141590000Y-120670000D01*
X141590000Y-120670000D02*
X148130000Y-120670000D01*
X148130000Y-120670000D02*
X148130000Y-117930000D01*
X148130000Y-117930000D02*
X141590000Y-117930000D01*
X140820000Y-119300000D02*
X141590000Y-119300000D01*
X148900000Y-119300000D02*
X148130000Y-119300000D01*
%TO.C,R18*%
X141590000Y-112570000D02*
X141590000Y-115310000D01*
X141590000Y-115310000D02*
X148130000Y-115310000D01*
X148130000Y-115310000D02*
X148130000Y-112570000D01*
X148130000Y-112570000D02*
X141590000Y-112570000D01*
X140820000Y-113940000D02*
X141590000Y-113940000D01*
X148900000Y-113940000D02*
X148130000Y-113940000D01*
%TO.C,R17*%
X141680000Y-107570000D02*
X141680000Y-110310000D01*
X141680000Y-110310000D02*
X148220000Y-110310000D01*
X148220000Y-110310000D02*
X148220000Y-107570000D01*
X148220000Y-107570000D02*
X141680000Y-107570000D01*
X140910000Y-108940000D02*
X141680000Y-108940000D01*
X148990000Y-108940000D02*
X148220000Y-108940000D01*
%TO.C,R16*%
X141680000Y-102290000D02*
X141680000Y-105030000D01*
X141680000Y-105030000D02*
X148220000Y-105030000D01*
X148220000Y-105030000D02*
X148220000Y-102290000D01*
X148220000Y-102290000D02*
X141680000Y-102290000D01*
X140910000Y-103660000D02*
X141680000Y-103660000D01*
X148990000Y-103660000D02*
X148220000Y-103660000D01*
%TO.C,R15*%
X141810000Y-96940000D02*
X141810000Y-99680000D01*
X141810000Y-99680000D02*
X148350000Y-99680000D01*
X148350000Y-99680000D02*
X148350000Y-96940000D01*
X148350000Y-96940000D02*
X141810000Y-96940000D01*
X141040000Y-98310000D02*
X141810000Y-98310000D01*
X149120000Y-98310000D02*
X148350000Y-98310000D01*
%TO.C,R14*%
X141770000Y-91750000D02*
X141770000Y-94490000D01*
X141770000Y-94490000D02*
X148310000Y-94490000D01*
X148310000Y-94490000D02*
X148310000Y-91750000D01*
X148310000Y-91750000D02*
X141770000Y-91750000D01*
X141000000Y-93120000D02*
X141770000Y-93120000D01*
X149080000Y-93120000D02*
X148310000Y-93120000D01*
%TO.C,R13*%
X101740000Y-106500000D02*
X104480000Y-106500000D01*
X104480000Y-106500000D02*
X104480000Y-99960000D01*
X104480000Y-99960000D02*
X101740000Y-99960000D01*
X101740000Y-99960000D02*
X101740000Y-106500000D01*
X103110000Y-107270000D02*
X103110000Y-106500000D01*
X103110000Y-99190000D02*
X103110000Y-99960000D01*
%TO.C,R12*%
X86640000Y-154380000D02*
X86640000Y-157120000D01*
X86640000Y-157120000D02*
X93180000Y-157120000D01*
X93180000Y-157120000D02*
X93180000Y-154380000D01*
X93180000Y-154380000D02*
X86640000Y-154380000D01*
X85870000Y-155750000D02*
X86640000Y-155750000D01*
X93950000Y-155750000D02*
X93180000Y-155750000D01*
%TO.C,R11*%
X86830000Y-149140000D02*
X86830000Y-151880000D01*
X86830000Y-151880000D02*
X93370000Y-151880000D01*
X93370000Y-151880000D02*
X93370000Y-149140000D01*
X93370000Y-149140000D02*
X86830000Y-149140000D01*
X86060000Y-150510000D02*
X86830000Y-150510000D01*
X94140000Y-150510000D02*
X93370000Y-150510000D01*
%TO.C,R10*%
X86830000Y-143930000D02*
X86830000Y-146670000D01*
X86830000Y-146670000D02*
X93370000Y-146670000D01*
X93370000Y-146670000D02*
X93370000Y-143930000D01*
X93370000Y-143930000D02*
X86830000Y-143930000D01*
X86060000Y-145300000D02*
X86830000Y-145300000D01*
X94140000Y-145300000D02*
X93370000Y-145300000D01*
%TO.C,R9*%
X86960000Y-138840000D02*
X86960000Y-141580000D01*
X86960000Y-141580000D02*
X93500000Y-141580000D01*
X93500000Y-141580000D02*
X93500000Y-138840000D01*
X93500000Y-138840000D02*
X86960000Y-138840000D01*
X86190000Y-140210000D02*
X86960000Y-140210000D01*
X94270000Y-140210000D02*
X93500000Y-140210000D01*
%TO.C,R8*%
X86900000Y-133740000D02*
X86900000Y-136480000D01*
X86900000Y-136480000D02*
X93440000Y-136480000D01*
X93440000Y-136480000D02*
X93440000Y-133740000D01*
X93440000Y-133740000D02*
X86900000Y-133740000D01*
X86130000Y-135110000D02*
X86900000Y-135110000D01*
X94210000Y-135110000D02*
X93440000Y-135110000D01*
%TO.C,R7*%
X87090000Y-128540000D02*
X87090000Y-131280000D01*
X87090000Y-131280000D02*
X93630000Y-131280000D01*
X93630000Y-131280000D02*
X93630000Y-128540000D01*
X93630000Y-128540000D02*
X87090000Y-128540000D01*
X86320000Y-129910000D02*
X87090000Y-129910000D01*
X94400000Y-129910000D02*
X93630000Y-129910000D01*
%TO.C,R6*%
X87210000Y-123250000D02*
X87210000Y-125990000D01*
X87210000Y-125990000D02*
X93750000Y-125990000D01*
X93750000Y-125990000D02*
X93750000Y-123250000D01*
X93750000Y-123250000D02*
X87210000Y-123250000D01*
X86440000Y-124620000D02*
X87210000Y-124620000D01*
X94520000Y-124620000D02*
X93750000Y-124620000D01*
%TO.C,R5*%
X87250000Y-118020000D02*
X87250000Y-120760000D01*
X87250000Y-120760000D02*
X93790000Y-120760000D01*
X93790000Y-120760000D02*
X93790000Y-118020000D01*
X93790000Y-118020000D02*
X87250000Y-118020000D01*
X86480000Y-119390000D02*
X87250000Y-119390000D01*
X94560000Y-119390000D02*
X93790000Y-119390000D01*
%TO.C,R4*%
X87280000Y-112870000D02*
X87280000Y-115610000D01*
X87280000Y-115610000D02*
X93820000Y-115610000D01*
X93820000Y-115610000D02*
X93820000Y-112870000D01*
X93820000Y-112870000D02*
X87280000Y-112870000D01*
X86510000Y-114240000D02*
X87280000Y-114240000D01*
X94590000Y-114240000D02*
X93820000Y-114240000D01*
%TO.C,R3*%
X87210000Y-107810000D02*
X87210000Y-110550000D01*
X87210000Y-110550000D02*
X93750000Y-110550000D01*
X93750000Y-110550000D02*
X93750000Y-107810000D01*
X93750000Y-107810000D02*
X87210000Y-107810000D01*
X86440000Y-109180000D02*
X87210000Y-109180000D01*
X94520000Y-109180000D02*
X93750000Y-109180000D01*
%TO.C,R2*%
X87290000Y-102800000D02*
X87290000Y-105540000D01*
X87290000Y-105540000D02*
X93830000Y-105540000D01*
X93830000Y-105540000D02*
X93830000Y-102800000D01*
X93830000Y-102800000D02*
X87290000Y-102800000D01*
X86520000Y-104170000D02*
X87290000Y-104170000D01*
X94600000Y-104170000D02*
X93830000Y-104170000D01*
%TO.C,R1*%
X87440000Y-97650000D02*
X87440000Y-100390000D01*
X87440000Y-100390000D02*
X93980000Y-100390000D01*
X93980000Y-100390000D02*
X93980000Y-97650000D01*
X93980000Y-97650000D02*
X87440000Y-97650000D01*
X86670000Y-99020000D02*
X87440000Y-99020000D01*
X94750000Y-99020000D02*
X93980000Y-99020000D01*
%TO.C,Q2*%
X128920000Y-113140000D02*
X132520000Y-113140000D01*
X132558478Y-113128478D02*
G75*
G03*
X130720000Y-108690000I-1838478J1838478D01*
G01*
X128881522Y-113128478D02*
G75*
G02*
X130720000Y-108690000I1838478J1838478D01*
G01*
%TO.C,Q1*%
X128830000Y-105160000D02*
X132430000Y-105160000D01*
X132468478Y-105148478D02*
G75*
G03*
X130630000Y-100710000I-1838478J1838478D01*
G01*
X128791522Y-105148478D02*
G75*
G02*
X130630000Y-100710000I1838478J1838478D01*
G01*
%TO.C,J2*%
X141940000Y-53580000D02*
X143270000Y-53580000D01*
X141940000Y-54910000D02*
X141940000Y-53580000D01*
X144540000Y-53580000D02*
X147140000Y-53580000D01*
X144540000Y-56180000D02*
X144540000Y-53580000D01*
X141940000Y-56180000D02*
X144540000Y-56180000D01*
X147140000Y-53580000D02*
X147140000Y-66400000D01*
X141940000Y-56180000D02*
X141940000Y-66400000D01*
X141940000Y-66400000D02*
X147140000Y-66400000D01*
%TO.C,D2*%
X124130000Y-59970000D02*
X124130000Y-62210000D01*
X124370000Y-59970000D02*
X124370000Y-62210000D01*
X124250000Y-59970000D02*
X124250000Y-62210000D01*
X128420000Y-61090000D02*
X127770000Y-61090000D01*
X122880000Y-61090000D02*
X123530000Y-61090000D01*
X127770000Y-59970000D02*
X123530000Y-59970000D01*
X127770000Y-62210000D02*
X127770000Y-59970000D01*
X123530000Y-62210000D02*
X127770000Y-62210000D01*
X123530000Y-59970000D02*
X123530000Y-62210000D01*
%TO.C,D1*%
X110660000Y-59900000D02*
X110660000Y-62140000D01*
X110900000Y-59900000D02*
X110900000Y-62140000D01*
X110780000Y-59900000D02*
X110780000Y-62140000D01*
X114950000Y-61020000D02*
X114300000Y-61020000D01*
X109410000Y-61020000D02*
X110060000Y-61020000D01*
X114300000Y-59900000D02*
X110060000Y-59900000D01*
X114300000Y-62140000D02*
X114300000Y-59900000D01*
X110060000Y-62140000D02*
X114300000Y-62140000D01*
X110060000Y-59900000D02*
X110060000Y-62140000D01*
%TO.C,C11*%
X147940000Y-85850000D02*
X140200000Y-85850000D01*
X147940000Y-83110000D02*
X140200000Y-83110000D01*
X147940000Y-85850000D02*
X147940000Y-83110000D01*
X140200000Y-85850000D02*
X140200000Y-83110000D01*
%TO.C,C8*%
X128170000Y-148430000D02*
X135910000Y-148430000D01*
X128170000Y-151170000D02*
X135910000Y-151170000D01*
X128170000Y-148430000D02*
X128170000Y-151170000D01*
X135910000Y-148430000D02*
X135910000Y-151170000D01*
%TO.C,C7*%
X128120000Y-141260000D02*
X135860000Y-141260000D01*
X128120000Y-144000000D02*
X135860000Y-144000000D01*
X128120000Y-141260000D02*
X128120000Y-144000000D01*
X135860000Y-141260000D02*
X135860000Y-144000000D01*
%TO.C,C6*%
X86440000Y-90000000D02*
X94180000Y-90000000D01*
X86440000Y-92740000D02*
X94180000Y-92740000D01*
X86440000Y-90000000D02*
X86440000Y-92740000D01*
X94180000Y-90000000D02*
X94180000Y-92740000D01*
%TO.C,C5*%
X86440000Y-83060000D02*
X94180000Y-83060000D01*
X86440000Y-85800000D02*
X94180000Y-85800000D01*
X86440000Y-83060000D02*
X86440000Y-85800000D01*
X94180000Y-83060000D02*
X94180000Y-85800000D01*
%TO.C,C4*%
X128310000Y-155680000D02*
X136050000Y-155680000D01*
X128310000Y-158420000D02*
X136050000Y-158420000D01*
X128310000Y-155680000D02*
X128310000Y-158420000D01*
X136050000Y-155680000D02*
X136050000Y-158420000D01*
%TO.C,C3*%
X86700000Y-76380000D02*
X94440000Y-76380000D01*
X86700000Y-79120000D02*
X94440000Y-79120000D01*
X86700000Y-76380000D02*
X86700000Y-79120000D01*
X94440000Y-76380000D02*
X94440000Y-79120000D01*
%TO.C,C2*%
X128010000Y-134290000D02*
X135750000Y-134290000D01*
X128010000Y-137030000D02*
X135750000Y-137030000D01*
X128010000Y-134290000D02*
X128010000Y-137030000D01*
X135750000Y-134290000D02*
X135750000Y-137030000D01*
%TO.C,C1*%
X115290000Y-129750000D02*
X115290000Y-122010000D01*
X118030000Y-129750000D02*
X118030000Y-122010000D01*
X115290000Y-129750000D02*
X118030000Y-129750000D01*
X115290000Y-122010000D02*
X118030000Y-122010000D01*
%TO.C,RV6*%
D13*
X89481385Y-42958592D02*
X89014060Y-42290984D01*
X88680256Y-42958592D02*
X88680256Y-41556616D01*
X89214342Y-41556616D01*
X89347863Y-41623377D01*
X89414624Y-41690137D01*
X89481385Y-41823659D01*
X89481385Y-42023941D01*
X89414624Y-42157463D01*
X89347863Y-42224223D01*
X89214342Y-42290984D01*
X88680256Y-42290984D01*
X89881950Y-41556616D02*
X90349275Y-42958592D01*
X90816600Y-41556616D01*
X91884772Y-41556616D02*
X91617729Y-41556616D01*
X91484208Y-41623377D01*
X91417447Y-41690137D01*
X91283926Y-41890420D01*
X91217165Y-42157463D01*
X91217165Y-42691549D01*
X91283926Y-42825070D01*
X91350686Y-42891831D01*
X91484208Y-42958592D01*
X91751251Y-42958592D01*
X91884772Y-42891831D01*
X91951533Y-42825070D01*
X92018294Y-42691549D01*
X92018294Y-42357745D01*
X91951533Y-42224223D01*
X91884772Y-42157463D01*
X91751251Y-42090702D01*
X91484208Y-42090702D01*
X91350686Y-42157463D01*
X91283926Y-42224223D01*
X91217165Y-42357745D01*
%TO.C,RV5*%
X116811385Y-112908592D02*
X116344060Y-112240984D01*
X116010256Y-112908592D02*
X116010256Y-111506616D01*
X116544342Y-111506616D01*
X116677863Y-111573377D01*
X116744624Y-111640137D01*
X116811385Y-111773659D01*
X116811385Y-111973941D01*
X116744624Y-112107463D01*
X116677863Y-112174223D01*
X116544342Y-112240984D01*
X116010256Y-112240984D01*
X117211950Y-111506616D02*
X117679275Y-112908592D01*
X118146600Y-111506616D01*
X119281533Y-111506616D02*
X118613926Y-111506616D01*
X118547165Y-112174223D01*
X118613926Y-112107463D01*
X118747447Y-112040702D01*
X119081251Y-112040702D01*
X119214772Y-112107463D01*
X119281533Y-112174223D01*
X119348294Y-112307745D01*
X119348294Y-112641549D01*
X119281533Y-112775070D01*
X119214772Y-112841831D01*
X119081251Y-112908592D01*
X118747447Y-112908592D01*
X118613926Y-112841831D01*
X118547165Y-112775070D01*
%TO.C,C10*%
D14*
X104177142Y-82957142D02*
X104129523Y-83004761D01*
X103986666Y-83052380D01*
X103891428Y-83052380D01*
X103748571Y-83004761D01*
X103653333Y-82909523D01*
X103605714Y-82814285D01*
X103558095Y-82623809D01*
X103558095Y-82480952D01*
X103605714Y-82290476D01*
X103653333Y-82195238D01*
X103748571Y-82100000D01*
X103891428Y-82052380D01*
X103986666Y-82052380D01*
X104129523Y-82100000D01*
X104177142Y-82147619D01*
X105129523Y-83052380D02*
X104558095Y-83052380D01*
X104843809Y-83052380D02*
X104843809Y-82052380D01*
X104748571Y-82195238D01*
X104653333Y-82290476D01*
X104558095Y-82338095D01*
X105748571Y-82052380D02*
X105843809Y-82052380D01*
X105939047Y-82100000D01*
X105986666Y-82147619D01*
X106034285Y-82242857D01*
X106081904Y-82433333D01*
X106081904Y-82671428D01*
X106034285Y-82861904D01*
X105986666Y-82957142D01*
X105939047Y-83004761D01*
X105843809Y-83052380D01*
X105748571Y-83052380D01*
X105653333Y-83004761D01*
X105605714Y-82957142D01*
X105558095Y-82861904D01*
X105510476Y-82671428D01*
X105510476Y-82433333D01*
X105558095Y-82242857D01*
X105605714Y-82147619D01*
X105653333Y-82100000D01*
X105748571Y-82052380D01*
%TO.C,C9*%
X98203333Y-82957142D02*
X98155714Y-83004761D01*
X98012857Y-83052380D01*
X97917619Y-83052380D01*
X97774761Y-83004761D01*
X97679523Y-82909523D01*
X97631904Y-82814285D01*
X97584285Y-82623809D01*
X97584285Y-82480952D01*
X97631904Y-82290476D01*
X97679523Y-82195238D01*
X97774761Y-82100000D01*
X97917619Y-82052380D01*
X98012857Y-82052380D01*
X98155714Y-82100000D01*
X98203333Y-82147619D01*
X98679523Y-83052380D02*
X98870000Y-83052380D01*
X98965238Y-83004761D01*
X99012857Y-82957142D01*
X99108095Y-82814285D01*
X99155714Y-82623809D01*
X99155714Y-82242857D01*
X99108095Y-82147619D01*
X99060476Y-82100000D01*
X98965238Y-82052380D01*
X98774761Y-82052380D01*
X98679523Y-82100000D01*
X98631904Y-82147619D01*
X98584285Y-82242857D01*
X98584285Y-82480952D01*
X98631904Y-82576190D01*
X98679523Y-82623809D01*
X98774761Y-82671428D01*
X98965238Y-82671428D01*
X99060476Y-82623809D01*
X99108095Y-82576190D01*
X99155714Y-82480952D01*
%TO.C,TOP_RIGHT_MOUNT*%
X127311904Y-33392380D02*
X127883333Y-33392380D01*
X127597619Y-34392380D02*
X127597619Y-33392380D01*
X128407142Y-33392380D02*
X128597619Y-33392380D01*
X128692857Y-33440000D01*
X128788095Y-33535238D01*
X128835714Y-33725714D01*
X128835714Y-34059047D01*
X128788095Y-34249523D01*
X128692857Y-34344761D01*
X128597619Y-34392380D01*
X128407142Y-34392380D01*
X128311904Y-34344761D01*
X128216666Y-34249523D01*
X128169047Y-34059047D01*
X128169047Y-33725714D01*
X128216666Y-33535238D01*
X128311904Y-33440000D01*
X128407142Y-33392380D01*
X129264285Y-34392380D02*
X129264285Y-33392380D01*
X129645238Y-33392380D01*
X129740476Y-33440000D01*
X129788095Y-33487619D01*
X129835714Y-33582857D01*
X129835714Y-33725714D01*
X129788095Y-33820952D01*
X129740476Y-33868571D01*
X129645238Y-33916190D01*
X129264285Y-33916190D01*
X130026190Y-34487619D02*
X130788095Y-34487619D01*
X131597619Y-34392380D02*
X131264285Y-33916190D01*
X131026190Y-34392380D02*
X131026190Y-33392380D01*
X131407142Y-33392380D01*
X131502380Y-33440000D01*
X131550000Y-33487619D01*
X131597619Y-33582857D01*
X131597619Y-33725714D01*
X131550000Y-33820952D01*
X131502380Y-33868571D01*
X131407142Y-33916190D01*
X131026190Y-33916190D01*
X132026190Y-34392380D02*
X132026190Y-33392380D01*
X133026190Y-33440000D02*
X132930952Y-33392380D01*
X132788095Y-33392380D01*
X132645238Y-33440000D01*
X132550000Y-33535238D01*
X132502380Y-33630476D01*
X132454761Y-33820952D01*
X132454761Y-33963809D01*
X132502380Y-34154285D01*
X132550000Y-34249523D01*
X132645238Y-34344761D01*
X132788095Y-34392380D01*
X132883333Y-34392380D01*
X133026190Y-34344761D01*
X133073809Y-34297142D01*
X133073809Y-33963809D01*
X132883333Y-33963809D01*
X133502380Y-34392380D02*
X133502380Y-33392380D01*
X133502380Y-33868571D02*
X134073809Y-33868571D01*
X134073809Y-34392380D02*
X134073809Y-33392380D01*
X134407142Y-33392380D02*
X134978571Y-33392380D01*
X134692857Y-34392380D02*
X134692857Y-33392380D01*
X135073809Y-34487619D02*
X135835714Y-34487619D01*
X136073809Y-34392380D02*
X136073809Y-33392380D01*
X136407142Y-34106666D01*
X136740476Y-33392380D01*
X136740476Y-34392380D01*
X137407142Y-33392380D02*
X137597619Y-33392380D01*
X137692857Y-33440000D01*
X137788095Y-33535238D01*
X137835714Y-33725714D01*
X137835714Y-34059047D01*
X137788095Y-34249523D01*
X137692857Y-34344761D01*
X137597619Y-34392380D01*
X137407142Y-34392380D01*
X137311904Y-34344761D01*
X137216666Y-34249523D01*
X137169047Y-34059047D01*
X137169047Y-33725714D01*
X137216666Y-33535238D01*
X137311904Y-33440000D01*
X137407142Y-33392380D01*
X138264285Y-33392380D02*
X138264285Y-34201904D01*
X138311904Y-34297142D01*
X138359523Y-34344761D01*
X138454761Y-34392380D01*
X138645238Y-34392380D01*
X138740476Y-34344761D01*
X138788095Y-34297142D01*
X138835714Y-34201904D01*
X138835714Y-33392380D01*
X139311904Y-34392380D02*
X139311904Y-33392380D01*
X139883333Y-34392380D01*
X139883333Y-33392380D01*
X140216666Y-33392380D02*
X140788095Y-33392380D01*
X140502380Y-34392380D02*
X140502380Y-33392380D01*
%TO.C,TOP_LEFT_MOUNT*%
X92488095Y-33472380D02*
X93059523Y-33472380D01*
X92773809Y-34472380D02*
X92773809Y-33472380D01*
X93583333Y-33472380D02*
X93773809Y-33472380D01*
X93869047Y-33520000D01*
X93964285Y-33615238D01*
X94011904Y-33805714D01*
X94011904Y-34139047D01*
X93964285Y-34329523D01*
X93869047Y-34424761D01*
X93773809Y-34472380D01*
X93583333Y-34472380D01*
X93488095Y-34424761D01*
X93392857Y-34329523D01*
X93345238Y-34139047D01*
X93345238Y-33805714D01*
X93392857Y-33615238D01*
X93488095Y-33520000D01*
X93583333Y-33472380D01*
X94440476Y-34472380D02*
X94440476Y-33472380D01*
X94821428Y-33472380D01*
X94916666Y-33520000D01*
X94964285Y-33567619D01*
X95011904Y-33662857D01*
X95011904Y-33805714D01*
X94964285Y-33900952D01*
X94916666Y-33948571D01*
X94821428Y-33996190D01*
X94440476Y-33996190D01*
X95202380Y-34567619D02*
X95964285Y-34567619D01*
X96678571Y-34472380D02*
X96202380Y-34472380D01*
X96202380Y-33472380D01*
X97011904Y-33948571D02*
X97345238Y-33948571D01*
X97488095Y-34472380D02*
X97011904Y-34472380D01*
X97011904Y-33472380D01*
X97488095Y-33472380D01*
X98250000Y-33948571D02*
X97916666Y-33948571D01*
X97916666Y-34472380D02*
X97916666Y-33472380D01*
X98392857Y-33472380D01*
X98630952Y-33472380D02*
X99202380Y-33472380D01*
X98916666Y-34472380D02*
X98916666Y-33472380D01*
X99297619Y-34567619D02*
X100059523Y-34567619D01*
X100297619Y-34472380D02*
X100297619Y-33472380D01*
X100630952Y-34186666D01*
X100964285Y-33472380D01*
X100964285Y-34472380D01*
X101630952Y-33472380D02*
X101821428Y-33472380D01*
X101916666Y-33520000D01*
X102011904Y-33615238D01*
X102059523Y-33805714D01*
X102059523Y-34139047D01*
X102011904Y-34329523D01*
X101916666Y-34424761D01*
X101821428Y-34472380D01*
X101630952Y-34472380D01*
X101535714Y-34424761D01*
X101440476Y-34329523D01*
X101392857Y-34139047D01*
X101392857Y-33805714D01*
X101440476Y-33615238D01*
X101535714Y-33520000D01*
X101630952Y-33472380D01*
X102488095Y-33472380D02*
X102488095Y-34281904D01*
X102535714Y-34377142D01*
X102583333Y-34424761D01*
X102678571Y-34472380D01*
X102869047Y-34472380D01*
X102964285Y-34424761D01*
X103011904Y-34377142D01*
X103059523Y-34281904D01*
X103059523Y-33472380D01*
X103535714Y-34472380D02*
X103535714Y-33472380D01*
X104107142Y-34472380D01*
X104107142Y-33472380D01*
X104440476Y-33472380D02*
X105011904Y-33472380D01*
X104726190Y-34472380D02*
X104726190Y-33472380D01*
%TO.C,BOTTOM_LEFT_MOUNT*%
X93008095Y-164828571D02*
X93150952Y-164876190D01*
X93198571Y-164923809D01*
X93246190Y-165019047D01*
X93246190Y-165161904D01*
X93198571Y-165257142D01*
X93150952Y-165304761D01*
X93055714Y-165352380D01*
X92674761Y-165352380D01*
X92674761Y-164352380D01*
X93008095Y-164352380D01*
X93103333Y-164400000D01*
X93150952Y-164447619D01*
X93198571Y-164542857D01*
X93198571Y-164638095D01*
X93150952Y-164733333D01*
X93103333Y-164780952D01*
X93008095Y-164828571D01*
X92674761Y-164828571D01*
X93865238Y-164352380D02*
X94055714Y-164352380D01*
X94150952Y-164400000D01*
X94246190Y-164495238D01*
X94293809Y-164685714D01*
X94293809Y-165019047D01*
X94246190Y-165209523D01*
X94150952Y-165304761D01*
X94055714Y-165352380D01*
X93865238Y-165352380D01*
X93770000Y-165304761D01*
X93674761Y-165209523D01*
X93627142Y-165019047D01*
X93627142Y-164685714D01*
X93674761Y-164495238D01*
X93770000Y-164400000D01*
X93865238Y-164352380D01*
X94579523Y-164352380D02*
X95150952Y-164352380D01*
X94865238Y-165352380D02*
X94865238Y-164352380D01*
X95341428Y-164352380D02*
X95912857Y-164352380D01*
X95627142Y-165352380D02*
X95627142Y-164352380D01*
X96436666Y-164352380D02*
X96627142Y-164352380D01*
X96722380Y-164400000D01*
X96817619Y-164495238D01*
X96865238Y-164685714D01*
X96865238Y-165019047D01*
X96817619Y-165209523D01*
X96722380Y-165304761D01*
X96627142Y-165352380D01*
X96436666Y-165352380D01*
X96341428Y-165304761D01*
X96246190Y-165209523D01*
X96198571Y-165019047D01*
X96198571Y-164685714D01*
X96246190Y-164495238D01*
X96341428Y-164400000D01*
X96436666Y-164352380D01*
X97293809Y-165352380D02*
X97293809Y-164352380D01*
X97627142Y-165066666D01*
X97960476Y-164352380D01*
X97960476Y-165352380D01*
X98198571Y-165447619D02*
X98960476Y-165447619D01*
X99674761Y-165352380D02*
X99198571Y-165352380D01*
X99198571Y-164352380D01*
X100008095Y-164828571D02*
X100341428Y-164828571D01*
X100484285Y-165352380D02*
X100008095Y-165352380D01*
X100008095Y-164352380D01*
X100484285Y-164352380D01*
X101246190Y-164828571D02*
X100912857Y-164828571D01*
X100912857Y-165352380D02*
X100912857Y-164352380D01*
X101389047Y-164352380D01*
X101627142Y-164352380D02*
X102198571Y-164352380D01*
X101912857Y-165352380D02*
X101912857Y-164352380D01*
X102293809Y-165447619D02*
X103055714Y-165447619D01*
X103293809Y-165352380D02*
X103293809Y-164352380D01*
X103627142Y-165066666D01*
X103960476Y-164352380D01*
X103960476Y-165352380D01*
X104627142Y-164352380D02*
X104817619Y-164352380D01*
X104912857Y-164400000D01*
X105008095Y-164495238D01*
X105055714Y-164685714D01*
X105055714Y-165019047D01*
X105008095Y-165209523D01*
X104912857Y-165304761D01*
X104817619Y-165352380D01*
X104627142Y-165352380D01*
X104531904Y-165304761D01*
X104436666Y-165209523D01*
X104389047Y-165019047D01*
X104389047Y-164685714D01*
X104436666Y-164495238D01*
X104531904Y-164400000D01*
X104627142Y-164352380D01*
X105484285Y-164352380D02*
X105484285Y-165161904D01*
X105531904Y-165257142D01*
X105579523Y-165304761D01*
X105674761Y-165352380D01*
X105865238Y-165352380D01*
X105960476Y-165304761D01*
X106008095Y-165257142D01*
X106055714Y-165161904D01*
X106055714Y-164352380D01*
X106531904Y-165352380D02*
X106531904Y-164352380D01*
X107103333Y-165352380D01*
X107103333Y-164352380D01*
X107436666Y-164352380D02*
X108008095Y-164352380D01*
X107722380Y-165352380D02*
X107722380Y-164352380D01*
%TO.C,BOTTOM_RIGHT_MOUNT*%
X124951904Y-164778571D02*
X125094761Y-164826190D01*
X125142380Y-164873809D01*
X125190000Y-164969047D01*
X125190000Y-165111904D01*
X125142380Y-165207142D01*
X125094761Y-165254761D01*
X124999523Y-165302380D01*
X124618571Y-165302380D01*
X124618571Y-164302380D01*
X124951904Y-164302380D01*
X125047142Y-164350000D01*
X125094761Y-164397619D01*
X125142380Y-164492857D01*
X125142380Y-164588095D01*
X125094761Y-164683333D01*
X125047142Y-164730952D01*
X124951904Y-164778571D01*
X124618571Y-164778571D01*
X125809047Y-164302380D02*
X125999523Y-164302380D01*
X126094761Y-164350000D01*
X126190000Y-164445238D01*
X126237619Y-164635714D01*
X126237619Y-164969047D01*
X126190000Y-165159523D01*
X126094761Y-165254761D01*
X125999523Y-165302380D01*
X125809047Y-165302380D01*
X125713809Y-165254761D01*
X125618571Y-165159523D01*
X125570952Y-164969047D01*
X125570952Y-164635714D01*
X125618571Y-164445238D01*
X125713809Y-164350000D01*
X125809047Y-164302380D01*
X126523333Y-164302380D02*
X127094761Y-164302380D01*
X126809047Y-165302380D02*
X126809047Y-164302380D01*
X127285238Y-164302380D02*
X127856666Y-164302380D01*
X127570952Y-165302380D02*
X127570952Y-164302380D01*
X128380476Y-164302380D02*
X128570952Y-164302380D01*
X128666190Y-164350000D01*
X128761428Y-164445238D01*
X128809047Y-164635714D01*
X128809047Y-164969047D01*
X128761428Y-165159523D01*
X128666190Y-165254761D01*
X128570952Y-165302380D01*
X128380476Y-165302380D01*
X128285238Y-165254761D01*
X128190000Y-165159523D01*
X128142380Y-164969047D01*
X128142380Y-164635714D01*
X128190000Y-164445238D01*
X128285238Y-164350000D01*
X128380476Y-164302380D01*
X129237619Y-165302380D02*
X129237619Y-164302380D01*
X129570952Y-165016666D01*
X129904285Y-164302380D01*
X129904285Y-165302380D01*
X130142380Y-165397619D02*
X130904285Y-165397619D01*
X131713809Y-165302380D02*
X131380476Y-164826190D01*
X131142380Y-165302380D02*
X131142380Y-164302380D01*
X131523333Y-164302380D01*
X131618571Y-164350000D01*
X131666190Y-164397619D01*
X131713809Y-164492857D01*
X131713809Y-164635714D01*
X131666190Y-164730952D01*
X131618571Y-164778571D01*
X131523333Y-164826190D01*
X131142380Y-164826190D01*
X132142380Y-165302380D02*
X132142380Y-164302380D01*
X133142380Y-164350000D02*
X133047142Y-164302380D01*
X132904285Y-164302380D01*
X132761428Y-164350000D01*
X132666190Y-164445238D01*
X132618571Y-164540476D01*
X132570952Y-164730952D01*
X132570952Y-164873809D01*
X132618571Y-165064285D01*
X132666190Y-165159523D01*
X132761428Y-165254761D01*
X132904285Y-165302380D01*
X132999523Y-165302380D01*
X133142380Y-165254761D01*
X133190000Y-165207142D01*
X133190000Y-164873809D01*
X132999523Y-164873809D01*
X133618571Y-165302380D02*
X133618571Y-164302380D01*
X133618571Y-164778571D02*
X134190000Y-164778571D01*
X134190000Y-165302380D02*
X134190000Y-164302380D01*
X134523333Y-164302380D02*
X135094761Y-164302380D01*
X134809047Y-165302380D02*
X134809047Y-164302380D01*
X135190000Y-165397619D02*
X135951904Y-165397619D01*
X136190000Y-165302380D02*
X136190000Y-164302380D01*
X136523333Y-165016666D01*
X136856666Y-164302380D01*
X136856666Y-165302380D01*
X137523333Y-164302380D02*
X137713809Y-164302380D01*
X137809047Y-164350000D01*
X137904285Y-164445238D01*
X137951904Y-164635714D01*
X137951904Y-164969047D01*
X137904285Y-165159523D01*
X137809047Y-165254761D01*
X137713809Y-165302380D01*
X137523333Y-165302380D01*
X137428095Y-165254761D01*
X137332857Y-165159523D01*
X137285238Y-164969047D01*
X137285238Y-164635714D01*
X137332857Y-164445238D01*
X137428095Y-164350000D01*
X137523333Y-164302380D01*
X138380476Y-164302380D02*
X138380476Y-165111904D01*
X138428095Y-165207142D01*
X138475714Y-165254761D01*
X138570952Y-165302380D01*
X138761428Y-165302380D01*
X138856666Y-165254761D01*
X138904285Y-165207142D01*
X138951904Y-165111904D01*
X138951904Y-164302380D01*
X139428095Y-165302380D02*
X139428095Y-164302380D01*
X139999523Y-165302380D01*
X139999523Y-164302380D01*
X140332857Y-164302380D02*
X140904285Y-164302380D01*
X140618571Y-165302380D02*
X140618571Y-164302380D01*
%TO.C,TP6*%
X122448095Y-33504380D02*
X123019523Y-33504380D01*
X122733809Y-34504380D02*
X122733809Y-33504380D01*
X123352857Y-34504380D02*
X123352857Y-33504380D01*
X123733809Y-33504380D01*
X123829047Y-33552000D01*
X123876666Y-33599619D01*
X123924285Y-33694857D01*
X123924285Y-33837714D01*
X123876666Y-33932952D01*
X123829047Y-33980571D01*
X123733809Y-34028190D01*
X123352857Y-34028190D01*
X124781428Y-33504380D02*
X124590952Y-33504380D01*
X124495714Y-33552000D01*
X124448095Y-33599619D01*
X124352857Y-33742476D01*
X124305238Y-33932952D01*
X124305238Y-34313904D01*
X124352857Y-34409142D01*
X124400476Y-34456761D01*
X124495714Y-34504380D01*
X124686190Y-34504380D01*
X124781428Y-34456761D01*
X124829047Y-34409142D01*
X124876666Y-34313904D01*
X124876666Y-34075809D01*
X124829047Y-33980571D01*
X124781428Y-33932952D01*
X124686190Y-33885333D01*
X124495714Y-33885333D01*
X124400476Y-33932952D01*
X124352857Y-33980571D01*
X124305238Y-34075809D01*
X121948095Y-40121428D02*
X122710000Y-40121428D01*
X122329047Y-40502380D02*
X122329047Y-39740476D01*
X123710000Y-40502380D02*
X123138571Y-40502380D01*
X123424285Y-40502380D02*
X123424285Y-39502380D01*
X123329047Y-39645238D01*
X123233809Y-39740476D01*
X123138571Y-39788095D01*
X124090952Y-39597619D02*
X124138571Y-39550000D01*
X124233809Y-39502380D01*
X124471904Y-39502380D01*
X124567142Y-39550000D01*
X124614761Y-39597619D01*
X124662380Y-39692857D01*
X124662380Y-39788095D01*
X124614761Y-39930952D01*
X124043333Y-40502380D01*
X124662380Y-40502380D01*
X124948095Y-39502380D02*
X125281428Y-40502380D01*
X125614761Y-39502380D01*
%TO.C,TP5*%
X116188095Y-33504380D02*
X116759523Y-33504380D01*
X116473809Y-34504380D02*
X116473809Y-33504380D01*
X117092857Y-34504380D02*
X117092857Y-33504380D01*
X117473809Y-33504380D01*
X117569047Y-33552000D01*
X117616666Y-33599619D01*
X117664285Y-33694857D01*
X117664285Y-33837714D01*
X117616666Y-33932952D01*
X117569047Y-33980571D01*
X117473809Y-34028190D01*
X117092857Y-34028190D01*
X118569047Y-33504380D02*
X118092857Y-33504380D01*
X118045238Y-33980571D01*
X118092857Y-33932952D01*
X118188095Y-33885333D01*
X118426190Y-33885333D01*
X118521428Y-33932952D01*
X118569047Y-33980571D01*
X118616666Y-34075809D01*
X118616666Y-34313904D01*
X118569047Y-34409142D01*
X118521428Y-34456761D01*
X118426190Y-34504380D01*
X118188095Y-34504380D01*
X118092857Y-34456761D01*
X118045238Y-34409142D01*
X116688095Y-39550000D02*
X116592857Y-39502380D01*
X116450000Y-39502380D01*
X116307142Y-39550000D01*
X116211904Y-39645238D01*
X116164285Y-39740476D01*
X116116666Y-39930952D01*
X116116666Y-40073809D01*
X116164285Y-40264285D01*
X116211904Y-40359523D01*
X116307142Y-40454761D01*
X116450000Y-40502380D01*
X116545238Y-40502380D01*
X116688095Y-40454761D01*
X116735714Y-40407142D01*
X116735714Y-40073809D01*
X116545238Y-40073809D01*
X117164285Y-40502380D02*
X117164285Y-39502380D01*
X117735714Y-40502380D01*
X117735714Y-39502380D01*
X118211904Y-40502380D02*
X118211904Y-39502380D01*
X118450000Y-39502380D01*
X118592857Y-39550000D01*
X118688095Y-39645238D01*
X118735714Y-39740476D01*
X118783333Y-39930952D01*
X118783333Y-40073809D01*
X118735714Y-40264285D01*
X118688095Y-40359523D01*
X118592857Y-40454761D01*
X118450000Y-40502380D01*
X118211904Y-40502380D01*
%TO.C,TP4*%
X109688095Y-33624380D02*
X110259523Y-33624380D01*
X109973809Y-34624380D02*
X109973809Y-33624380D01*
X110592857Y-34624380D02*
X110592857Y-33624380D01*
X110973809Y-33624380D01*
X111069047Y-33672000D01*
X111116666Y-33719619D01*
X111164285Y-33814857D01*
X111164285Y-33957714D01*
X111116666Y-34052952D01*
X111069047Y-34100571D01*
X110973809Y-34148190D01*
X110592857Y-34148190D01*
X112021428Y-33957714D02*
X112021428Y-34624380D01*
X111783333Y-33576761D02*
X111545238Y-34291047D01*
X112164285Y-34291047D01*
X109188095Y-40241428D02*
X109950000Y-40241428D01*
X110950000Y-40622380D02*
X110378571Y-40622380D01*
X110664285Y-40622380D02*
X110664285Y-39622380D01*
X110569047Y-39765238D01*
X110473809Y-39860476D01*
X110378571Y-39908095D01*
X111330952Y-39717619D02*
X111378571Y-39670000D01*
X111473809Y-39622380D01*
X111711904Y-39622380D01*
X111807142Y-39670000D01*
X111854761Y-39717619D01*
X111902380Y-39812857D01*
X111902380Y-39908095D01*
X111854761Y-40050952D01*
X111283333Y-40622380D01*
X111902380Y-40622380D01*
X112188095Y-39622380D02*
X112521428Y-40622380D01*
X112854761Y-39622380D01*
%TO.C,R26*%
X142664285Y-155592380D02*
X143283333Y-155592380D01*
X142950000Y-155973333D01*
X143092857Y-155973333D01*
X143188095Y-156020952D01*
X143235714Y-156068571D01*
X143283333Y-156163809D01*
X143283333Y-156401904D01*
X143235714Y-156497142D01*
X143188095Y-156544761D01*
X143092857Y-156592380D01*
X142807142Y-156592380D01*
X142711904Y-156544761D01*
X142664285Y-156497142D01*
X143616666Y-155592380D02*
X144235714Y-155592380D01*
X143902380Y-155973333D01*
X144045238Y-155973333D01*
X144140476Y-156020952D01*
X144188095Y-156068571D01*
X144235714Y-156163809D01*
X144235714Y-156401904D01*
X144188095Y-156497142D01*
X144140476Y-156544761D01*
X144045238Y-156592380D01*
X143759523Y-156592380D01*
X143664285Y-156544761D01*
X143616666Y-156497142D01*
X144854761Y-155592380D02*
X144950000Y-155592380D01*
X145045238Y-155640000D01*
X145092857Y-155687619D01*
X145140476Y-155782857D01*
X145188095Y-155973333D01*
X145188095Y-156211428D01*
X145140476Y-156401904D01*
X145092857Y-156497142D01*
X145045238Y-156544761D01*
X144950000Y-156592380D01*
X144854761Y-156592380D01*
X144759523Y-156544761D01*
X144711904Y-156497142D01*
X144664285Y-156401904D01*
X144616666Y-156211428D01*
X144616666Y-155973333D01*
X144664285Y-155782857D01*
X144711904Y-155687619D01*
X144759523Y-155640000D01*
X144854761Y-155592380D01*
X146188095Y-156592380D02*
X145854761Y-156116190D01*
X145616666Y-156592380D02*
X145616666Y-155592380D01*
X145997619Y-155592380D01*
X146092857Y-155640000D01*
X146140476Y-155687619D01*
X146188095Y-155782857D01*
X146188095Y-155925714D01*
X146140476Y-156020952D01*
X146092857Y-156068571D01*
X145997619Y-156116190D01*
X145616666Y-156116190D01*
X143807142Y-159132380D02*
X143473809Y-158656190D01*
X143235714Y-159132380D02*
X143235714Y-158132380D01*
X143616666Y-158132380D01*
X143711904Y-158180000D01*
X143759523Y-158227619D01*
X143807142Y-158322857D01*
X143807142Y-158465714D01*
X143759523Y-158560952D01*
X143711904Y-158608571D01*
X143616666Y-158656190D01*
X143235714Y-158656190D01*
X144188095Y-158227619D02*
X144235714Y-158180000D01*
X144330952Y-158132380D01*
X144569047Y-158132380D01*
X144664285Y-158180000D01*
X144711904Y-158227619D01*
X144759523Y-158322857D01*
X144759523Y-158418095D01*
X144711904Y-158560952D01*
X144140476Y-159132380D01*
X144759523Y-159132380D01*
X145616666Y-158132380D02*
X145426190Y-158132380D01*
X145330952Y-158180000D01*
X145283333Y-158227619D01*
X145188095Y-158370476D01*
X145140476Y-158560952D01*
X145140476Y-158941904D01*
X145188095Y-159037142D01*
X145235714Y-159084761D01*
X145330952Y-159132380D01*
X145521428Y-159132380D01*
X145616666Y-159084761D01*
X145664285Y-159037142D01*
X145711904Y-158941904D01*
X145711904Y-158703809D01*
X145664285Y-158608571D01*
X145616666Y-158560952D01*
X145521428Y-158513333D01*
X145330952Y-158513333D01*
X145235714Y-158560952D01*
X145188095Y-158608571D01*
X145140476Y-158703809D01*
%TO.C,U4*%
X105528095Y-133252380D02*
X105528095Y-134061904D01*
X105575714Y-134157142D01*
X105623333Y-134204761D01*
X105718571Y-134252380D01*
X105909047Y-134252380D01*
X106004285Y-134204761D01*
X106051904Y-134157142D01*
X106099523Y-134061904D01*
X106099523Y-133252380D01*
X107004285Y-133585714D02*
X107004285Y-134252380D01*
X106766190Y-133204761D02*
X106528095Y-133919047D01*
X107147142Y-133919047D01*
X104599523Y-146532380D02*
X104123333Y-146532380D01*
X104123333Y-145532380D01*
X104932857Y-146532380D02*
X104932857Y-145532380D01*
X105266190Y-146246666D01*
X105599523Y-145532380D01*
X105599523Y-146532380D01*
X105980476Y-145532380D02*
X106647142Y-145532380D01*
X106218571Y-146532380D01*
X107456666Y-145865714D02*
X107456666Y-146532380D01*
X107218571Y-145484761D02*
X106980476Y-146199047D01*
X107599523Y-146199047D01*
X108504285Y-146532380D02*
X107932857Y-146532380D01*
X108218571Y-146532380D02*
X108218571Y-145532380D01*
X108123333Y-145675238D01*
X108028095Y-145770476D01*
X107932857Y-145818095D01*
%TO.C,U3*%
X119518095Y-133092380D02*
X119518095Y-133901904D01*
X119565714Y-133997142D01*
X119613333Y-134044761D01*
X119708571Y-134092380D01*
X119899047Y-134092380D01*
X119994285Y-134044761D01*
X120041904Y-133997142D01*
X120089523Y-133901904D01*
X120089523Y-133092380D01*
X120470476Y-133092380D02*
X121089523Y-133092380D01*
X120756190Y-133473333D01*
X120899047Y-133473333D01*
X120994285Y-133520952D01*
X121041904Y-133568571D01*
X121089523Y-133663809D01*
X121089523Y-133901904D01*
X121041904Y-133997142D01*
X120994285Y-134044761D01*
X120899047Y-134092380D01*
X120613333Y-134092380D01*
X120518095Y-134044761D01*
X120470476Y-133997142D01*
X118589523Y-146372380D02*
X118113333Y-146372380D01*
X118113333Y-145372380D01*
X118922857Y-146372380D02*
X118922857Y-145372380D01*
X119256190Y-146086666D01*
X119589523Y-145372380D01*
X119589523Y-146372380D01*
X119970476Y-145372380D02*
X120589523Y-145372380D01*
X120256190Y-145753333D01*
X120399047Y-145753333D01*
X120494285Y-145800952D01*
X120541904Y-145848571D01*
X120589523Y-145943809D01*
X120589523Y-146181904D01*
X120541904Y-146277142D01*
X120494285Y-146324761D01*
X120399047Y-146372380D01*
X120113333Y-146372380D01*
X120018095Y-146324761D01*
X119970476Y-146277142D01*
X121494285Y-145372380D02*
X121018095Y-145372380D01*
X120970476Y-145848571D01*
X121018095Y-145800952D01*
X121113333Y-145753333D01*
X121351428Y-145753333D01*
X121446666Y-145800952D01*
X121494285Y-145848571D01*
X121541904Y-145943809D01*
X121541904Y-146181904D01*
X121494285Y-146277142D01*
X121446666Y-146324761D01*
X121351428Y-146372380D01*
X121113333Y-146372380D01*
X121018095Y-146324761D01*
X120970476Y-146277142D01*
X122113333Y-145800952D02*
X122018095Y-145753333D01*
X121970476Y-145705714D01*
X121922857Y-145610476D01*
X121922857Y-145562857D01*
X121970476Y-145467619D01*
X122018095Y-145420000D01*
X122113333Y-145372380D01*
X122303809Y-145372380D01*
X122399047Y-145420000D01*
X122446666Y-145467619D01*
X122494285Y-145562857D01*
X122494285Y-145610476D01*
X122446666Y-145705714D01*
X122399047Y-145753333D01*
X122303809Y-145800952D01*
X122113333Y-145800952D01*
X122018095Y-145848571D01*
X121970476Y-145896190D01*
X121922857Y-145991428D01*
X121922857Y-146181904D01*
X121970476Y-146277142D01*
X122018095Y-146324761D01*
X122113333Y-146372380D01*
X122303809Y-146372380D01*
X122399047Y-146324761D01*
X122446666Y-146277142D01*
X122494285Y-146181904D01*
X122494285Y-145991428D01*
X122446666Y-145896190D01*
X122399047Y-145848571D01*
X122303809Y-145800952D01*
%TO.C,U2*%
X89828095Y-50422380D02*
X89828095Y-51231904D01*
X89875714Y-51327142D01*
X89923333Y-51374761D01*
X90018571Y-51422380D01*
X90209047Y-51422380D01*
X90304285Y-51374761D01*
X90351904Y-51327142D01*
X90399523Y-51231904D01*
X90399523Y-50422380D01*
X90828095Y-50517619D02*
X90875714Y-50470000D01*
X90970952Y-50422380D01*
X91209047Y-50422380D01*
X91304285Y-50470000D01*
X91351904Y-50517619D01*
X91399523Y-50612857D01*
X91399523Y-50708095D01*
X91351904Y-50850952D01*
X90780476Y-51422380D01*
X91399523Y-51422380D01*
X87970952Y-73576666D02*
X88447142Y-73576666D01*
X87875714Y-73862380D02*
X88209047Y-72862380D01*
X88542380Y-73862380D01*
X88828095Y-73814761D02*
X88970952Y-73862380D01*
X89209047Y-73862380D01*
X89304285Y-73814761D01*
X89351904Y-73767142D01*
X89399523Y-73671904D01*
X89399523Y-73576666D01*
X89351904Y-73481428D01*
X89304285Y-73433809D01*
X89209047Y-73386190D01*
X89018571Y-73338571D01*
X88923333Y-73290952D01*
X88875714Y-73243333D01*
X88828095Y-73148095D01*
X88828095Y-73052857D01*
X88875714Y-72957619D01*
X88923333Y-72910000D01*
X89018571Y-72862380D01*
X89256666Y-72862380D01*
X89399523Y-72910000D01*
X89732857Y-72862380D02*
X90351904Y-72862380D01*
X90018571Y-73243333D01*
X90161428Y-73243333D01*
X90256666Y-73290952D01*
X90304285Y-73338571D01*
X90351904Y-73433809D01*
X90351904Y-73671904D01*
X90304285Y-73767142D01*
X90256666Y-73814761D01*
X90161428Y-73862380D01*
X89875714Y-73862380D01*
X89780476Y-73814761D01*
X89732857Y-73767142D01*
X90685238Y-72862380D02*
X91304285Y-72862380D01*
X90970952Y-73243333D01*
X91113809Y-73243333D01*
X91209047Y-73290952D01*
X91256666Y-73338571D01*
X91304285Y-73433809D01*
X91304285Y-73671904D01*
X91256666Y-73767142D01*
X91209047Y-73814761D01*
X91113809Y-73862380D01*
X90828095Y-73862380D01*
X90732857Y-73814761D01*
X90685238Y-73767142D01*
X92256666Y-73862380D02*
X91685238Y-73862380D01*
X91970952Y-73862380D02*
X91970952Y-72862380D01*
X91875714Y-73005238D01*
X91780476Y-73100476D01*
X91685238Y-73148095D01*
X92875714Y-72862380D02*
X92970952Y-72862380D01*
X93066190Y-72910000D01*
X93113809Y-72957619D01*
X93161428Y-73052857D01*
X93209047Y-73243333D01*
X93209047Y-73481428D01*
X93161428Y-73671904D01*
X93113809Y-73767142D01*
X93066190Y-73814761D01*
X92970952Y-73862380D01*
X92875714Y-73862380D01*
X92780476Y-73814761D01*
X92732857Y-73767142D01*
X92685238Y-73671904D01*
X92637619Y-73481428D01*
X92637619Y-73243333D01*
X92685238Y-73052857D01*
X92732857Y-72957619D01*
X92780476Y-72910000D01*
X92875714Y-72862380D01*
%TO.C,U1*%
X105568095Y-147002380D02*
X105568095Y-147811904D01*
X105615714Y-147907142D01*
X105663333Y-147954761D01*
X105758571Y-148002380D01*
X105949047Y-148002380D01*
X106044285Y-147954761D01*
X106091904Y-147907142D01*
X106139523Y-147811904D01*
X106139523Y-147002380D01*
X107139523Y-148002380D02*
X106568095Y-148002380D01*
X106853809Y-148002380D02*
X106853809Y-147002380D01*
X106758571Y-147145238D01*
X106663333Y-147240476D01*
X106568095Y-147288095D01*
X104639523Y-160282380D02*
X104163333Y-160282380D01*
X104163333Y-159282380D01*
X104972857Y-160282380D02*
X104972857Y-159282380D01*
X105306190Y-159996666D01*
X105639523Y-159282380D01*
X105639523Y-160282380D01*
X106020476Y-159282380D02*
X106639523Y-159282380D01*
X106306190Y-159663333D01*
X106449047Y-159663333D01*
X106544285Y-159710952D01*
X106591904Y-159758571D01*
X106639523Y-159853809D01*
X106639523Y-160091904D01*
X106591904Y-160187142D01*
X106544285Y-160234761D01*
X106449047Y-160282380D01*
X106163333Y-160282380D01*
X106068095Y-160234761D01*
X106020476Y-160187142D01*
X107544285Y-159282380D02*
X107068095Y-159282380D01*
X107020476Y-159758571D01*
X107068095Y-159710952D01*
X107163333Y-159663333D01*
X107401428Y-159663333D01*
X107496666Y-159710952D01*
X107544285Y-159758571D01*
X107591904Y-159853809D01*
X107591904Y-160091904D01*
X107544285Y-160187142D01*
X107496666Y-160234761D01*
X107401428Y-160282380D01*
X107163333Y-160282380D01*
X107068095Y-160234761D01*
X107020476Y-160187142D01*
X108163333Y-159710952D02*
X108068095Y-159663333D01*
X108020476Y-159615714D01*
X107972857Y-159520476D01*
X107972857Y-159472857D01*
X108020476Y-159377619D01*
X108068095Y-159330000D01*
X108163333Y-159282380D01*
X108353809Y-159282380D01*
X108449047Y-159330000D01*
X108496666Y-159377619D01*
X108544285Y-159472857D01*
X108544285Y-159520476D01*
X108496666Y-159615714D01*
X108449047Y-159663333D01*
X108353809Y-159710952D01*
X108163333Y-159710952D01*
X108068095Y-159758571D01*
X108020476Y-159806190D01*
X107972857Y-159901428D01*
X107972857Y-160091904D01*
X108020476Y-160187142D01*
X108068095Y-160234761D01*
X108163333Y-160282380D01*
X108353809Y-160282380D01*
X108449047Y-160234761D01*
X108496666Y-160187142D01*
X108544285Y-160091904D01*
X108544285Y-159901428D01*
X108496666Y-159806190D01*
X108449047Y-159758571D01*
X108353809Y-159710952D01*
%TO.C,TP3*%
X123068095Y-147854380D02*
X123639523Y-147854380D01*
X123353809Y-148854380D02*
X123353809Y-147854380D01*
X123972857Y-148854380D02*
X123972857Y-147854380D01*
X124353809Y-147854380D01*
X124449047Y-147902000D01*
X124496666Y-147949619D01*
X124544285Y-148044857D01*
X124544285Y-148187714D01*
X124496666Y-148282952D01*
X124449047Y-148330571D01*
X124353809Y-148378190D01*
X123972857Y-148378190D01*
X124877619Y-147854380D02*
X125496666Y-147854380D01*
X125163333Y-148235333D01*
X125306190Y-148235333D01*
X125401428Y-148282952D01*
X125449047Y-148330571D01*
X125496666Y-148425809D01*
X125496666Y-148663904D01*
X125449047Y-148759142D01*
X125401428Y-148806761D01*
X125306190Y-148854380D01*
X125020476Y-148854380D01*
X124925238Y-148806761D01*
X124877619Y-148759142D01*
X122187142Y-153900000D02*
X122091904Y-153852380D01*
X121949047Y-153852380D01*
X121806190Y-153900000D01*
X121710952Y-153995238D01*
X121663333Y-154090476D01*
X121615714Y-154280952D01*
X121615714Y-154423809D01*
X121663333Y-154614285D01*
X121710952Y-154709523D01*
X121806190Y-154804761D01*
X121949047Y-154852380D01*
X122044285Y-154852380D01*
X122187142Y-154804761D01*
X122234761Y-154757142D01*
X122234761Y-154423809D01*
X122044285Y-154423809D01*
X122615714Y-154566666D02*
X123091904Y-154566666D01*
X122520476Y-154852380D02*
X122853809Y-153852380D01*
X123187142Y-154852380D01*
X123377619Y-153852380D02*
X123949047Y-153852380D01*
X123663333Y-154852380D02*
X123663333Y-153852380D01*
X124282380Y-154328571D02*
X124615714Y-154328571D01*
X124758571Y-154852380D02*
X124282380Y-154852380D01*
X124282380Y-153852380D01*
X124758571Y-153852380D01*
X124949047Y-154947619D02*
X125710952Y-154947619D01*
X125949047Y-154852380D02*
X125949047Y-153852380D01*
X126425238Y-154852380D02*
X126425238Y-153852380D01*
X126996666Y-154852380D01*
X126996666Y-153852380D01*
%TO.C,TP2*%
X118748095Y-156514380D02*
X119319523Y-156514380D01*
X119033809Y-157514380D02*
X119033809Y-156514380D01*
X119652857Y-157514380D02*
X119652857Y-156514380D01*
X120033809Y-156514380D01*
X120129047Y-156562000D01*
X120176666Y-156609619D01*
X120224285Y-156704857D01*
X120224285Y-156847714D01*
X120176666Y-156942952D01*
X120129047Y-156990571D01*
X120033809Y-157038190D01*
X119652857Y-157038190D01*
X120605238Y-156609619D02*
X120652857Y-156562000D01*
X120748095Y-156514380D01*
X120986190Y-156514380D01*
X121081428Y-156562000D01*
X121129047Y-156609619D01*
X121176666Y-156704857D01*
X121176666Y-156800095D01*
X121129047Y-156942952D01*
X120557619Y-157514380D01*
X121176666Y-157514380D01*
X114700476Y-162988571D02*
X115033809Y-162988571D01*
X115176666Y-163512380D02*
X114700476Y-163512380D01*
X114700476Y-162512380D01*
X115176666Y-162512380D01*
X115605238Y-163512380D02*
X115605238Y-162512380D01*
X116176666Y-163512380D01*
X116176666Y-162512380D01*
X116510000Y-162512380D02*
X116843333Y-163512380D01*
X117176666Y-162512380D01*
X117510000Y-162988571D02*
X117843333Y-162988571D01*
X117986190Y-163512380D02*
X117510000Y-163512380D01*
X117510000Y-162512380D01*
X117986190Y-162512380D01*
X118890952Y-163512380D02*
X118414761Y-163512380D01*
X118414761Y-162512380D01*
X119414761Y-162512380D02*
X119605238Y-162512380D01*
X119700476Y-162560000D01*
X119795714Y-162655238D01*
X119843333Y-162845714D01*
X119843333Y-163179047D01*
X119795714Y-163369523D01*
X119700476Y-163464761D01*
X119605238Y-163512380D01*
X119414761Y-163512380D01*
X119319523Y-163464761D01*
X119224285Y-163369523D01*
X119176666Y-163179047D01*
X119176666Y-162845714D01*
X119224285Y-162655238D01*
X119319523Y-162560000D01*
X119414761Y-162512380D01*
X120271904Y-163512380D02*
X120271904Y-162512380D01*
X120652857Y-162512380D01*
X120748095Y-162560000D01*
X120795714Y-162607619D01*
X120843333Y-162702857D01*
X120843333Y-162845714D01*
X120795714Y-162940952D01*
X120748095Y-162988571D01*
X120652857Y-163036190D01*
X120271904Y-163036190D01*
X121271904Y-162988571D02*
X121605238Y-162988571D01*
X121748095Y-163512380D02*
X121271904Y-163512380D01*
X121271904Y-162512380D01*
X121748095Y-162512380D01*
X121938571Y-163607619D02*
X122700476Y-163607619D01*
X123129047Y-162512380D02*
X123319523Y-162512380D01*
X123414761Y-162560000D01*
X123510000Y-162655238D01*
X123557619Y-162845714D01*
X123557619Y-163179047D01*
X123510000Y-163369523D01*
X123414761Y-163464761D01*
X123319523Y-163512380D01*
X123129047Y-163512380D01*
X123033809Y-163464761D01*
X122938571Y-163369523D01*
X122890952Y-163179047D01*
X122890952Y-162845714D01*
X122938571Y-162655238D01*
X123033809Y-162560000D01*
X123129047Y-162512380D01*
X123986190Y-162512380D02*
X123986190Y-163321904D01*
X124033809Y-163417142D01*
X124081428Y-163464761D01*
X124176666Y-163512380D01*
X124367142Y-163512380D01*
X124462380Y-163464761D01*
X124510000Y-163417142D01*
X124557619Y-163321904D01*
X124557619Y-162512380D01*
X124890952Y-162512380D02*
X125462380Y-162512380D01*
X125176666Y-163512380D02*
X125176666Y-162512380D01*
%TO.C,TP1*%
X115218095Y-148104380D02*
X115789523Y-148104380D01*
X115503809Y-149104380D02*
X115503809Y-148104380D01*
X116122857Y-149104380D02*
X116122857Y-148104380D01*
X116503809Y-148104380D01*
X116599047Y-148152000D01*
X116646666Y-148199619D01*
X116694285Y-148294857D01*
X116694285Y-148437714D01*
X116646666Y-148532952D01*
X116599047Y-148580571D01*
X116503809Y-148628190D01*
X116122857Y-148628190D01*
X117646666Y-149104380D02*
X117075238Y-149104380D01*
X117360952Y-149104380D02*
X117360952Y-148104380D01*
X117265714Y-148247238D01*
X117170476Y-148342476D01*
X117075238Y-148390095D01*
X112360952Y-154102380D02*
X112932380Y-154102380D01*
X112646666Y-155102380D02*
X112646666Y-154102380D01*
X113837142Y-155102380D02*
X113503809Y-154626190D01*
X113265714Y-155102380D02*
X113265714Y-154102380D01*
X113646666Y-154102380D01*
X113741904Y-154150000D01*
X113789523Y-154197619D01*
X113837142Y-154292857D01*
X113837142Y-154435714D01*
X113789523Y-154530952D01*
X113741904Y-154578571D01*
X113646666Y-154626190D01*
X113265714Y-154626190D01*
X114265714Y-155102380D02*
X114265714Y-154102380D01*
X115265714Y-154150000D02*
X115170476Y-154102380D01*
X115027619Y-154102380D01*
X114884761Y-154150000D01*
X114789523Y-154245238D01*
X114741904Y-154340476D01*
X114694285Y-154530952D01*
X114694285Y-154673809D01*
X114741904Y-154864285D01*
X114789523Y-154959523D01*
X114884761Y-155054761D01*
X115027619Y-155102380D01*
X115122857Y-155102380D01*
X115265714Y-155054761D01*
X115313333Y-155007142D01*
X115313333Y-154673809D01*
X115122857Y-154673809D01*
X116265714Y-154150000D02*
X116170476Y-154102380D01*
X116027619Y-154102380D01*
X115884761Y-154150000D01*
X115789523Y-154245238D01*
X115741904Y-154340476D01*
X115694285Y-154530952D01*
X115694285Y-154673809D01*
X115741904Y-154864285D01*
X115789523Y-154959523D01*
X115884761Y-155054761D01*
X116027619Y-155102380D01*
X116122857Y-155102380D01*
X116265714Y-155054761D01*
X116313333Y-155007142D01*
X116313333Y-154673809D01*
X116122857Y-154673809D01*
X116741904Y-154578571D02*
X117075238Y-154578571D01*
X117218095Y-155102380D02*
X116741904Y-155102380D01*
X116741904Y-154102380D01*
X117218095Y-154102380D01*
X118218095Y-155102380D02*
X117884761Y-154626190D01*
X117646666Y-155102380D02*
X117646666Y-154102380D01*
X118027619Y-154102380D01*
X118122857Y-154150000D01*
X118170476Y-154197619D01*
X118218095Y-154292857D01*
X118218095Y-154435714D01*
X118170476Y-154530952D01*
X118122857Y-154578571D01*
X118027619Y-154626190D01*
X117646666Y-154626190D01*
X118408571Y-155197619D02*
X119170476Y-155197619D01*
X119408571Y-155102380D02*
X119408571Y-154102380D01*
X119884761Y-155102380D02*
X119884761Y-154102380D01*
X120456190Y-155102380D01*
X120456190Y-154102380D01*
%TO.C,R25*%
X143764285Y-150475714D02*
X143764285Y-151142380D01*
X143526190Y-150094761D02*
X143288095Y-150809047D01*
X143907142Y-150809047D01*
X144288095Y-151142380D02*
X144288095Y-150142380D01*
X144859523Y-151142380D02*
X144430952Y-150570952D01*
X144859523Y-150142380D02*
X144288095Y-150713809D01*
X145192857Y-150142380D02*
X145859523Y-150142380D01*
X145430952Y-151142380D01*
X143907142Y-153682380D02*
X143573809Y-153206190D01*
X143335714Y-153682380D02*
X143335714Y-152682380D01*
X143716666Y-152682380D01*
X143811904Y-152730000D01*
X143859523Y-152777619D01*
X143907142Y-152872857D01*
X143907142Y-153015714D01*
X143859523Y-153110952D01*
X143811904Y-153158571D01*
X143716666Y-153206190D01*
X143335714Y-153206190D01*
X144288095Y-152777619D02*
X144335714Y-152730000D01*
X144430952Y-152682380D01*
X144669047Y-152682380D01*
X144764285Y-152730000D01*
X144811904Y-152777619D01*
X144859523Y-152872857D01*
X144859523Y-152968095D01*
X144811904Y-153110952D01*
X144240476Y-153682380D01*
X144859523Y-153682380D01*
X145764285Y-152682380D02*
X145288095Y-152682380D01*
X145240476Y-153158571D01*
X145288095Y-153110952D01*
X145383333Y-153063333D01*
X145621428Y-153063333D01*
X145716666Y-153110952D01*
X145764285Y-153158571D01*
X145811904Y-153253809D01*
X145811904Y-153491904D01*
X145764285Y-153587142D01*
X145716666Y-153634761D01*
X145621428Y-153682380D01*
X145383333Y-153682380D01*
X145288095Y-153634761D01*
X145240476Y-153587142D01*
%TO.C,R24*%
X143543333Y-145802380D02*
X142971904Y-145802380D01*
X143257619Y-145802380D02*
X143257619Y-144802380D01*
X143162380Y-144945238D01*
X143067142Y-145040476D01*
X142971904Y-145088095D01*
X144162380Y-144802380D02*
X144257619Y-144802380D01*
X144352857Y-144850000D01*
X144400476Y-144897619D01*
X144448095Y-144992857D01*
X144495714Y-145183333D01*
X144495714Y-145421428D01*
X144448095Y-145611904D01*
X144400476Y-145707142D01*
X144352857Y-145754761D01*
X144257619Y-145802380D01*
X144162380Y-145802380D01*
X144067142Y-145754761D01*
X144019523Y-145707142D01*
X143971904Y-145611904D01*
X143924285Y-145421428D01*
X143924285Y-145183333D01*
X143971904Y-144992857D01*
X144019523Y-144897619D01*
X144067142Y-144850000D01*
X144162380Y-144802380D01*
X145114761Y-144802380D02*
X145210000Y-144802380D01*
X145305238Y-144850000D01*
X145352857Y-144897619D01*
X145400476Y-144992857D01*
X145448095Y-145183333D01*
X145448095Y-145421428D01*
X145400476Y-145611904D01*
X145352857Y-145707142D01*
X145305238Y-145754761D01*
X145210000Y-145802380D01*
X145114761Y-145802380D01*
X145019523Y-145754761D01*
X144971904Y-145707142D01*
X144924285Y-145611904D01*
X144876666Y-145421428D01*
X144876666Y-145183333D01*
X144924285Y-144992857D01*
X144971904Y-144897619D01*
X145019523Y-144850000D01*
X145114761Y-144802380D01*
X145876666Y-145802380D02*
X145876666Y-144802380D01*
X146448095Y-145802380D02*
X146019523Y-145230952D01*
X146448095Y-144802380D02*
X145876666Y-145373809D01*
X144067142Y-148342380D02*
X143733809Y-147866190D01*
X143495714Y-148342380D02*
X143495714Y-147342380D01*
X143876666Y-147342380D01*
X143971904Y-147390000D01*
X144019523Y-147437619D01*
X144067142Y-147532857D01*
X144067142Y-147675714D01*
X144019523Y-147770952D01*
X143971904Y-147818571D01*
X143876666Y-147866190D01*
X143495714Y-147866190D01*
X144448095Y-147437619D02*
X144495714Y-147390000D01*
X144590952Y-147342380D01*
X144829047Y-147342380D01*
X144924285Y-147390000D01*
X144971904Y-147437619D01*
X145019523Y-147532857D01*
X145019523Y-147628095D01*
X144971904Y-147770952D01*
X144400476Y-148342380D01*
X145019523Y-148342380D01*
X145876666Y-147675714D02*
X145876666Y-148342380D01*
X145638571Y-147294761D02*
X145400476Y-148009047D01*
X146019523Y-148009047D01*
%TO.C,R23*%
X143864285Y-139805714D02*
X143864285Y-140472380D01*
X143626190Y-139424761D02*
X143388095Y-140139047D01*
X144007142Y-140139047D01*
X144388095Y-140472380D02*
X144388095Y-139472380D01*
X144959523Y-140472380D02*
X144530952Y-139900952D01*
X144959523Y-139472380D02*
X144388095Y-140043809D01*
X145292857Y-139472380D02*
X145959523Y-139472380D01*
X145530952Y-140472380D01*
X144007142Y-143012380D02*
X143673809Y-142536190D01*
X143435714Y-143012380D02*
X143435714Y-142012380D01*
X143816666Y-142012380D01*
X143911904Y-142060000D01*
X143959523Y-142107619D01*
X144007142Y-142202857D01*
X144007142Y-142345714D01*
X143959523Y-142440952D01*
X143911904Y-142488571D01*
X143816666Y-142536190D01*
X143435714Y-142536190D01*
X144388095Y-142107619D02*
X144435714Y-142060000D01*
X144530952Y-142012380D01*
X144769047Y-142012380D01*
X144864285Y-142060000D01*
X144911904Y-142107619D01*
X144959523Y-142202857D01*
X144959523Y-142298095D01*
X144911904Y-142440952D01*
X144340476Y-143012380D01*
X144959523Y-143012380D01*
X145292857Y-142012380D02*
X145911904Y-142012380D01*
X145578571Y-142393333D01*
X145721428Y-142393333D01*
X145816666Y-142440952D01*
X145864285Y-142488571D01*
X145911904Y-142583809D01*
X145911904Y-142821904D01*
X145864285Y-142917142D01*
X145816666Y-142964761D01*
X145721428Y-143012380D01*
X145435714Y-143012380D01*
X145340476Y-142964761D01*
X145292857Y-142917142D01*
%TO.C,R22*%
X144485714Y-135342380D02*
X143914285Y-135342380D01*
X144200000Y-135342380D02*
X144200000Y-134342380D01*
X144104761Y-134485238D01*
X144009523Y-134580476D01*
X143914285Y-134628095D01*
X144914285Y-135342380D02*
X144914285Y-134342380D01*
X145485714Y-135342380D02*
X145057142Y-134770952D01*
X145485714Y-134342380D02*
X144914285Y-134913809D01*
X144057142Y-137882380D02*
X143723809Y-137406190D01*
X143485714Y-137882380D02*
X143485714Y-136882380D01*
X143866666Y-136882380D01*
X143961904Y-136930000D01*
X144009523Y-136977619D01*
X144057142Y-137072857D01*
X144057142Y-137215714D01*
X144009523Y-137310952D01*
X143961904Y-137358571D01*
X143866666Y-137406190D01*
X143485714Y-137406190D01*
X144438095Y-136977619D02*
X144485714Y-136930000D01*
X144580952Y-136882380D01*
X144819047Y-136882380D01*
X144914285Y-136930000D01*
X144961904Y-136977619D01*
X145009523Y-137072857D01*
X145009523Y-137168095D01*
X144961904Y-137310952D01*
X144390476Y-137882380D01*
X145009523Y-137882380D01*
X145390476Y-136977619D02*
X145438095Y-136930000D01*
X145533333Y-136882380D01*
X145771428Y-136882380D01*
X145866666Y-136930000D01*
X145914285Y-136977619D01*
X145961904Y-137072857D01*
X145961904Y-137168095D01*
X145914285Y-137310952D01*
X145342857Y-137882380D01*
X145961904Y-137882380D01*
%TO.C,R21*%
X144169523Y-130082380D02*
X143598095Y-130082380D01*
X143883809Y-130082380D02*
X143883809Y-129082380D01*
X143788571Y-129225238D01*
X143693333Y-129320476D01*
X143598095Y-129368095D01*
X144788571Y-129082380D02*
X144883809Y-129082380D01*
X144979047Y-129130000D01*
X145026666Y-129177619D01*
X145074285Y-129272857D01*
X145121904Y-129463333D01*
X145121904Y-129701428D01*
X145074285Y-129891904D01*
X145026666Y-129987142D01*
X144979047Y-130034761D01*
X144883809Y-130082380D01*
X144788571Y-130082380D01*
X144693333Y-130034761D01*
X144645714Y-129987142D01*
X144598095Y-129891904D01*
X144550476Y-129701428D01*
X144550476Y-129463333D01*
X144598095Y-129272857D01*
X144645714Y-129177619D01*
X144693333Y-129130000D01*
X144788571Y-129082380D01*
X145550476Y-130082380D02*
X145550476Y-129082380D01*
X146121904Y-130082380D02*
X145693333Y-129510952D01*
X146121904Y-129082380D02*
X145550476Y-129653809D01*
X144217142Y-132622380D02*
X143883809Y-132146190D01*
X143645714Y-132622380D02*
X143645714Y-131622380D01*
X144026666Y-131622380D01*
X144121904Y-131670000D01*
X144169523Y-131717619D01*
X144217142Y-131812857D01*
X144217142Y-131955714D01*
X144169523Y-132050952D01*
X144121904Y-132098571D01*
X144026666Y-132146190D01*
X143645714Y-132146190D01*
X144598095Y-131717619D02*
X144645714Y-131670000D01*
X144740952Y-131622380D01*
X144979047Y-131622380D01*
X145074285Y-131670000D01*
X145121904Y-131717619D01*
X145169523Y-131812857D01*
X145169523Y-131908095D01*
X145121904Y-132050952D01*
X144550476Y-132622380D01*
X145169523Y-132622380D01*
X146121904Y-132622380D02*
X145550476Y-132622380D01*
X145836190Y-132622380D02*
X145836190Y-131622380D01*
X145740952Y-131765238D01*
X145645714Y-131860476D01*
X145550476Y-131908095D01*
%TO.C,R20*%
X143693333Y-124942380D02*
X143121904Y-124942380D01*
X143407619Y-124942380D02*
X143407619Y-123942380D01*
X143312380Y-124085238D01*
X143217142Y-124180476D01*
X143121904Y-124228095D01*
X144598095Y-123942380D02*
X144121904Y-123942380D01*
X144074285Y-124418571D01*
X144121904Y-124370952D01*
X144217142Y-124323333D01*
X144455238Y-124323333D01*
X144550476Y-124370952D01*
X144598095Y-124418571D01*
X144645714Y-124513809D01*
X144645714Y-124751904D01*
X144598095Y-124847142D01*
X144550476Y-124894761D01*
X144455238Y-124942380D01*
X144217142Y-124942380D01*
X144121904Y-124894761D01*
X144074285Y-124847142D01*
X145264761Y-123942380D02*
X145360000Y-123942380D01*
X145455238Y-123990000D01*
X145502857Y-124037619D01*
X145550476Y-124132857D01*
X145598095Y-124323333D01*
X145598095Y-124561428D01*
X145550476Y-124751904D01*
X145502857Y-124847142D01*
X145455238Y-124894761D01*
X145360000Y-124942380D01*
X145264761Y-124942380D01*
X145169523Y-124894761D01*
X145121904Y-124847142D01*
X145074285Y-124751904D01*
X145026666Y-124561428D01*
X145026666Y-124323333D01*
X145074285Y-124132857D01*
X145121904Y-124037619D01*
X145169523Y-123990000D01*
X145264761Y-123942380D01*
X146026666Y-124942380D02*
X146026666Y-123942380D01*
X146598095Y-124942380D02*
X146169523Y-124370952D01*
X146598095Y-123942380D02*
X146026666Y-124513809D01*
X144217142Y-127482380D02*
X143883809Y-127006190D01*
X143645714Y-127482380D02*
X143645714Y-126482380D01*
X144026666Y-126482380D01*
X144121904Y-126530000D01*
X144169523Y-126577619D01*
X144217142Y-126672857D01*
X144217142Y-126815714D01*
X144169523Y-126910952D01*
X144121904Y-126958571D01*
X144026666Y-127006190D01*
X143645714Y-127006190D01*
X144598095Y-126577619D02*
X144645714Y-126530000D01*
X144740952Y-126482380D01*
X144979047Y-126482380D01*
X145074285Y-126530000D01*
X145121904Y-126577619D01*
X145169523Y-126672857D01*
X145169523Y-126768095D01*
X145121904Y-126910952D01*
X144550476Y-127482380D01*
X145169523Y-127482380D01*
X145788571Y-126482380D02*
X145883809Y-126482380D01*
X145979047Y-126530000D01*
X146026666Y-126577619D01*
X146074285Y-126672857D01*
X146121904Y-126863333D01*
X146121904Y-127101428D01*
X146074285Y-127291904D01*
X146026666Y-127387142D01*
X145979047Y-127434761D01*
X145883809Y-127482380D01*
X145788571Y-127482380D01*
X145693333Y-127434761D01*
X145645714Y-127387142D01*
X145598095Y-127291904D01*
X145550476Y-127101428D01*
X145550476Y-126863333D01*
X145598095Y-126672857D01*
X145645714Y-126577619D01*
X145693333Y-126530000D01*
X145788571Y-126482380D01*
%TO.C,R19*%
X144074285Y-119085714D02*
X144074285Y-119752380D01*
X143836190Y-118704761D02*
X143598095Y-119419047D01*
X144217142Y-119419047D01*
X144502857Y-118752380D02*
X145169523Y-118752380D01*
X144740952Y-119752380D01*
X145550476Y-119752380D02*
X145550476Y-118752380D01*
X146121904Y-119752380D02*
X145693333Y-119180952D01*
X146121904Y-118752380D02*
X145550476Y-119323809D01*
X144217142Y-122292380D02*
X143883809Y-121816190D01*
X143645714Y-122292380D02*
X143645714Y-121292380D01*
X144026666Y-121292380D01*
X144121904Y-121340000D01*
X144169523Y-121387619D01*
X144217142Y-121482857D01*
X144217142Y-121625714D01*
X144169523Y-121720952D01*
X144121904Y-121768571D01*
X144026666Y-121816190D01*
X143645714Y-121816190D01*
X145169523Y-122292380D02*
X144598095Y-122292380D01*
X144883809Y-122292380D02*
X144883809Y-121292380D01*
X144788571Y-121435238D01*
X144693333Y-121530476D01*
X144598095Y-121578095D01*
X145645714Y-122292380D02*
X145836190Y-122292380D01*
X145931428Y-122244761D01*
X145979047Y-122197142D01*
X146074285Y-122054285D01*
X146121904Y-121863809D01*
X146121904Y-121482857D01*
X146074285Y-121387619D01*
X146026666Y-121340000D01*
X145931428Y-121292380D01*
X145740952Y-121292380D01*
X145645714Y-121340000D01*
X145598095Y-121387619D01*
X145550476Y-121482857D01*
X145550476Y-121720952D01*
X145598095Y-121816190D01*
X145645714Y-121863809D01*
X145740952Y-121911428D01*
X145931428Y-121911428D01*
X146026666Y-121863809D01*
X146074285Y-121816190D01*
X146121904Y-121720952D01*
%TO.C,R18*%
X144169523Y-114392380D02*
X143598095Y-114392380D01*
X143883809Y-114392380D02*
X143883809Y-113392380D01*
X143788571Y-113535238D01*
X143693333Y-113630476D01*
X143598095Y-113678095D01*
X144788571Y-113392380D02*
X144883809Y-113392380D01*
X144979047Y-113440000D01*
X145026666Y-113487619D01*
X145074285Y-113582857D01*
X145121904Y-113773333D01*
X145121904Y-114011428D01*
X145074285Y-114201904D01*
X145026666Y-114297142D01*
X144979047Y-114344761D01*
X144883809Y-114392380D01*
X144788571Y-114392380D01*
X144693333Y-114344761D01*
X144645714Y-114297142D01*
X144598095Y-114201904D01*
X144550476Y-114011428D01*
X144550476Y-113773333D01*
X144598095Y-113582857D01*
X144645714Y-113487619D01*
X144693333Y-113440000D01*
X144788571Y-113392380D01*
X145550476Y-114392380D02*
X145550476Y-113392380D01*
X146121904Y-114392380D02*
X145693333Y-113820952D01*
X146121904Y-113392380D02*
X145550476Y-113963809D01*
X144217142Y-116932380D02*
X143883809Y-116456190D01*
X143645714Y-116932380D02*
X143645714Y-115932380D01*
X144026666Y-115932380D01*
X144121904Y-115980000D01*
X144169523Y-116027619D01*
X144217142Y-116122857D01*
X144217142Y-116265714D01*
X144169523Y-116360952D01*
X144121904Y-116408571D01*
X144026666Y-116456190D01*
X143645714Y-116456190D01*
X145169523Y-116932380D02*
X144598095Y-116932380D01*
X144883809Y-116932380D02*
X144883809Y-115932380D01*
X144788571Y-116075238D01*
X144693333Y-116170476D01*
X144598095Y-116218095D01*
X145740952Y-116360952D02*
X145645714Y-116313333D01*
X145598095Y-116265714D01*
X145550476Y-116170476D01*
X145550476Y-116122857D01*
X145598095Y-116027619D01*
X145645714Y-115980000D01*
X145740952Y-115932380D01*
X145931428Y-115932380D01*
X146026666Y-115980000D01*
X146074285Y-116027619D01*
X146121904Y-116122857D01*
X146121904Y-116170476D01*
X146074285Y-116265714D01*
X146026666Y-116313333D01*
X145931428Y-116360952D01*
X145740952Y-116360952D01*
X145645714Y-116408571D01*
X145598095Y-116456190D01*
X145550476Y-116551428D01*
X145550476Y-116741904D01*
X145598095Y-116837142D01*
X145645714Y-116884761D01*
X145740952Y-116932380D01*
X145931428Y-116932380D01*
X146026666Y-116884761D01*
X146074285Y-116837142D01*
X146121904Y-116741904D01*
X146121904Y-116551428D01*
X146074285Y-116456190D01*
X146026666Y-116408571D01*
X145931428Y-116360952D01*
%TO.C,R17*%
X144259523Y-109392380D02*
X143688095Y-109392380D01*
X143973809Y-109392380D02*
X143973809Y-108392380D01*
X143878571Y-108535238D01*
X143783333Y-108630476D01*
X143688095Y-108678095D01*
X144878571Y-108392380D02*
X144973809Y-108392380D01*
X145069047Y-108440000D01*
X145116666Y-108487619D01*
X145164285Y-108582857D01*
X145211904Y-108773333D01*
X145211904Y-109011428D01*
X145164285Y-109201904D01*
X145116666Y-109297142D01*
X145069047Y-109344761D01*
X144973809Y-109392380D01*
X144878571Y-109392380D01*
X144783333Y-109344761D01*
X144735714Y-109297142D01*
X144688095Y-109201904D01*
X144640476Y-109011428D01*
X144640476Y-108773333D01*
X144688095Y-108582857D01*
X144735714Y-108487619D01*
X144783333Y-108440000D01*
X144878571Y-108392380D01*
X145640476Y-109392380D02*
X145640476Y-108392380D01*
X146211904Y-109392380D02*
X145783333Y-108820952D01*
X146211904Y-108392380D02*
X145640476Y-108963809D01*
X144307142Y-111932380D02*
X143973809Y-111456190D01*
X143735714Y-111932380D02*
X143735714Y-110932380D01*
X144116666Y-110932380D01*
X144211904Y-110980000D01*
X144259523Y-111027619D01*
X144307142Y-111122857D01*
X144307142Y-111265714D01*
X144259523Y-111360952D01*
X144211904Y-111408571D01*
X144116666Y-111456190D01*
X143735714Y-111456190D01*
X145259523Y-111932380D02*
X144688095Y-111932380D01*
X144973809Y-111932380D02*
X144973809Y-110932380D01*
X144878571Y-111075238D01*
X144783333Y-111170476D01*
X144688095Y-111218095D01*
X145592857Y-110932380D02*
X146259523Y-110932380D01*
X145830952Y-111932380D01*
%TO.C,R16*%
X144259523Y-104112380D02*
X143688095Y-104112380D01*
X143973809Y-104112380D02*
X143973809Y-103112380D01*
X143878571Y-103255238D01*
X143783333Y-103350476D01*
X143688095Y-103398095D01*
X144878571Y-103112380D02*
X144973809Y-103112380D01*
X145069047Y-103160000D01*
X145116666Y-103207619D01*
X145164285Y-103302857D01*
X145211904Y-103493333D01*
X145211904Y-103731428D01*
X145164285Y-103921904D01*
X145116666Y-104017142D01*
X145069047Y-104064761D01*
X144973809Y-104112380D01*
X144878571Y-104112380D01*
X144783333Y-104064761D01*
X144735714Y-104017142D01*
X144688095Y-103921904D01*
X144640476Y-103731428D01*
X144640476Y-103493333D01*
X144688095Y-103302857D01*
X144735714Y-103207619D01*
X144783333Y-103160000D01*
X144878571Y-103112380D01*
X145640476Y-104112380D02*
X145640476Y-103112380D01*
X146211904Y-104112380D02*
X145783333Y-103540952D01*
X146211904Y-103112380D02*
X145640476Y-103683809D01*
X144307142Y-106652380D02*
X143973809Y-106176190D01*
X143735714Y-106652380D02*
X143735714Y-105652380D01*
X144116666Y-105652380D01*
X144211904Y-105700000D01*
X144259523Y-105747619D01*
X144307142Y-105842857D01*
X144307142Y-105985714D01*
X144259523Y-106080952D01*
X144211904Y-106128571D01*
X144116666Y-106176190D01*
X143735714Y-106176190D01*
X145259523Y-106652380D02*
X144688095Y-106652380D01*
X144973809Y-106652380D02*
X144973809Y-105652380D01*
X144878571Y-105795238D01*
X144783333Y-105890476D01*
X144688095Y-105938095D01*
X146116666Y-105652380D02*
X145926190Y-105652380D01*
X145830952Y-105700000D01*
X145783333Y-105747619D01*
X145688095Y-105890476D01*
X145640476Y-106080952D01*
X145640476Y-106461904D01*
X145688095Y-106557142D01*
X145735714Y-106604761D01*
X145830952Y-106652380D01*
X146021428Y-106652380D01*
X146116666Y-106604761D01*
X146164285Y-106557142D01*
X146211904Y-106461904D01*
X146211904Y-106223809D01*
X146164285Y-106128571D01*
X146116666Y-106080952D01*
X146021428Y-106033333D01*
X145830952Y-106033333D01*
X145735714Y-106080952D01*
X145688095Y-106128571D01*
X145640476Y-106223809D01*
%TO.C,R15*%
X144294285Y-98095714D02*
X144294285Y-98762380D01*
X144056190Y-97714761D02*
X143818095Y-98429047D01*
X144437142Y-98429047D01*
X144818095Y-98762380D02*
X144818095Y-97762380D01*
X145389523Y-98762380D02*
X144960952Y-98190952D01*
X145389523Y-97762380D02*
X144818095Y-98333809D01*
X145722857Y-97762380D02*
X146389523Y-97762380D01*
X145960952Y-98762380D01*
X144437142Y-101302380D02*
X144103809Y-100826190D01*
X143865714Y-101302380D02*
X143865714Y-100302380D01*
X144246666Y-100302380D01*
X144341904Y-100350000D01*
X144389523Y-100397619D01*
X144437142Y-100492857D01*
X144437142Y-100635714D01*
X144389523Y-100730952D01*
X144341904Y-100778571D01*
X144246666Y-100826190D01*
X143865714Y-100826190D01*
X145389523Y-101302380D02*
X144818095Y-101302380D01*
X145103809Y-101302380D02*
X145103809Y-100302380D01*
X145008571Y-100445238D01*
X144913333Y-100540476D01*
X144818095Y-100588095D01*
X146294285Y-100302380D02*
X145818095Y-100302380D01*
X145770476Y-100778571D01*
X145818095Y-100730952D01*
X145913333Y-100683333D01*
X146151428Y-100683333D01*
X146246666Y-100730952D01*
X146294285Y-100778571D01*
X146341904Y-100873809D01*
X146341904Y-101111904D01*
X146294285Y-101207142D01*
X146246666Y-101254761D01*
X146151428Y-101302380D01*
X145913333Y-101302380D01*
X145818095Y-101254761D01*
X145770476Y-101207142D01*
%TO.C,R14*%
X143778095Y-92667619D02*
X143825714Y-92620000D01*
X143920952Y-92572380D01*
X144159047Y-92572380D01*
X144254285Y-92620000D01*
X144301904Y-92667619D01*
X144349523Y-92762857D01*
X144349523Y-92858095D01*
X144301904Y-93000952D01*
X143730476Y-93572380D01*
X144349523Y-93572380D01*
X144730476Y-92667619D02*
X144778095Y-92620000D01*
X144873333Y-92572380D01*
X145111428Y-92572380D01*
X145206666Y-92620000D01*
X145254285Y-92667619D01*
X145301904Y-92762857D01*
X145301904Y-92858095D01*
X145254285Y-93000952D01*
X144682857Y-93572380D01*
X145301904Y-93572380D01*
X145730476Y-93572380D02*
X145730476Y-92572380D01*
X146301904Y-93572380D02*
X145873333Y-93000952D01*
X146301904Y-92572380D02*
X145730476Y-93143809D01*
X144397142Y-96112380D02*
X144063809Y-95636190D01*
X143825714Y-96112380D02*
X143825714Y-95112380D01*
X144206666Y-95112380D01*
X144301904Y-95160000D01*
X144349523Y-95207619D01*
X144397142Y-95302857D01*
X144397142Y-95445714D01*
X144349523Y-95540952D01*
X144301904Y-95588571D01*
X144206666Y-95636190D01*
X143825714Y-95636190D01*
X145349523Y-96112380D02*
X144778095Y-96112380D01*
X145063809Y-96112380D02*
X145063809Y-95112380D01*
X144968571Y-95255238D01*
X144873333Y-95350476D01*
X144778095Y-95398095D01*
X146206666Y-95445714D02*
X146206666Y-96112380D01*
X145968571Y-95064761D02*
X145730476Y-95779047D01*
X146349523Y-95779047D01*
%TO.C,R13*%
X102562380Y-104539523D02*
X102562380Y-103920476D01*
X102943333Y-104253809D01*
X102943333Y-104110952D01*
X102990952Y-104015714D01*
X103038571Y-103968095D01*
X103133809Y-103920476D01*
X103371904Y-103920476D01*
X103467142Y-103968095D01*
X103514761Y-104015714D01*
X103562380Y-104110952D01*
X103562380Y-104396666D01*
X103514761Y-104491904D01*
X103467142Y-104539523D01*
X102562380Y-103063333D02*
X102562380Y-103253809D01*
X102610000Y-103349047D01*
X102657619Y-103396666D01*
X102800476Y-103491904D01*
X102990952Y-103539523D01*
X103371904Y-103539523D01*
X103467142Y-103491904D01*
X103514761Y-103444285D01*
X103562380Y-103349047D01*
X103562380Y-103158571D01*
X103514761Y-103063333D01*
X103467142Y-103015714D01*
X103371904Y-102968095D01*
X103133809Y-102968095D01*
X103038571Y-103015714D01*
X102990952Y-103063333D01*
X102943333Y-103158571D01*
X102943333Y-103349047D01*
X102990952Y-103444285D01*
X103038571Y-103491904D01*
X103133809Y-103539523D01*
X103562380Y-102539523D02*
X102562380Y-102539523D01*
X103562380Y-101968095D02*
X102990952Y-102396666D01*
X102562380Y-101968095D02*
X103133809Y-102539523D01*
X106102380Y-103872857D02*
X105626190Y-104206190D01*
X106102380Y-104444285D02*
X105102380Y-104444285D01*
X105102380Y-104063333D01*
X105150000Y-103968095D01*
X105197619Y-103920476D01*
X105292857Y-103872857D01*
X105435714Y-103872857D01*
X105530952Y-103920476D01*
X105578571Y-103968095D01*
X105626190Y-104063333D01*
X105626190Y-104444285D01*
X106102380Y-102920476D02*
X106102380Y-103491904D01*
X106102380Y-103206190D02*
X105102380Y-103206190D01*
X105245238Y-103301428D01*
X105340476Y-103396666D01*
X105388095Y-103491904D01*
X105102380Y-102587142D02*
X105102380Y-101968095D01*
X105483333Y-102301428D01*
X105483333Y-102158571D01*
X105530952Y-102063333D01*
X105578571Y-102015714D01*
X105673809Y-101968095D01*
X105911904Y-101968095D01*
X106007142Y-102015714D01*
X106054761Y-102063333D01*
X106102380Y-102158571D01*
X106102380Y-102444285D01*
X106054761Y-102539523D01*
X106007142Y-102587142D01*
%TO.C,R12*%
X88648095Y-155535714D02*
X88648095Y-156202380D01*
X88410000Y-155154761D02*
X88171904Y-155869047D01*
X88790952Y-155869047D01*
X89076666Y-155202380D02*
X89743333Y-155202380D01*
X89314761Y-156202380D01*
X90314761Y-155202380D02*
X90410000Y-155202380D01*
X90505238Y-155250000D01*
X90552857Y-155297619D01*
X90600476Y-155392857D01*
X90648095Y-155583333D01*
X90648095Y-155821428D01*
X90600476Y-156011904D01*
X90552857Y-156107142D01*
X90505238Y-156154761D01*
X90410000Y-156202380D01*
X90314761Y-156202380D01*
X90219523Y-156154761D01*
X90171904Y-156107142D01*
X90124285Y-156011904D01*
X90076666Y-155821428D01*
X90076666Y-155583333D01*
X90124285Y-155392857D01*
X90171904Y-155297619D01*
X90219523Y-155250000D01*
X90314761Y-155202380D01*
X91648095Y-156202380D02*
X91314761Y-155726190D01*
X91076666Y-156202380D02*
X91076666Y-155202380D01*
X91457619Y-155202380D01*
X91552857Y-155250000D01*
X91600476Y-155297619D01*
X91648095Y-155392857D01*
X91648095Y-155535714D01*
X91600476Y-155630952D01*
X91552857Y-155678571D01*
X91457619Y-155726190D01*
X91076666Y-155726190D01*
X89267142Y-158742380D02*
X88933809Y-158266190D01*
X88695714Y-158742380D02*
X88695714Y-157742380D01*
X89076666Y-157742380D01*
X89171904Y-157790000D01*
X89219523Y-157837619D01*
X89267142Y-157932857D01*
X89267142Y-158075714D01*
X89219523Y-158170952D01*
X89171904Y-158218571D01*
X89076666Y-158266190D01*
X88695714Y-158266190D01*
X90219523Y-158742380D02*
X89648095Y-158742380D01*
X89933809Y-158742380D02*
X89933809Y-157742380D01*
X89838571Y-157885238D01*
X89743333Y-157980476D01*
X89648095Y-158028095D01*
X90600476Y-157837619D02*
X90648095Y-157790000D01*
X90743333Y-157742380D01*
X90981428Y-157742380D01*
X91076666Y-157790000D01*
X91124285Y-157837619D01*
X91171904Y-157932857D01*
X91171904Y-158028095D01*
X91124285Y-158170952D01*
X90552857Y-158742380D01*
X91171904Y-158742380D01*
%TO.C,R11*%
X88838095Y-150057619D02*
X88885714Y-150010000D01*
X88980952Y-149962380D01*
X89219047Y-149962380D01*
X89314285Y-150010000D01*
X89361904Y-150057619D01*
X89409523Y-150152857D01*
X89409523Y-150248095D01*
X89361904Y-150390952D01*
X88790476Y-150962380D01*
X89409523Y-150962380D01*
X89790476Y-150057619D02*
X89838095Y-150010000D01*
X89933333Y-149962380D01*
X90171428Y-149962380D01*
X90266666Y-150010000D01*
X90314285Y-150057619D01*
X90361904Y-150152857D01*
X90361904Y-150248095D01*
X90314285Y-150390952D01*
X89742857Y-150962380D01*
X90361904Y-150962380D01*
X90790476Y-150962380D02*
X90790476Y-149962380D01*
X91361904Y-150962380D02*
X90933333Y-150390952D01*
X91361904Y-149962380D02*
X90790476Y-150533809D01*
X89457142Y-153502380D02*
X89123809Y-153026190D01*
X88885714Y-153502380D02*
X88885714Y-152502380D01*
X89266666Y-152502380D01*
X89361904Y-152550000D01*
X89409523Y-152597619D01*
X89457142Y-152692857D01*
X89457142Y-152835714D01*
X89409523Y-152930952D01*
X89361904Y-152978571D01*
X89266666Y-153026190D01*
X88885714Y-153026190D01*
X90409523Y-153502380D02*
X89838095Y-153502380D01*
X90123809Y-153502380D02*
X90123809Y-152502380D01*
X90028571Y-152645238D01*
X89933333Y-152740476D01*
X89838095Y-152788095D01*
X91361904Y-153502380D02*
X90790476Y-153502380D01*
X91076190Y-153502380D02*
X91076190Y-152502380D01*
X90980952Y-152645238D01*
X90885714Y-152740476D01*
X90790476Y-152788095D01*
%TO.C,R10*%
X89814285Y-145752380D02*
X89242857Y-145752380D01*
X89528571Y-145752380D02*
X89528571Y-144752380D01*
X89433333Y-144895238D01*
X89338095Y-144990476D01*
X89242857Y-145038095D01*
X90242857Y-145752380D02*
X90242857Y-144752380D01*
X90576190Y-145466666D01*
X90909523Y-144752380D01*
X90909523Y-145752380D01*
X89457142Y-148292380D02*
X89123809Y-147816190D01*
X88885714Y-148292380D02*
X88885714Y-147292380D01*
X89266666Y-147292380D01*
X89361904Y-147340000D01*
X89409523Y-147387619D01*
X89457142Y-147482857D01*
X89457142Y-147625714D01*
X89409523Y-147720952D01*
X89361904Y-147768571D01*
X89266666Y-147816190D01*
X88885714Y-147816190D01*
X90409523Y-148292380D02*
X89838095Y-148292380D01*
X90123809Y-148292380D02*
X90123809Y-147292380D01*
X90028571Y-147435238D01*
X89933333Y-147530476D01*
X89838095Y-147578095D01*
X91028571Y-147292380D02*
X91123809Y-147292380D01*
X91219047Y-147340000D01*
X91266666Y-147387619D01*
X91314285Y-147482857D01*
X91361904Y-147673333D01*
X91361904Y-147911428D01*
X91314285Y-148101904D01*
X91266666Y-148197142D01*
X91219047Y-148244761D01*
X91123809Y-148292380D01*
X91028571Y-148292380D01*
X90933333Y-148244761D01*
X90885714Y-148197142D01*
X90838095Y-148101904D01*
X90790476Y-147911428D01*
X90790476Y-147673333D01*
X90838095Y-147482857D01*
X90885714Y-147387619D01*
X90933333Y-147340000D01*
X91028571Y-147292380D01*
%TO.C,R9*%
X89539523Y-140662380D02*
X88968095Y-140662380D01*
X89253809Y-140662380D02*
X89253809Y-139662380D01*
X89158571Y-139805238D01*
X89063333Y-139900476D01*
X88968095Y-139948095D01*
X90158571Y-139662380D02*
X90253809Y-139662380D01*
X90349047Y-139710000D01*
X90396666Y-139757619D01*
X90444285Y-139852857D01*
X90491904Y-140043333D01*
X90491904Y-140281428D01*
X90444285Y-140471904D01*
X90396666Y-140567142D01*
X90349047Y-140614761D01*
X90253809Y-140662380D01*
X90158571Y-140662380D01*
X90063333Y-140614761D01*
X90015714Y-140567142D01*
X89968095Y-140471904D01*
X89920476Y-140281428D01*
X89920476Y-140043333D01*
X89968095Y-139852857D01*
X90015714Y-139757619D01*
X90063333Y-139710000D01*
X90158571Y-139662380D01*
X90920476Y-140662380D02*
X90920476Y-139662380D01*
X91491904Y-140662380D02*
X91063333Y-140090952D01*
X91491904Y-139662380D02*
X90920476Y-140233809D01*
X90063333Y-143202380D02*
X89730000Y-142726190D01*
X89491904Y-143202380D02*
X89491904Y-142202380D01*
X89872857Y-142202380D01*
X89968095Y-142250000D01*
X90015714Y-142297619D01*
X90063333Y-142392857D01*
X90063333Y-142535714D01*
X90015714Y-142630952D01*
X89968095Y-142678571D01*
X89872857Y-142726190D01*
X89491904Y-142726190D01*
X90539523Y-143202380D02*
X90730000Y-143202380D01*
X90825238Y-143154761D01*
X90872857Y-143107142D01*
X90968095Y-142964285D01*
X91015714Y-142773809D01*
X91015714Y-142392857D01*
X90968095Y-142297619D01*
X90920476Y-142250000D01*
X90825238Y-142202380D01*
X90634761Y-142202380D01*
X90539523Y-142250000D01*
X90491904Y-142297619D01*
X90444285Y-142392857D01*
X90444285Y-142630952D01*
X90491904Y-142726190D01*
X90539523Y-142773809D01*
X90634761Y-142821428D01*
X90825238Y-142821428D01*
X90920476Y-142773809D01*
X90968095Y-142726190D01*
X91015714Y-142630952D01*
%TO.C,R8*%
X88860476Y-134562380D02*
X89479523Y-134562380D01*
X89146190Y-134943333D01*
X89289047Y-134943333D01*
X89384285Y-134990952D01*
X89431904Y-135038571D01*
X89479523Y-135133809D01*
X89479523Y-135371904D01*
X89431904Y-135467142D01*
X89384285Y-135514761D01*
X89289047Y-135562380D01*
X89003333Y-135562380D01*
X88908095Y-135514761D01*
X88860476Y-135467142D01*
X89955714Y-135562380D02*
X90146190Y-135562380D01*
X90241428Y-135514761D01*
X90289047Y-135467142D01*
X90384285Y-135324285D01*
X90431904Y-135133809D01*
X90431904Y-134752857D01*
X90384285Y-134657619D01*
X90336666Y-134610000D01*
X90241428Y-134562380D01*
X90050952Y-134562380D01*
X89955714Y-134610000D01*
X89908095Y-134657619D01*
X89860476Y-134752857D01*
X89860476Y-134990952D01*
X89908095Y-135086190D01*
X89955714Y-135133809D01*
X90050952Y-135181428D01*
X90241428Y-135181428D01*
X90336666Y-135133809D01*
X90384285Y-135086190D01*
X90431904Y-134990952D01*
X90860476Y-135562380D02*
X90860476Y-134562380D01*
X91431904Y-135562380D02*
X91003333Y-134990952D01*
X91431904Y-134562380D02*
X90860476Y-135133809D01*
X90003333Y-138102380D02*
X89670000Y-137626190D01*
X89431904Y-138102380D02*
X89431904Y-137102380D01*
X89812857Y-137102380D01*
X89908095Y-137150000D01*
X89955714Y-137197619D01*
X90003333Y-137292857D01*
X90003333Y-137435714D01*
X89955714Y-137530952D01*
X89908095Y-137578571D01*
X89812857Y-137626190D01*
X89431904Y-137626190D01*
X90574761Y-137530952D02*
X90479523Y-137483333D01*
X90431904Y-137435714D01*
X90384285Y-137340476D01*
X90384285Y-137292857D01*
X90431904Y-137197619D01*
X90479523Y-137150000D01*
X90574761Y-137102380D01*
X90765238Y-137102380D01*
X90860476Y-137150000D01*
X90908095Y-137197619D01*
X90955714Y-137292857D01*
X90955714Y-137340476D01*
X90908095Y-137435714D01*
X90860476Y-137483333D01*
X90765238Y-137530952D01*
X90574761Y-137530952D01*
X90479523Y-137578571D01*
X90431904Y-137626190D01*
X90384285Y-137721428D01*
X90384285Y-137911904D01*
X90431904Y-138007142D01*
X90479523Y-138054761D01*
X90574761Y-138102380D01*
X90765238Y-138102380D01*
X90860476Y-138054761D01*
X90908095Y-138007142D01*
X90955714Y-137911904D01*
X90955714Y-137721428D01*
X90908095Y-137626190D01*
X90860476Y-137578571D01*
X90765238Y-137530952D01*
%TO.C,R7*%
X90145714Y-130362380D02*
X89574285Y-130362380D01*
X89860000Y-130362380D02*
X89860000Y-129362380D01*
X89764761Y-129505238D01*
X89669523Y-129600476D01*
X89574285Y-129648095D01*
X90574285Y-130362380D02*
X90574285Y-129362380D01*
X91145714Y-130362380D02*
X90717142Y-129790952D01*
X91145714Y-129362380D02*
X90574285Y-129933809D01*
X90193333Y-132902380D02*
X89860000Y-132426190D01*
X89621904Y-132902380D02*
X89621904Y-131902380D01*
X90002857Y-131902380D01*
X90098095Y-131950000D01*
X90145714Y-131997619D01*
X90193333Y-132092857D01*
X90193333Y-132235714D01*
X90145714Y-132330952D01*
X90098095Y-132378571D01*
X90002857Y-132426190D01*
X89621904Y-132426190D01*
X90526666Y-131902380D02*
X91193333Y-131902380D01*
X90764761Y-132902380D01*
%TO.C,R6*%
X90265714Y-125072380D02*
X89694285Y-125072380D01*
X89980000Y-125072380D02*
X89980000Y-124072380D01*
X89884761Y-124215238D01*
X89789523Y-124310476D01*
X89694285Y-124358095D01*
X90694285Y-125072380D02*
X90694285Y-124072380D01*
X91265714Y-125072380D02*
X90837142Y-124500952D01*
X91265714Y-124072380D02*
X90694285Y-124643809D01*
X90313333Y-127612380D02*
X89980000Y-127136190D01*
X89741904Y-127612380D02*
X89741904Y-126612380D01*
X90122857Y-126612380D01*
X90218095Y-126660000D01*
X90265714Y-126707619D01*
X90313333Y-126802857D01*
X90313333Y-126945714D01*
X90265714Y-127040952D01*
X90218095Y-127088571D01*
X90122857Y-127136190D01*
X89741904Y-127136190D01*
X91170476Y-126612380D02*
X90980000Y-126612380D01*
X90884761Y-126660000D01*
X90837142Y-126707619D01*
X90741904Y-126850476D01*
X90694285Y-127040952D01*
X90694285Y-127421904D01*
X90741904Y-127517142D01*
X90789523Y-127564761D01*
X90884761Y-127612380D01*
X91075238Y-127612380D01*
X91170476Y-127564761D01*
X91218095Y-127517142D01*
X91265714Y-127421904D01*
X91265714Y-127183809D01*
X91218095Y-127088571D01*
X91170476Y-127040952D01*
X91075238Y-126993333D01*
X90884761Y-126993333D01*
X90789523Y-127040952D01*
X90741904Y-127088571D01*
X90694285Y-127183809D01*
%TO.C,R5*%
X90305714Y-119842380D02*
X89734285Y-119842380D01*
X90020000Y-119842380D02*
X90020000Y-118842380D01*
X89924761Y-118985238D01*
X89829523Y-119080476D01*
X89734285Y-119128095D01*
X90734285Y-119842380D02*
X90734285Y-118842380D01*
X91305714Y-119842380D02*
X90877142Y-119270952D01*
X91305714Y-118842380D02*
X90734285Y-119413809D01*
X90353333Y-122382380D02*
X90020000Y-121906190D01*
X89781904Y-122382380D02*
X89781904Y-121382380D01*
X90162857Y-121382380D01*
X90258095Y-121430000D01*
X90305714Y-121477619D01*
X90353333Y-121572857D01*
X90353333Y-121715714D01*
X90305714Y-121810952D01*
X90258095Y-121858571D01*
X90162857Y-121906190D01*
X89781904Y-121906190D01*
X91258095Y-121382380D02*
X90781904Y-121382380D01*
X90734285Y-121858571D01*
X90781904Y-121810952D01*
X90877142Y-121763333D01*
X91115238Y-121763333D01*
X91210476Y-121810952D01*
X91258095Y-121858571D01*
X91305714Y-121953809D01*
X91305714Y-122191904D01*
X91258095Y-122287142D01*
X91210476Y-122334761D01*
X91115238Y-122382380D01*
X90877142Y-122382380D01*
X90781904Y-122334761D01*
X90734285Y-122287142D01*
%TO.C,R4*%
X89288095Y-114025714D02*
X89288095Y-114692380D01*
X89050000Y-113644761D02*
X88811904Y-114359047D01*
X89430952Y-114359047D01*
X89716666Y-113692380D02*
X90383333Y-113692380D01*
X89954761Y-114692380D01*
X90954761Y-113692380D02*
X91050000Y-113692380D01*
X91145238Y-113740000D01*
X91192857Y-113787619D01*
X91240476Y-113882857D01*
X91288095Y-114073333D01*
X91288095Y-114311428D01*
X91240476Y-114501904D01*
X91192857Y-114597142D01*
X91145238Y-114644761D01*
X91050000Y-114692380D01*
X90954761Y-114692380D01*
X90859523Y-114644761D01*
X90811904Y-114597142D01*
X90764285Y-114501904D01*
X90716666Y-114311428D01*
X90716666Y-114073333D01*
X90764285Y-113882857D01*
X90811904Y-113787619D01*
X90859523Y-113740000D01*
X90954761Y-113692380D01*
X91716666Y-114692380D02*
X91716666Y-113692380D01*
X92288095Y-114692380D02*
X91859523Y-114120952D01*
X92288095Y-113692380D02*
X91716666Y-114263809D01*
X90383333Y-117232380D02*
X90050000Y-116756190D01*
X89811904Y-117232380D02*
X89811904Y-116232380D01*
X90192857Y-116232380D01*
X90288095Y-116280000D01*
X90335714Y-116327619D01*
X90383333Y-116422857D01*
X90383333Y-116565714D01*
X90335714Y-116660952D01*
X90288095Y-116708571D01*
X90192857Y-116756190D01*
X89811904Y-116756190D01*
X91240476Y-116565714D02*
X91240476Y-117232380D01*
X91002380Y-116184761D02*
X90764285Y-116899047D01*
X91383333Y-116899047D01*
%TO.C,R3*%
X89694285Y-108632380D02*
X89503809Y-108632380D01*
X89408571Y-108680000D01*
X89360952Y-108727619D01*
X89265714Y-108870476D01*
X89218095Y-109060952D01*
X89218095Y-109441904D01*
X89265714Y-109537142D01*
X89313333Y-109584761D01*
X89408571Y-109632380D01*
X89599047Y-109632380D01*
X89694285Y-109584761D01*
X89741904Y-109537142D01*
X89789523Y-109441904D01*
X89789523Y-109203809D01*
X89741904Y-109108571D01*
X89694285Y-109060952D01*
X89599047Y-109013333D01*
X89408571Y-109013333D01*
X89313333Y-109060952D01*
X89265714Y-109108571D01*
X89218095Y-109203809D01*
X90170476Y-108727619D02*
X90218095Y-108680000D01*
X90313333Y-108632380D01*
X90551428Y-108632380D01*
X90646666Y-108680000D01*
X90694285Y-108727619D01*
X90741904Y-108822857D01*
X90741904Y-108918095D01*
X90694285Y-109060952D01*
X90122857Y-109632380D01*
X90741904Y-109632380D01*
X91170476Y-109632380D02*
X91170476Y-108632380D01*
X91741904Y-109632380D02*
X91313333Y-109060952D01*
X91741904Y-108632380D02*
X91170476Y-109203809D01*
X90313333Y-112172380D02*
X89980000Y-111696190D01*
X89741904Y-112172380D02*
X89741904Y-111172380D01*
X90122857Y-111172380D01*
X90218095Y-111220000D01*
X90265714Y-111267619D01*
X90313333Y-111362857D01*
X90313333Y-111505714D01*
X90265714Y-111600952D01*
X90218095Y-111648571D01*
X90122857Y-111696190D01*
X89741904Y-111696190D01*
X90646666Y-111172380D02*
X91265714Y-111172380D01*
X90932380Y-111553333D01*
X91075238Y-111553333D01*
X91170476Y-111600952D01*
X91218095Y-111648571D01*
X91265714Y-111743809D01*
X91265714Y-111981904D01*
X91218095Y-112077142D01*
X91170476Y-112124761D01*
X91075238Y-112172380D01*
X90789523Y-112172380D01*
X90694285Y-112124761D01*
X90646666Y-112077142D01*
%TO.C,R2*%
X89774285Y-103622380D02*
X89583809Y-103622380D01*
X89488571Y-103670000D01*
X89440952Y-103717619D01*
X89345714Y-103860476D01*
X89298095Y-104050952D01*
X89298095Y-104431904D01*
X89345714Y-104527142D01*
X89393333Y-104574761D01*
X89488571Y-104622380D01*
X89679047Y-104622380D01*
X89774285Y-104574761D01*
X89821904Y-104527142D01*
X89869523Y-104431904D01*
X89869523Y-104193809D01*
X89821904Y-104098571D01*
X89774285Y-104050952D01*
X89679047Y-104003333D01*
X89488571Y-104003333D01*
X89393333Y-104050952D01*
X89345714Y-104098571D01*
X89298095Y-104193809D01*
X90250476Y-103717619D02*
X90298095Y-103670000D01*
X90393333Y-103622380D01*
X90631428Y-103622380D01*
X90726666Y-103670000D01*
X90774285Y-103717619D01*
X90821904Y-103812857D01*
X90821904Y-103908095D01*
X90774285Y-104050952D01*
X90202857Y-104622380D01*
X90821904Y-104622380D01*
X91250476Y-104622380D02*
X91250476Y-103622380D01*
X91821904Y-104622380D02*
X91393333Y-104050952D01*
X91821904Y-103622380D02*
X91250476Y-104193809D01*
X90393333Y-107162380D02*
X90060000Y-106686190D01*
X89821904Y-107162380D02*
X89821904Y-106162380D01*
X90202857Y-106162380D01*
X90298095Y-106210000D01*
X90345714Y-106257619D01*
X90393333Y-106352857D01*
X90393333Y-106495714D01*
X90345714Y-106590952D01*
X90298095Y-106638571D01*
X90202857Y-106686190D01*
X89821904Y-106686190D01*
X90774285Y-106257619D02*
X90821904Y-106210000D01*
X90917142Y-106162380D01*
X91155238Y-106162380D01*
X91250476Y-106210000D01*
X91298095Y-106257619D01*
X91345714Y-106352857D01*
X91345714Y-106448095D01*
X91298095Y-106590952D01*
X90726666Y-107162380D01*
X91345714Y-107162380D01*
%TO.C,R1*%
X89924285Y-98472380D02*
X89733809Y-98472380D01*
X89638571Y-98520000D01*
X89590952Y-98567619D01*
X89495714Y-98710476D01*
X89448095Y-98900952D01*
X89448095Y-99281904D01*
X89495714Y-99377142D01*
X89543333Y-99424761D01*
X89638571Y-99472380D01*
X89829047Y-99472380D01*
X89924285Y-99424761D01*
X89971904Y-99377142D01*
X90019523Y-99281904D01*
X90019523Y-99043809D01*
X89971904Y-98948571D01*
X89924285Y-98900952D01*
X89829047Y-98853333D01*
X89638571Y-98853333D01*
X89543333Y-98900952D01*
X89495714Y-98948571D01*
X89448095Y-99043809D01*
X90400476Y-98567619D02*
X90448095Y-98520000D01*
X90543333Y-98472380D01*
X90781428Y-98472380D01*
X90876666Y-98520000D01*
X90924285Y-98567619D01*
X90971904Y-98662857D01*
X90971904Y-98758095D01*
X90924285Y-98900952D01*
X90352857Y-99472380D01*
X90971904Y-99472380D01*
X91400476Y-99472380D02*
X91400476Y-98472380D01*
X91971904Y-99472380D02*
X91543333Y-98900952D01*
X91971904Y-98472380D02*
X91400476Y-99043809D01*
X90543333Y-102012380D02*
X90210000Y-101536190D01*
X89971904Y-102012380D02*
X89971904Y-101012380D01*
X90352857Y-101012380D01*
X90448095Y-101060000D01*
X90495714Y-101107619D01*
X90543333Y-101202857D01*
X90543333Y-101345714D01*
X90495714Y-101440952D01*
X90448095Y-101488571D01*
X90352857Y-101536190D01*
X89971904Y-101536190D01*
X91495714Y-102012380D02*
X90924285Y-102012380D01*
X91210000Y-102012380D02*
X91210000Y-101012380D01*
X91114761Y-101155238D01*
X91019523Y-101250476D01*
X90924285Y-101298095D01*
%TO.C,Q2*%
X130624761Y-108277619D02*
X130529523Y-108230000D01*
X130434285Y-108134761D01*
X130291428Y-107991904D01*
X130196190Y-107944285D01*
X130100952Y-107944285D01*
X130148571Y-108182380D02*
X130053333Y-108134761D01*
X129958095Y-108039523D01*
X129910476Y-107849047D01*
X129910476Y-107515714D01*
X129958095Y-107325238D01*
X130053333Y-107230000D01*
X130148571Y-107182380D01*
X130339047Y-107182380D01*
X130434285Y-107230000D01*
X130529523Y-107325238D01*
X130577142Y-107515714D01*
X130577142Y-107849047D01*
X130529523Y-108039523D01*
X130434285Y-108134761D01*
X130339047Y-108182380D01*
X130148571Y-108182380D01*
X130958095Y-107277619D02*
X131005714Y-107230000D01*
X131100952Y-107182380D01*
X131339047Y-107182380D01*
X131434285Y-107230000D01*
X131481904Y-107277619D01*
X131529523Y-107372857D01*
X131529523Y-107468095D01*
X131481904Y-107610952D01*
X130910476Y-108182380D01*
X131529523Y-108182380D01*
X128862857Y-114008571D02*
X129005714Y-114056190D01*
X129053333Y-114103809D01*
X129100952Y-114199047D01*
X129100952Y-114341904D01*
X129053333Y-114437142D01*
X129005714Y-114484761D01*
X128910476Y-114532380D01*
X128529523Y-114532380D01*
X128529523Y-113532380D01*
X128862857Y-113532380D01*
X128958095Y-113580000D01*
X129005714Y-113627619D01*
X129053333Y-113722857D01*
X129053333Y-113818095D01*
X129005714Y-113913333D01*
X128958095Y-113960952D01*
X128862857Y-114008571D01*
X128529523Y-114008571D01*
X130100952Y-114437142D02*
X130053333Y-114484761D01*
X129910476Y-114532380D01*
X129815238Y-114532380D01*
X129672380Y-114484761D01*
X129577142Y-114389523D01*
X129529523Y-114294285D01*
X129481904Y-114103809D01*
X129481904Y-113960952D01*
X129529523Y-113770476D01*
X129577142Y-113675238D01*
X129672380Y-113580000D01*
X129815238Y-113532380D01*
X129910476Y-113532380D01*
X130053333Y-113580000D01*
X130100952Y-113627619D01*
X131005714Y-113532380D02*
X130529523Y-113532380D01*
X130481904Y-114008571D01*
X130529523Y-113960952D01*
X130624761Y-113913333D01*
X130862857Y-113913333D01*
X130958095Y-113960952D01*
X131005714Y-114008571D01*
X131053333Y-114103809D01*
X131053333Y-114341904D01*
X131005714Y-114437142D01*
X130958095Y-114484761D01*
X130862857Y-114532380D01*
X130624761Y-114532380D01*
X130529523Y-114484761D01*
X130481904Y-114437142D01*
X131910476Y-113865714D02*
X131910476Y-114532380D01*
X131672380Y-113484761D02*
X131434285Y-114199047D01*
X132053333Y-114199047D01*
X132577142Y-113960952D02*
X132481904Y-113913333D01*
X132434285Y-113865714D01*
X132386666Y-113770476D01*
X132386666Y-113722857D01*
X132434285Y-113627619D01*
X132481904Y-113580000D01*
X132577142Y-113532380D01*
X132767619Y-113532380D01*
X132862857Y-113580000D01*
X132910476Y-113627619D01*
X132958095Y-113722857D01*
X132958095Y-113770476D01*
X132910476Y-113865714D01*
X132862857Y-113913333D01*
X132767619Y-113960952D01*
X132577142Y-113960952D01*
X132481904Y-114008571D01*
X132434285Y-114056190D01*
X132386666Y-114151428D01*
X132386666Y-114341904D01*
X132434285Y-114437142D01*
X132481904Y-114484761D01*
X132577142Y-114532380D01*
X132767619Y-114532380D01*
X132862857Y-114484761D01*
X132910476Y-114437142D01*
X132958095Y-114341904D01*
X132958095Y-114151428D01*
X132910476Y-114056190D01*
X132862857Y-114008571D01*
X132767619Y-113960952D01*
%TO.C,Q1*%
X130534761Y-100297619D02*
X130439523Y-100250000D01*
X130344285Y-100154761D01*
X130201428Y-100011904D01*
X130106190Y-99964285D01*
X130010952Y-99964285D01*
X130058571Y-100202380D02*
X129963333Y-100154761D01*
X129868095Y-100059523D01*
X129820476Y-99869047D01*
X129820476Y-99535714D01*
X129868095Y-99345238D01*
X129963333Y-99250000D01*
X130058571Y-99202380D01*
X130249047Y-99202380D01*
X130344285Y-99250000D01*
X130439523Y-99345238D01*
X130487142Y-99535714D01*
X130487142Y-99869047D01*
X130439523Y-100059523D01*
X130344285Y-100154761D01*
X130249047Y-100202380D01*
X130058571Y-100202380D01*
X131439523Y-100202380D02*
X130868095Y-100202380D01*
X131153809Y-100202380D02*
X131153809Y-99202380D01*
X131058571Y-99345238D01*
X130963333Y-99440476D01*
X130868095Y-99488095D01*
X128772857Y-106028571D02*
X128915714Y-106076190D01*
X128963333Y-106123809D01*
X129010952Y-106219047D01*
X129010952Y-106361904D01*
X128963333Y-106457142D01*
X128915714Y-106504761D01*
X128820476Y-106552380D01*
X128439523Y-106552380D01*
X128439523Y-105552380D01*
X128772857Y-105552380D01*
X128868095Y-105600000D01*
X128915714Y-105647619D01*
X128963333Y-105742857D01*
X128963333Y-105838095D01*
X128915714Y-105933333D01*
X128868095Y-105980952D01*
X128772857Y-106028571D01*
X128439523Y-106028571D01*
X130010952Y-106457142D02*
X129963333Y-106504761D01*
X129820476Y-106552380D01*
X129725238Y-106552380D01*
X129582380Y-106504761D01*
X129487142Y-106409523D01*
X129439523Y-106314285D01*
X129391904Y-106123809D01*
X129391904Y-105980952D01*
X129439523Y-105790476D01*
X129487142Y-105695238D01*
X129582380Y-105600000D01*
X129725238Y-105552380D01*
X129820476Y-105552380D01*
X129963333Y-105600000D01*
X130010952Y-105647619D01*
X130915714Y-105552380D02*
X130439523Y-105552380D01*
X130391904Y-106028571D01*
X130439523Y-105980952D01*
X130534761Y-105933333D01*
X130772857Y-105933333D01*
X130868095Y-105980952D01*
X130915714Y-106028571D01*
X130963333Y-106123809D01*
X130963333Y-106361904D01*
X130915714Y-106457142D01*
X130868095Y-106504761D01*
X130772857Y-106552380D01*
X130534761Y-106552380D01*
X130439523Y-106504761D01*
X130391904Y-106457142D01*
X131868095Y-105552380D02*
X131391904Y-105552380D01*
X131344285Y-106028571D01*
X131391904Y-105980952D01*
X131487142Y-105933333D01*
X131725238Y-105933333D01*
X131820476Y-105980952D01*
X131868095Y-106028571D01*
X131915714Y-106123809D01*
X131915714Y-106361904D01*
X131868095Y-106457142D01*
X131820476Y-106504761D01*
X131725238Y-106552380D01*
X131487142Y-106552380D01*
X131391904Y-106504761D01*
X131344285Y-106457142D01*
X132487142Y-105980952D02*
X132391904Y-105933333D01*
X132344285Y-105885714D01*
X132296666Y-105790476D01*
X132296666Y-105742857D01*
X132344285Y-105647619D01*
X132391904Y-105600000D01*
X132487142Y-105552380D01*
X132677619Y-105552380D01*
X132772857Y-105600000D01*
X132820476Y-105647619D01*
X132868095Y-105742857D01*
X132868095Y-105790476D01*
X132820476Y-105885714D01*
X132772857Y-105933333D01*
X132677619Y-105980952D01*
X132487142Y-105980952D01*
X132391904Y-106028571D01*
X132344285Y-106076190D01*
X132296666Y-106171428D01*
X132296666Y-106361904D01*
X132344285Y-106457142D01*
X132391904Y-106504761D01*
X132487142Y-106552380D01*
X132677619Y-106552380D01*
X132772857Y-106504761D01*
X132820476Y-106457142D01*
X132868095Y-106361904D01*
X132868095Y-106171428D01*
X132820476Y-106076190D01*
X132772857Y-106028571D01*
X132677619Y-105980952D01*
%TO.C,J2*%
X144206666Y-52032380D02*
X144206666Y-52746666D01*
X144159047Y-52889523D01*
X144063809Y-52984761D01*
X143920952Y-53032380D01*
X143825714Y-53032380D01*
X144635238Y-52127619D02*
X144682857Y-52080000D01*
X144778095Y-52032380D01*
X145016190Y-52032380D01*
X145111428Y-52080000D01*
X145159047Y-52127619D01*
X145206666Y-52222857D01*
X145206666Y-52318095D01*
X145159047Y-52460952D01*
X144587619Y-53032380D01*
X145206666Y-53032380D01*
X139087619Y-67328571D02*
X139420952Y-67328571D01*
X139563809Y-67852380D02*
X139087619Y-67852380D01*
X139087619Y-66852380D01*
X139563809Y-66852380D01*
X139992380Y-66852380D02*
X139992380Y-67661904D01*
X140040000Y-67757142D01*
X140087619Y-67804761D01*
X140182857Y-67852380D01*
X140373333Y-67852380D01*
X140468571Y-67804761D01*
X140516190Y-67757142D01*
X140563809Y-67661904D01*
X140563809Y-66852380D01*
X141611428Y-67852380D02*
X141278095Y-67376190D01*
X141040000Y-67852380D02*
X141040000Y-66852380D01*
X141420952Y-66852380D01*
X141516190Y-66900000D01*
X141563809Y-66947619D01*
X141611428Y-67042857D01*
X141611428Y-67185714D01*
X141563809Y-67280952D01*
X141516190Y-67328571D01*
X141420952Y-67376190D01*
X141040000Y-67376190D01*
X142230476Y-66852380D02*
X142420952Y-66852380D01*
X142516190Y-66900000D01*
X142611428Y-66995238D01*
X142659047Y-67185714D01*
X142659047Y-67519047D01*
X142611428Y-67709523D01*
X142516190Y-67804761D01*
X142420952Y-67852380D01*
X142230476Y-67852380D01*
X142135238Y-67804761D01*
X142040000Y-67709523D01*
X141992380Y-67519047D01*
X141992380Y-67185714D01*
X142040000Y-66995238D01*
X142135238Y-66900000D01*
X142230476Y-66852380D01*
X142849523Y-67947619D02*
X143611428Y-67947619D01*
X143849523Y-67852380D02*
X143849523Y-66852380D01*
X144230476Y-66852380D01*
X144325714Y-66900000D01*
X144373333Y-66947619D01*
X144420952Y-67042857D01*
X144420952Y-67185714D01*
X144373333Y-67280952D01*
X144325714Y-67328571D01*
X144230476Y-67376190D01*
X143849523Y-67376190D01*
X144754285Y-66852380D02*
X144992380Y-67852380D01*
X145182857Y-67138095D01*
X145373333Y-67852380D01*
X145611428Y-66852380D01*
X146563809Y-67852380D02*
X146230476Y-67376190D01*
X145992380Y-67852380D02*
X145992380Y-66852380D01*
X146373333Y-66852380D01*
X146468571Y-66900000D01*
X146516190Y-66947619D01*
X146563809Y-67042857D01*
X146563809Y-67185714D01*
X146516190Y-67280952D01*
X146468571Y-67328571D01*
X146373333Y-67376190D01*
X145992380Y-67376190D01*
X146754285Y-67947619D02*
X147516190Y-67947619D01*
X147706666Y-66947619D02*
X147754285Y-66900000D01*
X147849523Y-66852380D01*
X148087619Y-66852380D01*
X148182857Y-66900000D01*
X148230476Y-66947619D01*
X148278095Y-67042857D01*
X148278095Y-67138095D01*
X148230476Y-67280952D01*
X147659047Y-67852380D01*
X148278095Y-67852380D01*
X148611428Y-67852380D02*
X149135238Y-67185714D01*
X148611428Y-67185714D02*
X149135238Y-67852380D01*
X149992380Y-66852380D02*
X149516190Y-66852380D01*
X149468571Y-67328571D01*
X149516190Y-67280952D01*
X149611428Y-67233333D01*
X149849523Y-67233333D01*
X149944761Y-67280952D01*
X149992380Y-67328571D01*
X150040000Y-67423809D01*
X150040000Y-67661904D01*
X149992380Y-67757142D01*
X149944761Y-67804761D01*
X149849523Y-67852380D01*
X149611428Y-67852380D01*
X149516190Y-67804761D01*
X149468571Y-67757142D01*
%TO.C,D2*%
X124911904Y-59422380D02*
X124911904Y-58422380D01*
X125150000Y-58422380D01*
X125292857Y-58470000D01*
X125388095Y-58565238D01*
X125435714Y-58660476D01*
X125483333Y-58850952D01*
X125483333Y-58993809D01*
X125435714Y-59184285D01*
X125388095Y-59279523D01*
X125292857Y-59374761D01*
X125150000Y-59422380D01*
X124911904Y-59422380D01*
X125864285Y-58517619D02*
X125911904Y-58470000D01*
X126007142Y-58422380D01*
X126245238Y-58422380D01*
X126340476Y-58470000D01*
X126388095Y-58517619D01*
X126435714Y-58612857D01*
X126435714Y-58708095D01*
X126388095Y-58850952D01*
X125816666Y-59422380D01*
X126435714Y-59422380D01*
X121578095Y-59742380D02*
X121578095Y-58742380D01*
X122149523Y-59742380D02*
X121720952Y-59170952D01*
X122149523Y-58742380D02*
X121578095Y-59313809D01*
%TO.C,D1*%
X111441904Y-59352380D02*
X111441904Y-58352380D01*
X111680000Y-58352380D01*
X111822857Y-58400000D01*
X111918095Y-58495238D01*
X111965714Y-58590476D01*
X112013333Y-58780952D01*
X112013333Y-58923809D01*
X111965714Y-59114285D01*
X111918095Y-59209523D01*
X111822857Y-59304761D01*
X111680000Y-59352380D01*
X111441904Y-59352380D01*
X112965714Y-59352380D02*
X112394285Y-59352380D01*
X112680000Y-59352380D02*
X112680000Y-58352380D01*
X112584761Y-58495238D01*
X112489523Y-58590476D01*
X112394285Y-58638095D01*
X108108095Y-59672380D02*
X108108095Y-58672380D01*
X108679523Y-59672380D02*
X108250952Y-59100952D01*
X108679523Y-58672380D02*
X108108095Y-59243809D01*
%TO.C,C11*%
X142672857Y-82297142D02*
X142720476Y-82344761D01*
X142672857Y-82392380D01*
X142625238Y-82344761D01*
X142672857Y-82297142D01*
X142672857Y-82392380D01*
X143672857Y-82392380D02*
X143101428Y-82392380D01*
X143387142Y-82392380D02*
X143387142Y-81392380D01*
X143291904Y-81535238D01*
X143196666Y-81630476D01*
X143101428Y-81678095D01*
X144530000Y-81725714D02*
X144530000Y-82392380D01*
X144101428Y-81725714D02*
X144101428Y-82249523D01*
X144149047Y-82344761D01*
X144244285Y-82392380D01*
X144387142Y-82392380D01*
X144482380Y-82344761D01*
X144530000Y-82297142D01*
X145339523Y-81868571D02*
X145006190Y-81868571D01*
X145006190Y-82392380D02*
X145006190Y-81392380D01*
X145482380Y-81392380D01*
X143387142Y-87377142D02*
X143339523Y-87424761D01*
X143196666Y-87472380D01*
X143101428Y-87472380D01*
X142958571Y-87424761D01*
X142863333Y-87329523D01*
X142815714Y-87234285D01*
X142768095Y-87043809D01*
X142768095Y-86900952D01*
X142815714Y-86710476D01*
X142863333Y-86615238D01*
X142958571Y-86520000D01*
X143101428Y-86472380D01*
X143196666Y-86472380D01*
X143339523Y-86520000D01*
X143387142Y-86567619D01*
X144339523Y-87472380D02*
X143768095Y-87472380D01*
X144053809Y-87472380D02*
X144053809Y-86472380D01*
X143958571Y-86615238D01*
X143863333Y-86710476D01*
X143768095Y-86758095D01*
X145291904Y-87472380D02*
X144720476Y-87472380D01*
X145006190Y-87472380D02*
X145006190Y-86472380D01*
X144910952Y-86615238D01*
X144815714Y-86710476D01*
X144720476Y-86758095D01*
%TO.C,C8*%
X130722857Y-152697142D02*
X130770476Y-152744761D01*
X130722857Y-152792380D01*
X130675238Y-152744761D01*
X130722857Y-152697142D01*
X130722857Y-152792380D01*
X131722857Y-152792380D02*
X131151428Y-152792380D01*
X131437142Y-152792380D02*
X131437142Y-151792380D01*
X131341904Y-151935238D01*
X131246666Y-152030476D01*
X131151428Y-152078095D01*
X132580000Y-152125714D02*
X132580000Y-152792380D01*
X132151428Y-152125714D02*
X132151428Y-152649523D01*
X132199047Y-152744761D01*
X132294285Y-152792380D01*
X132437142Y-152792380D01*
X132532380Y-152744761D01*
X132580000Y-152697142D01*
X133389523Y-152268571D02*
X133056190Y-152268571D01*
X133056190Y-152792380D02*
X133056190Y-151792380D01*
X133532380Y-151792380D01*
X131913333Y-147617142D02*
X131865714Y-147664761D01*
X131722857Y-147712380D01*
X131627619Y-147712380D01*
X131484761Y-147664761D01*
X131389523Y-147569523D01*
X131341904Y-147474285D01*
X131294285Y-147283809D01*
X131294285Y-147140952D01*
X131341904Y-146950476D01*
X131389523Y-146855238D01*
X131484761Y-146760000D01*
X131627619Y-146712380D01*
X131722857Y-146712380D01*
X131865714Y-146760000D01*
X131913333Y-146807619D01*
X132484761Y-147140952D02*
X132389523Y-147093333D01*
X132341904Y-147045714D01*
X132294285Y-146950476D01*
X132294285Y-146902857D01*
X132341904Y-146807619D01*
X132389523Y-146760000D01*
X132484761Y-146712380D01*
X132675238Y-146712380D01*
X132770476Y-146760000D01*
X132818095Y-146807619D01*
X132865714Y-146902857D01*
X132865714Y-146950476D01*
X132818095Y-147045714D01*
X132770476Y-147093333D01*
X132675238Y-147140952D01*
X132484761Y-147140952D01*
X132389523Y-147188571D01*
X132341904Y-147236190D01*
X132294285Y-147331428D01*
X132294285Y-147521904D01*
X132341904Y-147617142D01*
X132389523Y-147664761D01*
X132484761Y-147712380D01*
X132675238Y-147712380D01*
X132770476Y-147664761D01*
X132818095Y-147617142D01*
X132865714Y-147521904D01*
X132865714Y-147331428D01*
X132818095Y-147236190D01*
X132770476Y-147188571D01*
X132675238Y-147140952D01*
%TO.C,C7*%
X130958571Y-145622380D02*
X130387142Y-145622380D01*
X130672857Y-145622380D02*
X130672857Y-144622380D01*
X130577619Y-144765238D01*
X130482380Y-144860476D01*
X130387142Y-144908095D01*
X131577619Y-144622380D02*
X131672857Y-144622380D01*
X131768095Y-144670000D01*
X131815714Y-144717619D01*
X131863333Y-144812857D01*
X131910952Y-145003333D01*
X131910952Y-145241428D01*
X131863333Y-145431904D01*
X131815714Y-145527142D01*
X131768095Y-145574761D01*
X131672857Y-145622380D01*
X131577619Y-145622380D01*
X131482380Y-145574761D01*
X131434761Y-145527142D01*
X131387142Y-145431904D01*
X131339523Y-145241428D01*
X131339523Y-145003333D01*
X131387142Y-144812857D01*
X131434761Y-144717619D01*
X131482380Y-144670000D01*
X131577619Y-144622380D01*
X132339523Y-144955714D02*
X132339523Y-145622380D01*
X132339523Y-145050952D02*
X132387142Y-145003333D01*
X132482380Y-144955714D01*
X132625238Y-144955714D01*
X132720476Y-145003333D01*
X132768095Y-145098571D01*
X132768095Y-145622380D01*
X133577619Y-145098571D02*
X133244285Y-145098571D01*
X133244285Y-145622380D02*
X133244285Y-144622380D01*
X133720476Y-144622380D01*
X131863333Y-140447142D02*
X131815714Y-140494761D01*
X131672857Y-140542380D01*
X131577619Y-140542380D01*
X131434761Y-140494761D01*
X131339523Y-140399523D01*
X131291904Y-140304285D01*
X131244285Y-140113809D01*
X131244285Y-139970952D01*
X131291904Y-139780476D01*
X131339523Y-139685238D01*
X131434761Y-139590000D01*
X131577619Y-139542380D01*
X131672857Y-139542380D01*
X131815714Y-139590000D01*
X131863333Y-139637619D01*
X132196666Y-139542380D02*
X132863333Y-139542380D01*
X132434761Y-140542380D01*
%TO.C,C6*%
X88659523Y-93362380D02*
X89278571Y-93362380D01*
X88945238Y-93743333D01*
X89088095Y-93743333D01*
X89183333Y-93790952D01*
X89230952Y-93838571D01*
X89278571Y-93933809D01*
X89278571Y-94171904D01*
X89230952Y-94267142D01*
X89183333Y-94314761D01*
X89088095Y-94362380D01*
X88802380Y-94362380D01*
X88707142Y-94314761D01*
X88659523Y-94267142D01*
X89611904Y-93362380D02*
X90230952Y-93362380D01*
X89897619Y-93743333D01*
X90040476Y-93743333D01*
X90135714Y-93790952D01*
X90183333Y-93838571D01*
X90230952Y-93933809D01*
X90230952Y-94171904D01*
X90183333Y-94267142D01*
X90135714Y-94314761D01*
X90040476Y-94362380D01*
X89754761Y-94362380D01*
X89659523Y-94314761D01*
X89611904Y-94267142D01*
X90659523Y-93695714D02*
X90659523Y-94362380D01*
X90659523Y-93790952D02*
X90707142Y-93743333D01*
X90802380Y-93695714D01*
X90945238Y-93695714D01*
X91040476Y-93743333D01*
X91088095Y-93838571D01*
X91088095Y-94362380D01*
X91897619Y-93838571D02*
X91564285Y-93838571D01*
X91564285Y-94362380D02*
X91564285Y-93362380D01*
X92040476Y-93362380D01*
X90183333Y-89187142D02*
X90135714Y-89234761D01*
X89992857Y-89282380D01*
X89897619Y-89282380D01*
X89754761Y-89234761D01*
X89659523Y-89139523D01*
X89611904Y-89044285D01*
X89564285Y-88853809D01*
X89564285Y-88710952D01*
X89611904Y-88520476D01*
X89659523Y-88425238D01*
X89754761Y-88330000D01*
X89897619Y-88282380D01*
X89992857Y-88282380D01*
X90135714Y-88330000D01*
X90183333Y-88377619D01*
X91040476Y-88282380D02*
X90850000Y-88282380D01*
X90754761Y-88330000D01*
X90707142Y-88377619D01*
X90611904Y-88520476D01*
X90564285Y-88710952D01*
X90564285Y-89091904D01*
X90611904Y-89187142D01*
X90659523Y-89234761D01*
X90754761Y-89282380D01*
X90945238Y-89282380D01*
X91040476Y-89234761D01*
X91088095Y-89187142D01*
X91135714Y-89091904D01*
X91135714Y-88853809D01*
X91088095Y-88758571D01*
X91040476Y-88710952D01*
X90945238Y-88663333D01*
X90754761Y-88663333D01*
X90659523Y-88710952D01*
X90611904Y-88758571D01*
X90564285Y-88853809D01*
%TO.C,C5*%
X89278571Y-87422380D02*
X88707142Y-87422380D01*
X88992857Y-87422380D02*
X88992857Y-86422380D01*
X88897619Y-86565238D01*
X88802380Y-86660476D01*
X88707142Y-86708095D01*
X89897619Y-86422380D02*
X89992857Y-86422380D01*
X90088095Y-86470000D01*
X90135714Y-86517619D01*
X90183333Y-86612857D01*
X90230952Y-86803333D01*
X90230952Y-87041428D01*
X90183333Y-87231904D01*
X90135714Y-87327142D01*
X90088095Y-87374761D01*
X89992857Y-87422380D01*
X89897619Y-87422380D01*
X89802380Y-87374761D01*
X89754761Y-87327142D01*
X89707142Y-87231904D01*
X89659523Y-87041428D01*
X89659523Y-86803333D01*
X89707142Y-86612857D01*
X89754761Y-86517619D01*
X89802380Y-86470000D01*
X89897619Y-86422380D01*
X90659523Y-86755714D02*
X90659523Y-87422380D01*
X90659523Y-86850952D02*
X90707142Y-86803333D01*
X90802380Y-86755714D01*
X90945238Y-86755714D01*
X91040476Y-86803333D01*
X91088095Y-86898571D01*
X91088095Y-87422380D01*
X91897619Y-86898571D02*
X91564285Y-86898571D01*
X91564285Y-87422380D02*
X91564285Y-86422380D01*
X92040476Y-86422380D01*
X90183333Y-82247142D02*
X90135714Y-82294761D01*
X89992857Y-82342380D01*
X89897619Y-82342380D01*
X89754761Y-82294761D01*
X89659523Y-82199523D01*
X89611904Y-82104285D01*
X89564285Y-81913809D01*
X89564285Y-81770952D01*
X89611904Y-81580476D01*
X89659523Y-81485238D01*
X89754761Y-81390000D01*
X89897619Y-81342380D01*
X89992857Y-81342380D01*
X90135714Y-81390000D01*
X90183333Y-81437619D01*
X91088095Y-81342380D02*
X90611904Y-81342380D01*
X90564285Y-81818571D01*
X90611904Y-81770952D01*
X90707142Y-81723333D01*
X90945238Y-81723333D01*
X91040476Y-81770952D01*
X91088095Y-81818571D01*
X91135714Y-81913809D01*
X91135714Y-82151904D01*
X91088095Y-82247142D01*
X91040476Y-82294761D01*
X90945238Y-82342380D01*
X90707142Y-82342380D01*
X90611904Y-82294761D01*
X90564285Y-82247142D01*
%TO.C,C4*%
X131148571Y-160042380D02*
X130577142Y-160042380D01*
X130862857Y-160042380D02*
X130862857Y-159042380D01*
X130767619Y-159185238D01*
X130672380Y-159280476D01*
X130577142Y-159328095D01*
X131767619Y-159042380D02*
X131862857Y-159042380D01*
X131958095Y-159090000D01*
X132005714Y-159137619D01*
X132053333Y-159232857D01*
X132100952Y-159423333D01*
X132100952Y-159661428D01*
X132053333Y-159851904D01*
X132005714Y-159947142D01*
X131958095Y-159994761D01*
X131862857Y-160042380D01*
X131767619Y-160042380D01*
X131672380Y-159994761D01*
X131624761Y-159947142D01*
X131577142Y-159851904D01*
X131529523Y-159661428D01*
X131529523Y-159423333D01*
X131577142Y-159232857D01*
X131624761Y-159137619D01*
X131672380Y-159090000D01*
X131767619Y-159042380D01*
X132529523Y-159375714D02*
X132529523Y-160042380D01*
X132529523Y-159470952D02*
X132577142Y-159423333D01*
X132672380Y-159375714D01*
X132815238Y-159375714D01*
X132910476Y-159423333D01*
X132958095Y-159518571D01*
X132958095Y-160042380D01*
X133767619Y-159518571D02*
X133434285Y-159518571D01*
X133434285Y-160042380D02*
X133434285Y-159042380D01*
X133910476Y-159042380D01*
X132053333Y-154867142D02*
X132005714Y-154914761D01*
X131862857Y-154962380D01*
X131767619Y-154962380D01*
X131624761Y-154914761D01*
X131529523Y-154819523D01*
X131481904Y-154724285D01*
X131434285Y-154533809D01*
X131434285Y-154390952D01*
X131481904Y-154200476D01*
X131529523Y-154105238D01*
X131624761Y-154010000D01*
X131767619Y-153962380D01*
X131862857Y-153962380D01*
X132005714Y-154010000D01*
X132053333Y-154057619D01*
X132910476Y-154295714D02*
X132910476Y-154962380D01*
X132672380Y-153914761D02*
X132434285Y-154629047D01*
X133053333Y-154629047D01*
%TO.C,C3*%
X88919523Y-79742380D02*
X89538571Y-79742380D01*
X89205238Y-80123333D01*
X89348095Y-80123333D01*
X89443333Y-80170952D01*
X89490952Y-80218571D01*
X89538571Y-80313809D01*
X89538571Y-80551904D01*
X89490952Y-80647142D01*
X89443333Y-80694761D01*
X89348095Y-80742380D01*
X89062380Y-80742380D01*
X88967142Y-80694761D01*
X88919523Y-80647142D01*
X90014761Y-80742380D02*
X90205238Y-80742380D01*
X90300476Y-80694761D01*
X90348095Y-80647142D01*
X90443333Y-80504285D01*
X90490952Y-80313809D01*
X90490952Y-79932857D01*
X90443333Y-79837619D01*
X90395714Y-79790000D01*
X90300476Y-79742380D01*
X90110000Y-79742380D01*
X90014761Y-79790000D01*
X89967142Y-79837619D01*
X89919523Y-79932857D01*
X89919523Y-80170952D01*
X89967142Y-80266190D01*
X90014761Y-80313809D01*
X90110000Y-80361428D01*
X90300476Y-80361428D01*
X90395714Y-80313809D01*
X90443333Y-80266190D01*
X90490952Y-80170952D01*
X90919523Y-80075714D02*
X90919523Y-80742380D01*
X90919523Y-80170952D02*
X90967142Y-80123333D01*
X91062380Y-80075714D01*
X91205238Y-80075714D01*
X91300476Y-80123333D01*
X91348095Y-80218571D01*
X91348095Y-80742380D01*
X92157619Y-80218571D02*
X91824285Y-80218571D01*
X91824285Y-80742380D02*
X91824285Y-79742380D01*
X92300476Y-79742380D01*
X90443333Y-75567142D02*
X90395714Y-75614761D01*
X90252857Y-75662380D01*
X90157619Y-75662380D01*
X90014761Y-75614761D01*
X89919523Y-75519523D01*
X89871904Y-75424285D01*
X89824285Y-75233809D01*
X89824285Y-75090952D01*
X89871904Y-74900476D01*
X89919523Y-74805238D01*
X90014761Y-74710000D01*
X90157619Y-74662380D01*
X90252857Y-74662380D01*
X90395714Y-74710000D01*
X90443333Y-74757619D01*
X90776666Y-74662380D02*
X91395714Y-74662380D01*
X91062380Y-75043333D01*
X91205238Y-75043333D01*
X91300476Y-75090952D01*
X91348095Y-75138571D01*
X91395714Y-75233809D01*
X91395714Y-75471904D01*
X91348095Y-75567142D01*
X91300476Y-75614761D01*
X91205238Y-75662380D01*
X90919523Y-75662380D01*
X90824285Y-75614761D01*
X90776666Y-75567142D01*
%TO.C,C2*%
X130848571Y-138652380D02*
X130277142Y-138652380D01*
X130562857Y-138652380D02*
X130562857Y-137652380D01*
X130467619Y-137795238D01*
X130372380Y-137890476D01*
X130277142Y-137938095D01*
X131467619Y-137652380D02*
X131562857Y-137652380D01*
X131658095Y-137700000D01*
X131705714Y-137747619D01*
X131753333Y-137842857D01*
X131800952Y-138033333D01*
X131800952Y-138271428D01*
X131753333Y-138461904D01*
X131705714Y-138557142D01*
X131658095Y-138604761D01*
X131562857Y-138652380D01*
X131467619Y-138652380D01*
X131372380Y-138604761D01*
X131324761Y-138557142D01*
X131277142Y-138461904D01*
X131229523Y-138271428D01*
X131229523Y-138033333D01*
X131277142Y-137842857D01*
X131324761Y-137747619D01*
X131372380Y-137700000D01*
X131467619Y-137652380D01*
X132229523Y-137985714D02*
X132229523Y-138652380D01*
X132229523Y-138080952D02*
X132277142Y-138033333D01*
X132372380Y-137985714D01*
X132515238Y-137985714D01*
X132610476Y-138033333D01*
X132658095Y-138128571D01*
X132658095Y-138652380D01*
X133467619Y-138128571D02*
X133134285Y-138128571D01*
X133134285Y-138652380D02*
X133134285Y-137652380D01*
X133610476Y-137652380D01*
X131753333Y-133477142D02*
X131705714Y-133524761D01*
X131562857Y-133572380D01*
X131467619Y-133572380D01*
X131324761Y-133524761D01*
X131229523Y-133429523D01*
X131181904Y-133334285D01*
X131134285Y-133143809D01*
X131134285Y-133000952D01*
X131181904Y-132810476D01*
X131229523Y-132715238D01*
X131324761Y-132620000D01*
X131467619Y-132572380D01*
X131562857Y-132572380D01*
X131705714Y-132620000D01*
X131753333Y-132667619D01*
X132134285Y-132667619D02*
X132181904Y-132620000D01*
X132277142Y-132572380D01*
X132515238Y-132572380D01*
X132610476Y-132620000D01*
X132658095Y-132667619D01*
X132705714Y-132762857D01*
X132705714Y-132858095D01*
X132658095Y-133000952D01*
X132086666Y-133572380D01*
X132705714Y-133572380D01*
%TO.C,C1*%
X118747619Y-127482857D02*
X118700000Y-127435238D01*
X118652380Y-127340000D01*
X118652380Y-127101904D01*
X118700000Y-127006666D01*
X118747619Y-126959047D01*
X118842857Y-126911428D01*
X118938095Y-126911428D01*
X119080952Y-126959047D01*
X119652380Y-127530476D01*
X119652380Y-126911428D01*
X118747619Y-126530476D02*
X118700000Y-126482857D01*
X118652380Y-126387619D01*
X118652380Y-126149523D01*
X118700000Y-126054285D01*
X118747619Y-126006666D01*
X118842857Y-125959047D01*
X118938095Y-125959047D01*
X119080952Y-126006666D01*
X119652380Y-126578095D01*
X119652380Y-125959047D01*
X118985714Y-125530476D02*
X119652380Y-125530476D01*
X119080952Y-125530476D02*
X119033333Y-125482857D01*
X118985714Y-125387619D01*
X118985714Y-125244761D01*
X119033333Y-125149523D01*
X119128571Y-125101904D01*
X119652380Y-125101904D01*
X119128571Y-124292380D02*
X119128571Y-124625714D01*
X119652380Y-124625714D02*
X118652380Y-124625714D01*
X118652380Y-124149523D01*
X114477142Y-126006666D02*
X114524761Y-126054285D01*
X114572380Y-126197142D01*
X114572380Y-126292380D01*
X114524761Y-126435238D01*
X114429523Y-126530476D01*
X114334285Y-126578095D01*
X114143809Y-126625714D01*
X114000952Y-126625714D01*
X113810476Y-126578095D01*
X113715238Y-126530476D01*
X113620000Y-126435238D01*
X113572380Y-126292380D01*
X113572380Y-126197142D01*
X113620000Y-126054285D01*
X113667619Y-126006666D01*
X114572380Y-125054285D02*
X114572380Y-125625714D01*
X114572380Y-125340000D02*
X113572380Y-125340000D01*
X113715238Y-125435238D01*
X113810476Y-125530476D01*
X113858095Y-125625714D01*
%TD*%
M02*
