%TF.GenerationSoftware,KiCad,Pcbnew,5.1.7*%
%TF.CreationDate,2020-11-08T18:28:21+01:00*%
%TF.ProjectId,AS3310-ADSR,41533333-3130-42d4-9144-53522e6b6963,rev?*%
%TF.SameCoordinates,Original*%
%TF.FileFunction,Soldermask,Top*%
%TF.FilePolarity,Negative*%
%FSLAX46Y46*%
G04 Gerber Fmt 4.6, Leading zero omitted, Abs format (unit mm)*
G04 Created by KiCad (PCBNEW 5.1.7) date 2020-11-08 18:28:21*
%MOMM*%
%LPD*%
G01*
G04 APERTURE LIST*
%ADD10O,7.400000X3.200000*%
%ADD11C,2.130000*%
%ADD12R,1.930000X1.830000*%
%ADD13R,4.000000X4.000000*%
%ADD14C,2.700000*%
%ADD15R,2.700000X2.700000*%
%ADD16C,1.600000*%
%ADD17O,1.600000X1.600000*%
%ADD18C,1.800000*%
%ADD19R,1.800000X1.800000*%
%ADD20R,1.600000X1.600000*%
%ADD21C,2.000000*%
%ADD22C,1.550000*%
%ADD23R,1.550000X1.550000*%
%ADD24O,2.720000X3.240000*%
%ADD25R,1.050000X1.500000*%
%ADD26O,1.050000X1.500000*%
%ADD27O,1.700000X1.700000*%
%ADD28R,1.700000X1.700000*%
G04 APERTURE END LIST*
D10*
%TO.C,TOP_RIGHT_MOUNT*%
X144870000Y-35670000D03*
%TD*%
%TO.C,TOP_LEFT_MOUNT*%
X88080000Y-35710000D03*
%TD*%
%TO.C,BOTTOM_LEFT_MOUNT*%
X88320000Y-162980000D03*
%TD*%
%TO.C,BOTTOM_RIGHT_MOUNT*%
X144820000Y-163060000D03*
%TD*%
D11*
%TO.C,J3*%
X105180000Y-128320000D03*
D12*
X105180000Y-116920000D03*
D11*
X105180000Y-120020000D03*
%TD*%
D13*
%TO.C,TP6*%
X123710000Y-36950000D03*
%TD*%
%TO.C,TP5*%
X117450000Y-36950000D03*
%TD*%
%TO.C,TP4*%
X110950000Y-37070000D03*
%TD*%
D14*
%TO.C,S1*%
X120510000Y-105510000D03*
X120510000Y-100710000D03*
D15*
X120510000Y-91110000D03*
D14*
X120510000Y-95910000D03*
X111110000Y-105510000D03*
X111110000Y-100710000D03*
X111110000Y-91110000D03*
X111110000Y-95910000D03*
X115810000Y-105510000D03*
X115810000Y-100710000D03*
X115810000Y-91110000D03*
X115810000Y-95910000D03*
%TD*%
D16*
%TO.C,R26*%
X139370000Y-156140000D03*
D17*
X149530000Y-156140000D03*
%TD*%
D18*
%TO.C,D3*%
X145090000Y-43350000D03*
D19*
X142550000Y-43350000D03*
%TD*%
D17*
%TO.C,U4*%
X110100000Y-136130000D03*
X102480000Y-143750000D03*
X110100000Y-138670000D03*
X102480000Y-141210000D03*
X110100000Y-141210000D03*
X102480000Y-138670000D03*
X110100000Y-143750000D03*
D20*
X102480000Y-136130000D03*
%TD*%
D17*
%TO.C,U3*%
X124090000Y-135970000D03*
X116470000Y-143590000D03*
X124090000Y-138510000D03*
X116470000Y-141050000D03*
X124090000Y-141050000D03*
X116470000Y-138510000D03*
X124090000Y-143590000D03*
D20*
X116470000Y-135970000D03*
%TD*%
D17*
%TO.C,U2*%
X94400000Y-53300000D03*
X86780000Y-71080000D03*
X94400000Y-55840000D03*
X86780000Y-68540000D03*
X94400000Y-58380000D03*
X86780000Y-66000000D03*
X94400000Y-60920000D03*
X86780000Y-63460000D03*
X94400000Y-63460000D03*
X86780000Y-60920000D03*
X94400000Y-66000000D03*
X86780000Y-58380000D03*
X94400000Y-68540000D03*
X86780000Y-55840000D03*
X94400000Y-71080000D03*
D20*
X86780000Y-53300000D03*
%TD*%
D17*
%TO.C,U1*%
X110140000Y-149880000D03*
X102520000Y-157500000D03*
X110140000Y-152420000D03*
X102520000Y-154960000D03*
X110140000Y-154960000D03*
X102520000Y-152420000D03*
X110140000Y-157500000D03*
D20*
X102520000Y-149880000D03*
%TD*%
D13*
%TO.C,TP3*%
X124330000Y-151300000D03*
%TD*%
%TO.C,TP2*%
X120010000Y-159960000D03*
%TD*%
%TO.C,TP1*%
X116480000Y-151550000D03*
%TD*%
D21*
%TO.C,SW2*%
X141060000Y-72400000D03*
X141060000Y-76900000D03*
X147560000Y-72400000D03*
X147560000Y-76900000D03*
%TD*%
D22*
%TO.C,RV6*%
X90750000Y-47230000D03*
D23*
X88250000Y-42230000D03*
D22*
X93250000Y-42230000D03*
%TD*%
%TO.C,RV5*%
X116630000Y-118450000D03*
D23*
X114130000Y-113450000D03*
D22*
X119130000Y-113450000D03*
%TD*%
D24*
%TO.C,RV4*%
X133510000Y-71130000D03*
X123910000Y-71130000D03*
D18*
X126210000Y-78630000D03*
X128710000Y-78630000D03*
D19*
X131210000Y-78630000D03*
%TD*%
D24*
%TO.C,RV3*%
X133840000Y-46030000D03*
X124240000Y-46030000D03*
D18*
X126540000Y-53530000D03*
X129040000Y-53530000D03*
D19*
X131540000Y-53530000D03*
%TD*%
D24*
%TO.C,RV2*%
X113470000Y-46250000D03*
X103870000Y-46250000D03*
D18*
X106170000Y-53750000D03*
X108670000Y-53750000D03*
D19*
X111170000Y-53750000D03*
%TD*%
D24*
%TO.C,RV1*%
X113140000Y-71690000D03*
X103540000Y-71690000D03*
D18*
X105840000Y-79190000D03*
X108340000Y-79190000D03*
D19*
X110840000Y-79190000D03*
%TD*%
D16*
%TO.C,R25*%
X139470000Y-150690000D03*
D17*
X149630000Y-150690000D03*
%TD*%
D16*
%TO.C,R24*%
X139630000Y-145350000D03*
D17*
X149790000Y-145350000D03*
%TD*%
D16*
%TO.C,R23*%
X139570000Y-140020000D03*
D17*
X149730000Y-140020000D03*
%TD*%
D16*
%TO.C,R22*%
X139620000Y-134890000D03*
D17*
X149780000Y-134890000D03*
%TD*%
D16*
%TO.C,R21*%
X139780000Y-129630000D03*
D17*
X149940000Y-129630000D03*
%TD*%
D16*
%TO.C,R20*%
X139780000Y-124490000D03*
D17*
X149940000Y-124490000D03*
%TD*%
D16*
%TO.C,R19*%
X139780000Y-119300000D03*
D17*
X149940000Y-119300000D03*
%TD*%
D16*
%TO.C,R18*%
X139780000Y-113940000D03*
D17*
X149940000Y-113940000D03*
%TD*%
D16*
%TO.C,R17*%
X139870000Y-108940000D03*
D17*
X150030000Y-108940000D03*
%TD*%
D16*
%TO.C,R16*%
X139870000Y-103660000D03*
D17*
X150030000Y-103660000D03*
%TD*%
D16*
%TO.C,R15*%
X140000000Y-98310000D03*
D17*
X150160000Y-98310000D03*
%TD*%
D16*
%TO.C,R14*%
X139960000Y-93120000D03*
D17*
X150120000Y-93120000D03*
%TD*%
D16*
%TO.C,R13*%
X103110000Y-108310000D03*
D17*
X103110000Y-98150000D03*
%TD*%
D16*
%TO.C,R12*%
X84830000Y-155750000D03*
D17*
X94990000Y-155750000D03*
%TD*%
D16*
%TO.C,R11*%
X85020000Y-150510000D03*
D17*
X95180000Y-150510000D03*
%TD*%
D16*
%TO.C,R10*%
X85020000Y-145300000D03*
D17*
X95180000Y-145300000D03*
%TD*%
D16*
%TO.C,R9*%
X85150000Y-140210000D03*
D17*
X95310000Y-140210000D03*
%TD*%
D16*
%TO.C,R8*%
X85090000Y-135110000D03*
D17*
X95250000Y-135110000D03*
%TD*%
D16*
%TO.C,R7*%
X85280000Y-129910000D03*
D17*
X95440000Y-129910000D03*
%TD*%
D16*
%TO.C,R6*%
X85400000Y-124620000D03*
D17*
X95560000Y-124620000D03*
%TD*%
D16*
%TO.C,R5*%
X85440000Y-119390000D03*
D17*
X95600000Y-119390000D03*
%TD*%
D16*
%TO.C,R4*%
X85470000Y-114240000D03*
D17*
X95630000Y-114240000D03*
%TD*%
D16*
%TO.C,R3*%
X85400000Y-109180000D03*
D17*
X95560000Y-109180000D03*
%TD*%
D16*
%TO.C,R2*%
X85480000Y-104170000D03*
D17*
X95640000Y-104170000D03*
%TD*%
D16*
%TO.C,R1*%
X85630000Y-99020000D03*
D17*
X95790000Y-99020000D03*
%TD*%
D25*
%TO.C,Q2*%
X129350000Y-110750000D03*
D26*
X131890000Y-110750000D03*
X130620000Y-110750000D03*
%TD*%
D25*
%TO.C,Q1*%
X129350000Y-102490000D03*
D26*
X131890000Y-102490000D03*
X130620000Y-102490000D03*
%TD*%
D11*
%TO.C,J4*%
X130880000Y-96610000D03*
D12*
X130880000Y-85210000D03*
D11*
X130880000Y-88310000D03*
%TD*%
D27*
%TO.C,J2*%
X145810000Y-65070000D03*
X143270000Y-65070000D03*
X145810000Y-62530000D03*
X143270000Y-62530000D03*
X145810000Y-59990000D03*
X143270000Y-59990000D03*
X145810000Y-57450000D03*
X143270000Y-57450000D03*
X145810000Y-54910000D03*
D28*
X143270000Y-54910000D03*
%TD*%
D11*
%TO.C,J1*%
X127800000Y-128480000D03*
D12*
X127800000Y-117080000D03*
D11*
X127800000Y-120180000D03*
%TD*%
D17*
%TO.C,D2*%
X129460000Y-61090000D03*
D20*
X121840000Y-61090000D03*
%TD*%
D17*
%TO.C,D1*%
X115990000Y-61020000D03*
D20*
X108370000Y-61020000D03*
%TD*%
D21*
%TO.C,C11*%
X141570000Y-84480000D03*
X146570000Y-84480000D03*
%TD*%
%TO.C,C10*%
X104330000Y-84690000D03*
X99330000Y-84690000D03*
%TD*%
%TO.C,C9*%
X134540000Y-142730000D03*
X129540000Y-142730000D03*
%TD*%
%TO.C,C8*%
X134540000Y-149800000D03*
X129540000Y-149800000D03*
%TD*%
%TO.C,C7*%
X104190000Y-91370000D03*
X99190000Y-91370000D03*
%TD*%
%TO.C,C6*%
X92810000Y-91370000D03*
X87810000Y-91370000D03*
%TD*%
%TO.C,C5*%
X92810000Y-84430000D03*
X87810000Y-84430000D03*
%TD*%
%TO.C,C4*%
X134680000Y-157050000D03*
X129680000Y-157050000D03*
%TD*%
%TO.C,C3*%
X93070000Y-77750000D03*
X88070000Y-77750000D03*
%TD*%
%TO.C,C2*%
X134380000Y-135660000D03*
X129380000Y-135660000D03*
%TD*%
%TO.C,C1*%
X116660000Y-123380000D03*
X116660000Y-128380000D03*
%TD*%
M02*
