%TF.GenerationSoftware,KiCad,Pcbnew,5.1.7*%
%TF.CreationDate,2020-11-10T17:44:51+01:00*%
%TF.ProjectId,AS3310-ADSR,41533333-3130-42d4-9144-53522e6b6963,1*%
%TF.SameCoordinates,Original*%
%TF.FileFunction,Copper,L1,Top*%
%TF.FilePolarity,Positive*%
%FSLAX46Y46*%
G04 Gerber Fmt 4.6, Leading zero omitted, Abs format (unit mm)*
G04 Created by KiCad (PCBNEW 5.1.7) date 2020-11-10 17:44:51*
%MOMM*%
%LPD*%
G01*
G04 APERTURE LIST*
%TA.AperFunction,ComponentPad*%
%ADD10C,3.320000*%
%TD*%
%TA.AperFunction,ComponentPad*%
%ADD11C,1.168000*%
%TD*%
%TA.AperFunction,ComponentPad*%
%ADD12R,1.168000X1.168000*%
%TD*%
%TA.AperFunction,ComponentPad*%
%ADD13C,1.600000*%
%TD*%
%TA.AperFunction,ComponentPad*%
%ADD14R,1.600000X1.600000*%
%TD*%
%TA.AperFunction,ComponentPad*%
%ADD15C,2.130000*%
%TD*%
%TA.AperFunction,ComponentPad*%
%ADD16R,1.930000X1.830000*%
%TD*%
%TA.AperFunction,SMDPad,CuDef*%
%ADD17R,4.000000X4.000000*%
%TD*%
%TA.AperFunction,ComponentPad*%
%ADD18C,2.700000*%
%TD*%
%TA.AperFunction,ComponentPad*%
%ADD19R,2.700000X2.700000*%
%TD*%
%TA.AperFunction,ComponentPad*%
%ADD20O,1.600000X1.600000*%
%TD*%
%TA.AperFunction,ComponentPad*%
%ADD21C,1.800000*%
%TD*%
%TA.AperFunction,ComponentPad*%
%ADD22R,1.800000X1.800000*%
%TD*%
%TA.AperFunction,ComponentPad*%
%ADD23O,2.720000X3.240000*%
%TD*%
%TA.AperFunction,ComponentPad*%
%ADD24R,1.050000X1.500000*%
%TD*%
%TA.AperFunction,ComponentPad*%
%ADD25O,1.050000X1.500000*%
%TD*%
%TA.AperFunction,ComponentPad*%
%ADD26O,1.700000X1.700000*%
%TD*%
%TA.AperFunction,ComponentPad*%
%ADD27R,1.700000X1.700000*%
%TD*%
%TA.AperFunction,ComponentPad*%
%ADD28C,2.000000*%
%TD*%
%TA.AperFunction,ViaPad*%
%ADD29C,0.800000*%
%TD*%
%TA.AperFunction,Conductor*%
%ADD30C,0.250000*%
%TD*%
G04 APERTURE END LIST*
D10*
%TO.P,SW2,2*%
%TO.N,+12V*%
X141300000Y-75190000D03*
%TO.P,SW2,1*%
%TO.N,Net-(J4-PadTN)*%
X145300000Y-75190000D03*
%TD*%
D11*
%TO.P,RV6,2*%
%TO.N,Net-(R13-Pad2)*%
X89680000Y-44490000D03*
%TO.P,RV6,3*%
X92220000Y-47030000D03*
D12*
%TO.P,RV6,1*%
%TO.N,/ENVOUT*%
X87140000Y-47030000D03*
%TD*%
D11*
%TO.P,RV5,2*%
%TO.N,Net-(R8-Pad2)*%
X117010000Y-114440000D03*
%TO.P,RV5,3*%
X119550000Y-116980000D03*
D12*
%TO.P,RV5,1*%
%TO.N,Net-(RV1-Pad2)*%
X114470000Y-116980000D03*
%TD*%
D13*
%TO.P,C10,2*%
%TO.N,GND*%
X106070000Y-86350000D03*
D14*
%TO.P,C10,1*%
%TO.N,+12V*%
X103570000Y-86350000D03*
%TD*%
D13*
%TO.P,C9,2*%
%TO.N,-12V*%
X99620000Y-86350000D03*
D14*
%TO.P,C9,1*%
%TO.N,GND*%
X97120000Y-86350000D03*
%TD*%
D15*
%TO.P,J3,T*%
%TO.N,Net-(J3-PadT)*%
X105180000Y-128320000D03*
D16*
%TO.P,J3,S*%
%TO.N,GND*%
X105180000Y-116920000D03*
D15*
%TO.P,J3,TN*%
%TO.N,N/C*%
X105180000Y-120020000D03*
%TD*%
D17*
%TO.P,TP6,1*%
%TO.N,+12V*%
X123710000Y-36950000D03*
%TD*%
%TO.P,TP5,1*%
%TO.N,GND*%
X117450000Y-36950000D03*
%TD*%
%TO.P,TP4,1*%
%TO.N,-12V*%
X110950000Y-37070000D03*
%TD*%
D18*
%TO.P,S1,10*%
%TO.N,N/C*%
X120510000Y-105510000D03*
%TO.P,S1,7*%
%TO.N,/OUT4*%
X120510000Y-100710000D03*
D19*
%TO.P,S1,1*%
%TO.N,/OUT3*%
X120510000Y-91110000D03*
D18*
%TO.P,S1,4*%
%TO.N,/OUT2*%
X120510000Y-95910000D03*
%TO.P,S1,12*%
%TO.N,/OUT4*%
X111110000Y-105510000D03*
%TO.P,S1,9*%
%TO.N,Net-(S1-Pad11)*%
X111110000Y-100710000D03*
%TO.P,S1,3*%
%TO.N,Net-(S1-Pad3)*%
X111110000Y-91110000D03*
%TO.P,S1,6*%
%TO.N,/OUT1*%
X111110000Y-95910000D03*
%TO.P,S1,11*%
%TO.N,Net-(S1-Pad11)*%
X115810000Y-105510000D03*
%TO.P,S1,8*%
%TO.N,/IN2*%
X115810000Y-100710000D03*
%TO.P,S1,2*%
%TO.N,/IN1*%
X115810000Y-91110000D03*
%TO.P,S1,5*%
%TO.N,Net-(S1-Pad3)*%
X115810000Y-95910000D03*
%TD*%
D13*
%TO.P,R26,1*%
%TO.N,Net-(D3-Pad2)*%
X139370000Y-156140000D03*
D20*
%TO.P,R26,2*%
%TO.N,+12V*%
X149530000Y-156140000D03*
%TD*%
D21*
%TO.P,D3,2*%
%TO.N,Net-(D3-Pad2)*%
X145090000Y-43350000D03*
D22*
%TO.P,D3,1*%
%TO.N,GND*%
X142550000Y-43350000D03*
%TD*%
D20*
%TO.P,U4,8*%
%TO.N,N/C*%
X110100000Y-136130000D03*
%TO.P,U4,4*%
%TO.N,-12V*%
X102480000Y-143750000D03*
%TO.P,U4,7*%
%TO.N,+12V*%
X110100000Y-138670000D03*
%TO.P,U4,3*%
%TO.N,/ENVOUT*%
X102480000Y-141210000D03*
%TO.P,U4,6*%
%TO.N,Net-(R18-Pad1)*%
X110100000Y-141210000D03*
%TO.P,U4,2*%
%TO.N,Net-(R16-Pad2)*%
X102480000Y-138670000D03*
%TO.P,U4,5*%
%TO.N,N/C*%
X110100000Y-143750000D03*
D14*
%TO.P,U4,1*%
X102480000Y-136130000D03*
%TD*%
D20*
%TO.P,U3,8*%
%TO.N,N/C*%
X124090000Y-135970000D03*
%TO.P,U3,4*%
X116470000Y-143590000D03*
%TO.P,U3,7*%
X124090000Y-138510000D03*
%TO.P,U3,3*%
%TO.N,/OUT2*%
X116470000Y-141050000D03*
%TO.P,U3,6*%
%TO.N,N/C*%
X124090000Y-141050000D03*
%TO.P,U3,2*%
%TO.N,Net-(C5-Pad1)*%
X116470000Y-138510000D03*
%TO.P,U3,5*%
%TO.N,N/C*%
X124090000Y-143590000D03*
D14*
%TO.P,U3,1*%
%TO.N,/GATE*%
X116470000Y-135970000D03*
%TD*%
D20*
%TO.P,U2,16*%
%TO.N,N/C*%
X94400000Y-53300000D03*
%TO.P,U2,8*%
%TO.N,Net-(C1-Pad1)*%
X86780000Y-71080000D03*
%TO.P,U2,15*%
%TO.N,/ATTACK*%
X94400000Y-55840000D03*
%TO.P,U2,7*%
%TO.N,GND*%
X86780000Y-68540000D03*
%TO.P,U2,14*%
X94400000Y-58380000D03*
%TO.P,U2,6*%
%TO.N,Net-(R12-Pad1)*%
X86780000Y-66000000D03*
%TO.P,U2,13*%
%TO.N,/RELEASE*%
X94400000Y-60920000D03*
%TO.P,U2,5*%
%TO.N,/TRIG*%
X86780000Y-63460000D03*
%TO.P,U2,12*%
%TO.N,/DECAY*%
X94400000Y-63460000D03*
%TO.P,U2,4*%
%TO.N,/GATE*%
X86780000Y-60920000D03*
%TO.P,U2,11*%
%TO.N,+12V*%
X94400000Y-66000000D03*
%TO.P,U2,3*%
%TO.N,N/C*%
X86780000Y-58380000D03*
%TO.P,U2,10*%
%TO.N,/IIN*%
X94400000Y-68540000D03*
%TO.P,U2,2*%
%TO.N,/ENVOUT*%
X86780000Y-55840000D03*
%TO.P,U2,9*%
%TO.N,/SUSTAIN*%
X94400000Y-71080000D03*
D14*
%TO.P,U2,1*%
%TO.N,Net-(C3-Pad1)*%
X86780000Y-53300000D03*
%TD*%
D20*
%TO.P,U1,8*%
%TO.N,+12V*%
X110140000Y-149880000D03*
%TO.P,U1,4*%
%TO.N,-12V*%
X102520000Y-157500000D03*
%TO.P,U1,7*%
%TO.N,N/C*%
X110140000Y-152420000D03*
%TO.P,U1,3*%
%TO.N,Net-(R10-Pad2)*%
X102520000Y-154960000D03*
%TO.P,U1,6*%
%TO.N,N/C*%
X110140000Y-154960000D03*
%TO.P,U1,2*%
%TO.N,/ENVOUT*%
X102520000Y-152420000D03*
%TO.P,U1,5*%
%TO.N,N/C*%
X110140000Y-157500000D03*
D14*
%TO.P,U1,1*%
%TO.N,/OUT4*%
X102520000Y-149880000D03*
%TD*%
D17*
%TO.P,TP3,1*%
%TO.N,/IN1*%
X124330000Y-151300000D03*
%TD*%
%TO.P,TP2,1*%
%TO.N,Net-(J3-PadT)*%
X120010000Y-159960000D03*
%TD*%
%TO.P,TP1,1*%
%TO.N,Net-(C4-Pad1)*%
X116480000Y-151550000D03*
%TD*%
D23*
%TO.P,RV4,*%
%TO.N,*%
X133510000Y-71130000D03*
X123910000Y-71130000D03*
D21*
%TO.P,RV4,3*%
%TO.N,GND*%
X126210000Y-78630000D03*
%TO.P,RV4,2*%
%TO.N,Net-(R3-Pad2)*%
X128710000Y-78630000D03*
D22*
%TO.P,RV4,1*%
%TO.N,-12V*%
X131210000Y-78630000D03*
%TD*%
D23*
%TO.P,RV3,*%
%TO.N,*%
X133840000Y-46030000D03*
X124240000Y-46030000D03*
D21*
%TO.P,RV3,3*%
%TO.N,GND*%
X126540000Y-53530000D03*
%TO.P,RV3,2*%
%TO.N,Net-(R2-Pad2)*%
X129040000Y-53530000D03*
D22*
%TO.P,RV3,1*%
%TO.N,-12V*%
X131540000Y-53530000D03*
%TD*%
D23*
%TO.P,RV2,*%
%TO.N,*%
X113470000Y-46250000D03*
X103870000Y-46250000D03*
D21*
%TO.P,RV2,3*%
%TO.N,GND*%
X106170000Y-53750000D03*
%TO.P,RV2,2*%
%TO.N,Net-(R1-Pad2)*%
X108670000Y-53750000D03*
D22*
%TO.P,RV2,1*%
%TO.N,-12V*%
X111170000Y-53750000D03*
%TD*%
D23*
%TO.P,RV1,*%
%TO.N,*%
X113140000Y-71690000D03*
X103540000Y-71690000D03*
D21*
%TO.P,RV1,3*%
%TO.N,GND*%
X105840000Y-79190000D03*
%TO.P,RV1,2*%
%TO.N,Net-(RV1-Pad2)*%
X108340000Y-79190000D03*
D22*
%TO.P,RV1,1*%
%TO.N,+12V*%
X110840000Y-79190000D03*
%TD*%
D13*
%TO.P,R25,1*%
%TO.N,GND*%
X139470000Y-150690000D03*
D20*
%TO.P,R25,2*%
%TO.N,Net-(J4-PadTN)*%
X149630000Y-150690000D03*
%TD*%
D13*
%TO.P,R24,1*%
%TO.N,+12V*%
X139630000Y-145350000D03*
D20*
%TO.P,R24,2*%
%TO.N,/OUT3*%
X149790000Y-145350000D03*
%TD*%
D13*
%TO.P,R23,1*%
%TO.N,/OUT2*%
X139570000Y-140020000D03*
D20*
%TO.P,R23,2*%
%TO.N,GND*%
X149730000Y-140020000D03*
%TD*%
D13*
%TO.P,R22,1*%
%TO.N,Net-(J3-PadT)*%
X139620000Y-134890000D03*
D20*
%TO.P,R22,2*%
%TO.N,Net-(R18-Pad1)*%
X149780000Y-134890000D03*
%TD*%
D13*
%TO.P,R21,1*%
%TO.N,Net-(C6-Pad2)*%
X139780000Y-129630000D03*
D20*
%TO.P,R21,2*%
%TO.N,GND*%
X149940000Y-129630000D03*
%TD*%
D13*
%TO.P,R20,1*%
%TO.N,Net-(Q1-Pad2)*%
X139780000Y-124490000D03*
D20*
%TO.P,R20,2*%
%TO.N,-12V*%
X149940000Y-124490000D03*
%TD*%
D13*
%TO.P,R19,1*%
%TO.N,Net-(C7-Pad2)*%
X139780000Y-119300000D03*
D20*
%TO.P,R19,2*%
%TO.N,Net-(Q1-Pad2)*%
X149940000Y-119300000D03*
%TD*%
D13*
%TO.P,R18,1*%
%TO.N,Net-(R18-Pad1)*%
X139780000Y-113940000D03*
D20*
%TO.P,R18,2*%
%TO.N,Net-(R16-Pad2)*%
X149940000Y-113940000D03*
%TD*%
D13*
%TO.P,R17,1*%
%TO.N,/OUT2*%
X139870000Y-108940000D03*
D20*
%TO.P,R17,2*%
%TO.N,/GATE*%
X150030000Y-108940000D03*
%TD*%
D13*
%TO.P,R16,1*%
%TO.N,GND*%
X139870000Y-103660000D03*
D20*
%TO.P,R16,2*%
%TO.N,Net-(R16-Pad2)*%
X150030000Y-103660000D03*
%TD*%
D13*
%TO.P,R15,1*%
%TO.N,Net-(C5-Pad1)*%
X140000000Y-98310000D03*
D20*
%TO.P,R15,2*%
%TO.N,GND*%
X150160000Y-98310000D03*
%TD*%
D13*
%TO.P,R14,1*%
%TO.N,+12V*%
X139960000Y-93120000D03*
D20*
%TO.P,R14,2*%
%TO.N,Net-(C5-Pad1)*%
X150120000Y-93120000D03*
%TD*%
D13*
%TO.P,R13,1*%
%TO.N,/IIN*%
X103110000Y-108310000D03*
D20*
%TO.P,R13,2*%
%TO.N,Net-(R13-Pad2)*%
X103110000Y-98150000D03*
%TD*%
D13*
%TO.P,R12,1*%
%TO.N,Net-(R12-Pad1)*%
X84830000Y-155750000D03*
D20*
%TO.P,R12,2*%
%TO.N,-12V*%
X94990000Y-155750000D03*
%TD*%
D13*
%TO.P,R11,1*%
%TO.N,/SUSTAIN*%
X85020000Y-150510000D03*
D20*
%TO.P,R11,2*%
%TO.N,GND*%
X95180000Y-150510000D03*
%TD*%
D13*
%TO.P,R10,1*%
%TO.N,/OUT4*%
X85020000Y-145300000D03*
D20*
%TO.P,R10,2*%
%TO.N,Net-(R10-Pad2)*%
X95180000Y-145300000D03*
%TD*%
D13*
%TO.P,R9,1*%
%TO.N,Net-(R10-Pad2)*%
X85150000Y-140210000D03*
D20*
%TO.P,R9,2*%
%TO.N,/SUSTAIN*%
X95310000Y-140210000D03*
%TD*%
D13*
%TO.P,R8,1*%
%TO.N,/SUSTAIN*%
X85090000Y-135110000D03*
D20*
%TO.P,R8,2*%
%TO.N,Net-(R8-Pad2)*%
X95250000Y-135110000D03*
%TD*%
D13*
%TO.P,R7,1*%
%TO.N,GND*%
X85280000Y-129910000D03*
D20*
%TO.P,R7,2*%
%TO.N,/RELEASE*%
X95440000Y-129910000D03*
%TD*%
D13*
%TO.P,R6,1*%
%TO.N,GND*%
X85400000Y-124620000D03*
D20*
%TO.P,R6,2*%
%TO.N,/DECAY*%
X95560000Y-124620000D03*
%TD*%
D13*
%TO.P,R5,1*%
%TO.N,GND*%
X85440000Y-119390000D03*
D20*
%TO.P,R5,2*%
%TO.N,/ATTACK*%
X95600000Y-119390000D03*
%TD*%
D13*
%TO.P,R4,1*%
%TO.N,Net-(R10-Pad2)*%
X85470000Y-114240000D03*
D20*
%TO.P,R4,2*%
%TO.N,+12V*%
X95630000Y-114240000D03*
%TD*%
D13*
%TO.P,R3,1*%
%TO.N,/RELEASE*%
X85400000Y-109180000D03*
D20*
%TO.P,R3,2*%
%TO.N,Net-(R3-Pad2)*%
X95560000Y-109180000D03*
%TD*%
D13*
%TO.P,R2,1*%
%TO.N,/DECAY*%
X85480000Y-104170000D03*
D20*
%TO.P,R2,2*%
%TO.N,Net-(R2-Pad2)*%
X95640000Y-104170000D03*
%TD*%
D13*
%TO.P,R1,1*%
%TO.N,/ATTACK*%
X85630000Y-99020000D03*
D20*
%TO.P,R1,2*%
%TO.N,Net-(R1-Pad2)*%
X95790000Y-99020000D03*
%TD*%
D24*
%TO.P,Q2,1*%
%TO.N,+12V*%
X129450000Y-111290000D03*
D25*
%TO.P,Q2,3*%
%TO.N,Net-(C7-Pad2)*%
X131990000Y-111290000D03*
%TO.P,Q2,2*%
%TO.N,/OUT3*%
X130720000Y-111290000D03*
%TD*%
D24*
%TO.P,Q1,1*%
%TO.N,GND*%
X129360000Y-103310000D03*
D25*
%TO.P,Q1,3*%
%TO.N,/RELEASE*%
X131900000Y-103310000D03*
%TO.P,Q1,2*%
%TO.N,Net-(Q1-Pad2)*%
X130630000Y-103310000D03*
%TD*%
D15*
%TO.P,J4,T*%
%TO.N,/IN1*%
X130880000Y-96610000D03*
D16*
%TO.P,J4,S*%
%TO.N,GND*%
X130880000Y-85210000D03*
D15*
%TO.P,J4,TN*%
%TO.N,Net-(J4-PadTN)*%
X130880000Y-88310000D03*
%TD*%
D26*
%TO.P,J2,10*%
%TO.N,-12V*%
X145680000Y-63170000D03*
%TO.P,J2,9*%
X143140000Y-63170000D03*
%TO.P,J2,8*%
%TO.N,GND*%
X145680000Y-60630000D03*
%TO.P,J2,7*%
X143140000Y-60630000D03*
%TO.P,J2,6*%
X145680000Y-58090000D03*
%TO.P,J2,5*%
X143140000Y-58090000D03*
%TO.P,J2,4*%
X145680000Y-55550000D03*
%TO.P,J2,3*%
X143140000Y-55550000D03*
%TO.P,J2,2*%
%TO.N,+12V*%
X145680000Y-53010000D03*
D27*
%TO.P,J2,1*%
X143140000Y-53010000D03*
%TD*%
D15*
%TO.P,J1,T*%
%TO.N,Net-(C4-Pad1)*%
X127800000Y-128480000D03*
D16*
%TO.P,J1,S*%
%TO.N,GND*%
X127800000Y-117080000D03*
D15*
%TO.P,J1,TN*%
%TO.N,N/C*%
X127800000Y-120180000D03*
%TD*%
D20*
%TO.P,D2,2*%
%TO.N,Net-(C6-Pad2)*%
X129460000Y-61090000D03*
D14*
%TO.P,D2,1*%
%TO.N,/OUT2*%
X121840000Y-61090000D03*
%TD*%
D20*
%TO.P,D1,2*%
%TO.N,GND*%
X115990000Y-61020000D03*
D14*
%TO.P,D1,1*%
%TO.N,/OUT2*%
X108370000Y-61020000D03*
%TD*%
D28*
%TO.P,C11,2*%
%TO.N,+12V*%
X141570000Y-84480000D03*
%TO.P,C11,1*%
%TO.N,GND*%
X146570000Y-84480000D03*
%TD*%
%TO.P,C8,2*%
%TO.N,GND*%
X134540000Y-149800000D03*
%TO.P,C8,1*%
%TO.N,-12V*%
X129540000Y-149800000D03*
%TD*%
%TO.P,C7,2*%
%TO.N,Net-(C7-Pad2)*%
X134490000Y-142630000D03*
%TO.P,C7,1*%
%TO.N,/OUT2*%
X129490000Y-142630000D03*
%TD*%
%TO.P,C6,2*%
%TO.N,Net-(C6-Pad2)*%
X92810000Y-91370000D03*
%TO.P,C6,1*%
%TO.N,/OUT1*%
X87810000Y-91370000D03*
%TD*%
%TO.P,C5,2*%
%TO.N,/IN2*%
X92810000Y-84430000D03*
%TO.P,C5,1*%
%TO.N,Net-(C5-Pad1)*%
X87810000Y-84430000D03*
%TD*%
%TO.P,C4,2*%
%TO.N,/TRIG*%
X134680000Y-157050000D03*
%TO.P,C4,1*%
%TO.N,Net-(C4-Pad1)*%
X129680000Y-157050000D03*
%TD*%
%TO.P,C3,2*%
%TO.N,GND*%
X93070000Y-77750000D03*
%TO.P,C3,1*%
%TO.N,Net-(C3-Pad1)*%
X88070000Y-77750000D03*
%TD*%
%TO.P,C2,2*%
%TO.N,/GATE*%
X134380000Y-135660000D03*
%TO.P,C2,1*%
%TO.N,/TRIG*%
X129380000Y-135660000D03*
%TD*%
%TO.P,C1,2*%
%TO.N,GND*%
X116660000Y-123380000D03*
%TO.P,C1,1*%
%TO.N,Net-(C1-Pad1)*%
X116660000Y-128380000D03*
%TD*%
D29*
%TO.N,Net-(C6-Pad2)*%
X96338500Y-90154200D03*
%TO.N,-12V*%
X130820000Y-141498600D03*
%TO.N,+12V*%
X107817100Y-76932900D03*
%TO.N,Net-(R13-Pad2)*%
X98494600Y-93234700D03*
%TO.N,Net-(RV1-Pad2)*%
X106328200Y-100103100D03*
%TO.N,/IN2*%
X96728100Y-88348100D03*
%TO.N,/OUT1*%
X97073500Y-92667100D03*
%TO.N,/OUT3*%
X142104400Y-127933700D03*
%TD*%
D30*
%TO.N,GND*%
X106070000Y-86350000D02*
X106070000Y-79420000D01*
X106070000Y-79420000D02*
X105840000Y-79190000D01*
X145680000Y-58090000D02*
X144315300Y-58090000D01*
X145680000Y-58090000D02*
X145680000Y-60630000D01*
X143140000Y-58090000D02*
X144315300Y-58090000D01*
X149730000Y-140020000D02*
X149730000Y-141145300D01*
X149730000Y-141145300D02*
X149014700Y-141145300D01*
X149014700Y-141145300D02*
X139470000Y-150690000D01*
X145680000Y-60630000D02*
X144315300Y-60630000D01*
X143140000Y-60630000D02*
X144315300Y-60630000D01*
X116660000Y-123380000D02*
X111073200Y-123380000D01*
X111073200Y-123380000D02*
X105180000Y-117486800D01*
X85400000Y-129910000D02*
X86646700Y-129910000D01*
X86646700Y-129910000D02*
X96443000Y-139706300D01*
X96443000Y-139706300D02*
X96443000Y-148121700D01*
X96443000Y-148121700D02*
X95180000Y-149384700D01*
X85280000Y-129910000D02*
X85400000Y-129910000D01*
X85400000Y-129910000D02*
X85400000Y-124620000D01*
X95180000Y-150510000D02*
X95180000Y-149384700D01*
X105180000Y-117486800D02*
X87343200Y-117486800D01*
X87343200Y-117486800D02*
X85440000Y-119390000D01*
X105180000Y-116920000D02*
X105180000Y-117486800D01*
X119406800Y-53530000D02*
X119406800Y-41232100D01*
X119406800Y-41232100D02*
X117450000Y-39275300D01*
X115990000Y-59894700D02*
X115990000Y-56946800D01*
X115990000Y-56946800D02*
X119406800Y-53530000D01*
X119406800Y-53530000D02*
X126540000Y-53530000D01*
X117450000Y-36950000D02*
X117450000Y-39275300D01*
X85400000Y-124620000D02*
X85440000Y-124580000D01*
X85440000Y-124580000D02*
X85440000Y-119390000D01*
X150160000Y-98310000D02*
X150160000Y-97184700D01*
X150160000Y-97184700D02*
X146570000Y-93594700D01*
X146570000Y-93594700D02*
X146570000Y-84480000D01*
X127800000Y-117080000D02*
X127800000Y-104019700D01*
X127800000Y-104019700D02*
X128509700Y-103310000D01*
X115990000Y-61020000D02*
X115990000Y-59894700D01*
X149940000Y-129630000D02*
X149940000Y-128504700D01*
X139870000Y-103660000D02*
X145208200Y-108998200D01*
X145208200Y-108998200D02*
X145208200Y-123772900D01*
X145208200Y-123772900D02*
X149940000Y-128504700D01*
X145312600Y-54374700D02*
X144504700Y-53566800D01*
X144504700Y-53566800D02*
X144504700Y-46530000D01*
X144504700Y-46530000D02*
X142550000Y-44575300D01*
X145680000Y-54374700D02*
X145312600Y-54374700D01*
X145312600Y-54374700D02*
X144315300Y-55372000D01*
X144315300Y-55372000D02*
X144315300Y-55550000D01*
X143140000Y-55550000D02*
X144315300Y-55550000D01*
X129360000Y-103310000D02*
X128509700Y-103310000D01*
X145680000Y-55550000D02*
X145680000Y-54374700D01*
X145680000Y-58090000D02*
X145680000Y-55550000D01*
X142550000Y-43350000D02*
X142550000Y-44575300D01*
%TO.N,/TRIG*%
X129380000Y-135660000D02*
X132040000Y-138320000D01*
X132040000Y-138320000D02*
X132040000Y-154410000D01*
X132040000Y-154410000D02*
X134680000Y-157050000D01*
%TO.N,Net-(C3-Pad1)*%
X86780000Y-53300000D02*
X86780000Y-54425300D01*
X88070000Y-77750000D02*
X88070000Y-55434000D01*
X88070000Y-55434000D02*
X87061300Y-54425300D01*
X87061300Y-54425300D02*
X86780000Y-54425300D01*
%TO.N,Net-(C4-Pad1)*%
X127012200Y-153631300D02*
X127012200Y-154382200D01*
X127012200Y-154382200D02*
X129680000Y-157050000D01*
X127800000Y-128480000D02*
X127012200Y-129267800D01*
X127012200Y-129267800D02*
X127012200Y-153631300D01*
X127012200Y-153631300D02*
X120886600Y-153631300D01*
X120886600Y-153631300D02*
X118805300Y-151550000D01*
X116480000Y-151550000D02*
X118805300Y-151550000D01*
%TO.N,Net-(C5-Pad1)*%
X116470000Y-138510000D02*
X116470000Y-137384700D01*
X116470000Y-137384700D02*
X117136300Y-137384700D01*
X117136300Y-137384700D02*
X117595300Y-136925700D01*
X117595300Y-136925700D02*
X117595300Y-136650200D01*
X117595300Y-136650200D02*
X136205700Y-118039800D01*
X136205700Y-118039800D02*
X136205700Y-102104300D01*
X136205700Y-102104300D02*
X140000000Y-98310000D01*
%TO.N,Net-(C6-Pad2)*%
X92810000Y-91370000D02*
X95122700Y-91370000D01*
X95122700Y-91370000D02*
X96338500Y-90154200D01*
%TO.N,Net-(C7-Pad2)*%
X134490000Y-142630000D02*
X136751100Y-140368900D01*
X136751100Y-140368900D02*
X136751100Y-122328900D01*
X136751100Y-122328900D02*
X139780000Y-119300000D01*
%TO.N,-12V*%
X110950000Y-37070000D02*
X110950000Y-39395300D01*
X111170000Y-53750000D02*
X111170000Y-39615300D01*
X111170000Y-39615300D02*
X110950000Y-39395300D01*
X131210000Y-78630000D02*
X131210000Y-79855300D01*
X130820000Y-141498600D02*
X128047400Y-138726000D01*
X128047400Y-138726000D02*
X128047400Y-130395700D01*
X128047400Y-130395700D02*
X137354800Y-121088300D01*
X137354800Y-121088300D02*
X137354800Y-102637600D01*
X137354800Y-102637600D02*
X141165600Y-98826800D01*
X141165600Y-98826800D02*
X141165600Y-89810900D01*
X141165600Y-89810900D02*
X131210000Y-79855300D01*
X129540000Y-149800000D02*
X130820000Y-148520000D01*
X130820000Y-148520000D02*
X130820000Y-141498600D01*
X131210000Y-78630000D02*
X131210000Y-77404700D01*
X141964700Y-63170000D02*
X141964700Y-66650000D01*
X141964700Y-66650000D02*
X131210000Y-77404700D01*
X142077300Y-63170000D02*
X141964700Y-63170000D01*
X143140000Y-63170000D02*
X142077300Y-63170000D01*
X143140000Y-63170000D02*
X144504700Y-63170000D01*
X145680000Y-63170000D02*
X144504700Y-63170000D01*
X141964700Y-63170000D02*
X141964700Y-62729400D01*
X141964700Y-62729400D02*
X132765300Y-53530000D01*
X131540000Y-53530000D02*
X132765300Y-53530000D01*
%TO.N,+12V*%
X139960000Y-93120000D02*
X134069800Y-99010200D01*
X134069800Y-99010200D02*
X134069800Y-103269100D01*
X134069800Y-103269100D02*
X129450000Y-107888900D01*
X129450000Y-107888900D02*
X129450000Y-111290000D01*
X95630000Y-114240000D02*
X95630000Y-113114700D01*
X103570000Y-86350000D02*
X103570000Y-87475300D01*
X103570000Y-87475300D02*
X101824200Y-89221100D01*
X101824200Y-89221100D02*
X101824200Y-100178800D01*
X101824200Y-100178800D02*
X94424400Y-107578600D01*
X94424400Y-107578600D02*
X94424400Y-111909100D01*
X94424400Y-111909100D02*
X95630000Y-113114700D01*
X109614700Y-79190000D02*
X109614700Y-78730500D01*
X109614700Y-78730500D02*
X107817100Y-76932900D01*
X141570000Y-84480000D02*
X141300000Y-84210000D01*
X141300000Y-84210000D02*
X141300000Y-75190000D01*
X143140000Y-53010000D02*
X143140000Y-51834700D01*
X143140000Y-51834700D02*
X128255300Y-36950000D01*
X128255300Y-36950000D02*
X123710000Y-36950000D01*
X110840000Y-79190000D02*
X109614700Y-79190000D01*
X110100000Y-138670000D02*
X110100000Y-139795300D01*
X110140000Y-149880000D02*
X110140000Y-148754700D01*
X110140000Y-148754700D02*
X111225300Y-147669400D01*
X111225300Y-147669400D02*
X111225300Y-140639200D01*
X111225300Y-140639200D02*
X110381400Y-139795300D01*
X110381400Y-139795300D02*
X110100000Y-139795300D01*
%TO.N,Net-(J3-PadT)*%
X120010000Y-159514900D02*
X120010000Y-157634700D01*
X120010000Y-159960000D02*
X120010000Y-159514900D01*
X139620000Y-134890000D02*
X137389700Y-137120300D01*
X137389700Y-137120300D02*
X137389700Y-156249500D01*
X137389700Y-156249500D02*
X134124300Y-159514900D01*
X134124300Y-159514900D02*
X120010000Y-159514900D01*
X120010000Y-157634700D02*
X118048000Y-157634700D01*
X118048000Y-157634700D02*
X113415800Y-153002500D01*
X113415800Y-153002500D02*
X113415800Y-136555800D01*
X113415800Y-136555800D02*
X105180000Y-128320000D01*
%TO.N,Net-(J4-PadTN)*%
X149630000Y-150690000D02*
X149630000Y-149564700D01*
X145300000Y-75190000D02*
X151377800Y-81267800D01*
X151377800Y-81267800D02*
X151377800Y-147816900D01*
X151377800Y-147816900D02*
X149630000Y-149564700D01*
%TO.N,/RELEASE*%
X87701100Y-108954700D02*
X87701100Y-93695600D01*
X87701100Y-93695600D02*
X86468400Y-92462900D01*
X86468400Y-92462900D02*
X86468400Y-88304000D01*
X86468400Y-88304000D02*
X95525300Y-79247100D01*
X95525300Y-79247100D02*
X95525300Y-62889200D01*
X95525300Y-62889200D02*
X94681400Y-62045300D01*
X94681400Y-62045300D02*
X94400000Y-62045300D01*
X85400000Y-109180000D02*
X87475800Y-109180000D01*
X87475800Y-109180000D02*
X87701100Y-108954700D01*
X131900000Y-102234700D02*
X132323000Y-101811700D01*
X132323000Y-101811700D02*
X132323000Y-96048000D01*
X132323000Y-96048000D02*
X131465200Y-95190200D01*
X131465200Y-95190200D02*
X124769200Y-95190200D01*
X124769200Y-95190200D02*
X121211000Y-98748400D01*
X121211000Y-98748400D02*
X115359300Y-98748400D01*
X115359300Y-98748400D02*
X113460100Y-100647600D01*
X113460100Y-100647600D02*
X113460100Y-100790600D01*
X113460100Y-100790600D02*
X98837500Y-115413200D01*
X98837500Y-115413200D02*
X94159600Y-115413200D01*
X94159600Y-115413200D02*
X87701100Y-108954700D01*
X94400000Y-60920000D02*
X94400000Y-62045300D01*
X131900000Y-103310000D02*
X131900000Y-102234700D01*
%TO.N,/ATTACK*%
X94400000Y-55840000D02*
X94400000Y-56965300D01*
X85630000Y-99020000D02*
X85086300Y-98476300D01*
X85086300Y-98476300D02*
X85086300Y-83011700D01*
X85086300Y-83011700D02*
X89395400Y-78702600D01*
X89395400Y-78702600D02*
X89395400Y-61688600D01*
X89395400Y-61688600D02*
X94118700Y-56965300D01*
X94118700Y-56965300D02*
X94400000Y-56965300D01*
%TO.N,Net-(R1-Pad2)*%
X95790000Y-99020000D02*
X95790000Y-97894700D01*
X95790000Y-97894700D02*
X100787400Y-92897300D01*
X100787400Y-92897300D02*
X100787400Y-61632600D01*
X100787400Y-61632600D02*
X108670000Y-53750000D01*
%TO.N,/DECAY*%
X85480000Y-104170000D02*
X86800300Y-102849700D01*
X86800300Y-102849700D02*
X86800300Y-95033100D01*
X86800300Y-95033100D02*
X85536700Y-93769500D01*
X85536700Y-93769500D02*
X85536700Y-83198200D01*
X85536700Y-83198200D02*
X90318600Y-78416300D01*
X90318600Y-78416300D02*
X90318600Y-68473900D01*
X90318600Y-68473900D02*
X94207200Y-64585300D01*
X94207200Y-64585300D02*
X94400000Y-64585300D01*
X94400000Y-63460000D02*
X94400000Y-64585300D01*
%TO.N,Net-(R2-Pad2)*%
X129040000Y-53530000D02*
X124198600Y-58371400D01*
X124198600Y-58371400D02*
X122495200Y-58371400D01*
X122495200Y-58371400D02*
X101277300Y-79589300D01*
X101277300Y-79589300D02*
X101277300Y-97407400D01*
X101277300Y-97407400D02*
X95640000Y-103044700D01*
X95640000Y-104170000D02*
X95640000Y-103044700D01*
%TO.N,Net-(R3-Pad2)*%
X96685300Y-109180000D02*
X98289400Y-109180000D01*
X98289400Y-109180000D02*
X109621700Y-97847700D01*
X109621700Y-97847700D02*
X121003000Y-97847700D01*
X121003000Y-97847700D02*
X128710000Y-90140700D01*
X128710000Y-90140700D02*
X128710000Y-78630000D01*
X95560000Y-109180000D02*
X96685300Y-109180000D01*
%TO.N,Net-(R10-Pad2)*%
X95180000Y-145300000D02*
X95180000Y-146425300D01*
X95180000Y-146425300D02*
X94013500Y-147591800D01*
X94013500Y-147591800D02*
X94013500Y-150976900D01*
X94013500Y-150976900D02*
X97996600Y-154960000D01*
X97996600Y-154960000D02*
X102520000Y-154960000D01*
%TO.N,Net-(R8-Pad2)*%
X95250000Y-135110000D02*
X96375300Y-135110000D01*
X96375300Y-135110000D02*
X96375300Y-134406700D01*
X96375300Y-134406700D02*
X105364700Y-125417300D01*
X105364700Y-125417300D02*
X116502300Y-125417300D01*
X116502300Y-125417300D02*
X119550000Y-122369600D01*
X119550000Y-122369600D02*
X119550000Y-116980000D01*
%TO.N,/SUSTAIN*%
X85090000Y-135110000D02*
X84104900Y-134124900D01*
X84104900Y-134124900D02*
X84104900Y-108449200D01*
X84104900Y-108449200D02*
X87250700Y-105303400D01*
X87250700Y-105303400D02*
X87250700Y-93991600D01*
X87250700Y-93991600D02*
X86018000Y-92758900D01*
X86018000Y-92758900D02*
X86018000Y-83689200D01*
X86018000Y-83689200D02*
X91004200Y-78703000D01*
X91004200Y-78703000D02*
X91004200Y-75601100D01*
X91004200Y-75601100D02*
X94400000Y-72205300D01*
X85090000Y-135110000D02*
X92050800Y-142070800D01*
X94400000Y-71080000D02*
X94400000Y-72205300D01*
X92050800Y-142070800D02*
X92371500Y-142070800D01*
X92371500Y-142070800D02*
X94232300Y-140210000D01*
X92050800Y-142070800D02*
X92050800Y-143479200D01*
X92050800Y-143479200D02*
X85020000Y-150510000D01*
X95310000Y-140210000D02*
X94232300Y-140210000D01*
%TO.N,Net-(R12-Pad1)*%
X86780000Y-66000000D02*
X86780000Y-67125300D01*
X84830000Y-155750000D02*
X83654500Y-154574500D01*
X83654500Y-154574500D02*
X83654500Y-69969500D01*
X83654500Y-69969500D02*
X86498700Y-67125300D01*
X86498700Y-67125300D02*
X86780000Y-67125300D01*
%TO.N,Net-(R13-Pad2)*%
X92220000Y-47030000D02*
X98494600Y-53304600D01*
X98494600Y-53304600D02*
X98494600Y-93234700D01*
%TO.N,Net-(R16-Pad2)*%
X149940000Y-113940000D02*
X149940000Y-112814700D01*
X150030000Y-103660000D02*
X150030000Y-104785300D01*
X150030000Y-104785300D02*
X148897900Y-105917400D01*
X148897900Y-105917400D02*
X148897900Y-111772600D01*
X148897900Y-111772600D02*
X149940000Y-112814700D01*
%TO.N,Net-(R18-Pad1)*%
X149780000Y-133764700D02*
X142714300Y-126699000D01*
X142714300Y-126699000D02*
X142714300Y-116874300D01*
X142714300Y-116874300D02*
X139780000Y-113940000D01*
X149780000Y-134890000D02*
X149780000Y-133764700D01*
%TO.N,Net-(RV1-Pad2)*%
X108340000Y-79190000D02*
X108340000Y-98091300D01*
X108340000Y-98091300D02*
X106328200Y-100103100D01*
%TO.N,/ENVOUT*%
X102520000Y-152420000D02*
X102520000Y-151294700D01*
X102480000Y-141210000D02*
X102480000Y-142335300D01*
X102480000Y-142335300D02*
X102198700Y-142335300D01*
X102198700Y-142335300D02*
X101352400Y-143181600D01*
X101352400Y-143181600D02*
X101352400Y-150830400D01*
X101352400Y-150830400D02*
X101816700Y-151294700D01*
X101816700Y-151294700D02*
X102520000Y-151294700D01*
%TO.N,/IN2*%
X92810000Y-84430000D02*
X96728100Y-88348100D01*
%TO.N,/OUT1*%
X87810000Y-91370000D02*
X89135400Y-92695400D01*
X89135400Y-92695400D02*
X97045200Y-92695400D01*
X97045200Y-92695400D02*
X97073500Y-92667100D01*
%TO.N,/OUT2*%
X139570000Y-140020000D02*
X141379000Y-138211000D01*
X141379000Y-138211000D02*
X141379000Y-117175800D01*
X141379000Y-117175800D02*
X138643400Y-114440200D01*
X138643400Y-114440200D02*
X138643400Y-110166600D01*
X138643400Y-110166600D02*
X139870000Y-108940000D01*
X121840000Y-61090000D02*
X121840000Y-62215300D01*
X120510000Y-95910000D02*
X122185400Y-94234600D01*
X122185400Y-94234600D02*
X122185400Y-62560700D01*
X122185400Y-62560700D02*
X121840000Y-62215300D01*
%TO.N,/IN1*%
X124330000Y-148974700D02*
X117675300Y-142320000D01*
X117675300Y-142320000D02*
X116099000Y-142320000D01*
X116099000Y-142320000D02*
X115335800Y-141556800D01*
X115335800Y-141556800D02*
X115335800Y-132928900D01*
X115335800Y-132928900D02*
X125911600Y-122353100D01*
X125911600Y-122353100D02*
X125911600Y-101578400D01*
X125911600Y-101578400D02*
X130880000Y-96610000D01*
X124330000Y-151300000D02*
X124330000Y-148974700D01*
%TO.N,/OUT3*%
X149790000Y-144224700D02*
X150875400Y-143139300D01*
X150875400Y-143139300D02*
X150875400Y-139533300D01*
X150875400Y-139533300D02*
X142104400Y-130762300D01*
X142104400Y-130762300D02*
X142104400Y-127933700D01*
X149790000Y-145350000D02*
X149790000Y-144224700D01*
%TO.N,/OUT4*%
X102520000Y-148754700D02*
X103608900Y-147665800D01*
X103608900Y-147665800D02*
X103608900Y-127876400D01*
X103608900Y-127876400D02*
X105578900Y-125906400D01*
X105578900Y-125906400D02*
X116650200Y-125906400D01*
X116650200Y-125906400D02*
X120459700Y-122096900D01*
X120459700Y-122096900D02*
X120459700Y-108109000D01*
X120459700Y-108109000D02*
X118000700Y-105650000D01*
X118000700Y-105650000D02*
X118000700Y-103833600D01*
X102520000Y-149880000D02*
X102520000Y-148754700D01*
X118000700Y-103833600D02*
X112786400Y-103833600D01*
X112786400Y-103833600D02*
X111110000Y-105510000D01*
X120510000Y-100710000D02*
X118000700Y-103219300D01*
X118000700Y-103219300D02*
X118000700Y-103833600D01*
%TO.N,Net-(S1-Pad3)*%
X115810000Y-95910000D02*
X115810000Y-95810000D01*
X115810000Y-95810000D02*
X111110000Y-91110000D01*
%TO.N,Net-(D3-Pad2)*%
X145090000Y-43350000D02*
X146871800Y-45131800D01*
X146871800Y-45131800D02*
X146871800Y-65732500D01*
X146871800Y-65732500D02*
X143300100Y-69304200D01*
X143300100Y-69304200D02*
X143300100Y-97758500D01*
X143300100Y-97758500D02*
X138193000Y-102865600D01*
X138193000Y-102865600D02*
X138193000Y-115467100D01*
X138193000Y-115467100D02*
X140928600Y-118202700D01*
X140928600Y-118202700D02*
X140928600Y-136078300D01*
X140928600Y-136078300D02*
X138292300Y-138714600D01*
X138292300Y-138714600D02*
X138292300Y-155062300D01*
X138292300Y-155062300D02*
X139370000Y-156140000D01*
%TD*%
M02*
