M48
; DRILL file {KiCad 5.1.7} date Sun Nov  8 18:28:23 2020
; FORMAT={-:-/ absolute / inch / decimal}
; #@! TF.CreationDate,2020-11-08T18:28:23+01:00
; #@! TF.GenerationSoftware,Kicad,Pcbnew,5.1.7
; #@! TF.FileFunction,Plated,1,2,PTH
FMAT,2
INCH
T1C0.0157
T2C0.0295
T3C0.0315
T4C0.0354
T5C0.0394
T6C0.0433
T7C0.0480
T8C0.0559
T9C0.0563
T10C0.0709
%
G90
G05
T1
X4.0215Y-3.7326
X4.0736Y-3.7486
X4.631Y-3.8975
X4.8582Y-3.8242
X5.3454Y-4.9689
X5.4939Y-4.7825
T2
X5.0925Y-4.035
X5.1425Y-4.035
X5.1925Y-4.035
X5.0925Y-4.3602
X5.1425Y-4.3602
X5.1925Y-4.3602
T3
X5.5031Y-4.4858
X5.9031Y-4.4858
X3.3713Y-3.8984
X3.7713Y-3.8984
X3.365Y-4.4976
X3.765Y-4.4976
X5.487Y-6.1472
X5.887Y-6.1472
X3.3472Y-5.7205
X3.7472Y-5.7205
X5.5031Y-4.6969
X5.9031Y-4.6969
X4.5854Y-5.3531
X4.5854Y-5.4531
X4.5854Y-5.5531
X4.5854Y-5.6531
X4.8854Y-5.3531
X4.8854Y-5.4531
X4.8854Y-5.5531
X4.8854Y-5.6531
X5.4969Y-5.3106
X5.8969Y-5.3106
X3.3622Y-4.9063
X3.7622Y-4.9063
X3.3638Y-4.7004
X3.7638Y-4.7004
X5.5067Y-4.0811
X5.9067Y-4.0811
X5.5031Y-4.9012
X5.9031Y-4.9012
X5.5118Y-3.8705
X5.9118Y-3.8705
X5.5031Y-5.1035
X5.9031Y-5.1035
X4.2665Y-2.4024
X4.5665Y-2.4024
X5.4909Y-5.9327
X5.8909Y-5.9327
X3.3575Y-5.1146
X3.7575Y-5.1146
X3.3398Y-6.1319
X3.7398Y-6.1319
X5.5067Y-4.289
X5.9067Y-4.289
X4.0362Y-5.9008
X4.0362Y-6.0008
X4.0362Y-6.1008
X4.0362Y-6.2008
X4.3362Y-5.9008
X4.3362Y-6.0008
X4.3362Y-6.1008
X4.3362Y-6.2008
X3.3472Y-5.9256
X3.7472Y-5.9256
X3.4165Y-2.0984
X3.4165Y-2.1984
X3.4165Y-2.2984
X3.4165Y-2.3984
X3.4165Y-2.4984
X3.4165Y-2.5984
X3.4165Y-2.6984
X3.4165Y-2.7984
X3.7165Y-2.0984
X3.7165Y-2.1984
X3.7165Y-2.2984
X3.7165Y-2.3984
X3.7165Y-2.4984
X3.7165Y-2.5984
X3.7165Y-2.6984
X3.7165Y-2.7984
X5.4949Y-5.5126
X5.8949Y-5.5126
X4.7969Y-2.4051
X5.0969Y-2.4051
X3.35Y-5.3193
X3.75Y-5.3193
X4.0346Y-5.3594
X4.0346Y-5.4594
X4.0346Y-5.5594
X4.0346Y-5.6594
X4.3346Y-5.3594
X4.3346Y-5.4594
X4.3346Y-5.5594
X4.3346Y-5.6594
X3.3524Y-5.5201
X3.7524Y-5.5201
X3.3654Y-4.1012
X3.7654Y-4.1012
X5.5102Y-3.6661
X5.9102Y-3.6661
X3.3622Y-4.2984
X3.7622Y-4.2984
X5.4972Y-5.7224
X5.8972Y-5.7224
X4.0594Y-3.8642
X4.0594Y-4.2642
T4
X5.6122Y-1.7067
X5.7122Y-1.7067
T5
X4.4933Y-4.4665
X4.5917Y-4.6634
X4.6902Y-4.4665
X5.0937Y-5.3409
X5.2906Y-5.3409
X3.9051Y-3.5972
X4.102Y-3.5972
X5.1055Y-6.1831
X5.3024Y-6.1831
X5.6406Y-2.1618
X5.6406Y-2.2618
X5.6406Y-2.3618
X5.6406Y-2.4618
X5.6406Y-2.5618
X5.7406Y-2.1618
X5.7406Y-2.2618
X5.7406Y-2.3618
X5.7406Y-2.4618
X5.7406Y-2.5618
X5.5736Y-3.326
X5.7705Y-3.326
X4.9689Y-3.0957
X5.0673Y-3.0957
X5.1657Y-3.0957
X4.1799Y-2.1161
X4.2783Y-2.1161
X4.3768Y-2.1161
X3.4571Y-3.5972
X3.6539Y-3.5972
X4.9819Y-2.1075
X5.0803Y-2.1075
X5.1787Y-2.1075
X5.1Y-5.6193
X5.2969Y-5.6193
X3.4744Y-1.6626
X3.5728Y-1.8594
X3.6713Y-1.6626
X4.5929Y-4.8575
X4.5929Y-5.0543
X3.4571Y-3.324
X3.6539Y-3.324
X5.1Y-5.8976
X5.2969Y-5.8976
X3.4673Y-3.061
X3.6642Y-3.061
X4.1669Y-3.1177
X4.2654Y-3.1177
X4.3638Y-3.1177
X3.9106Y-3.3343
X4.1075Y-3.3343
T6
X5.5535Y-2.8504
X5.5535Y-3.0276
X5.8094Y-2.8504
X5.8094Y-3.0276
T7
X4.1409Y-4.6031
X5.1528Y-3.3547
X5.0315Y-4.6094
T8
X4.1409Y-4.7252
X5.1528Y-3.4768
X5.0315Y-4.7315
T9
X4.1409Y-5.052
X5.1528Y-3.8035
X5.0315Y-5.0583
T10
X4.3744Y-3.587
X4.3744Y-3.776
X4.3744Y-3.965
X4.3744Y-4.1539
X4.5594Y-3.587
X4.5594Y-3.776
X4.5594Y-3.965
X4.5594Y-4.1539
X4.7445Y-3.587
X4.7445Y-3.776
X4.7445Y-3.965
X4.7445Y-4.1539
T6
G00X4.8783Y-2.7866
M15
G01X4.8783Y-2.8142
M16
G05
G00X5.2563Y-2.7866
M15
G01X5.2563Y-2.8142
M16
G05
G00X4.0894Y-1.8071
M15
G01X4.0894Y-1.8346
M16
G05
G00X4.4673Y-1.8071
M15
G01X4.4673Y-1.8346
M16
G05
G00X4.8913Y-1.7984
M15
G01X4.8913Y-1.826
M16
G05
G00X5.2693Y-1.7984
M15
G01X5.2693Y-1.826
M16
G05
G00X4.0764Y-2.8087
M15
G01X4.0764Y-2.8362
M16
G05
G00X4.4543Y-2.8087
M15
G01X4.4543Y-2.8362
M16
G05
T0
M30
