%TF.GenerationSoftware,KiCad,Pcbnew,5.1.7*%
%TF.CreationDate,2020-11-08T18:28:21+01:00*%
%TF.ProjectId,AS3310-ADSR,41533333-3130-42d4-9144-53522e6b6963,rev?*%
%TF.SameCoordinates,Original*%
%TF.FileFunction,Copper,L2,Bot*%
%TF.FilePolarity,Positive*%
%FSLAX46Y46*%
G04 Gerber Fmt 4.6, Leading zero omitted, Abs format (unit mm)*
G04 Created by KiCad (PCBNEW 5.1.7) date 2020-11-08 18:28:21*
%MOMM*%
%LPD*%
G01*
G04 APERTURE LIST*
%TA.AperFunction,ComponentPad*%
%ADD10C,2.130000*%
%TD*%
%TA.AperFunction,ComponentPad*%
%ADD11R,1.930000X1.830000*%
%TD*%
%TA.AperFunction,ComponentPad*%
%ADD12C,2.700000*%
%TD*%
%TA.AperFunction,ComponentPad*%
%ADD13R,2.700000X2.700000*%
%TD*%
%TA.AperFunction,ComponentPad*%
%ADD14C,1.600000*%
%TD*%
%TA.AperFunction,ComponentPad*%
%ADD15O,1.600000X1.600000*%
%TD*%
%TA.AperFunction,ComponentPad*%
%ADD16C,1.800000*%
%TD*%
%TA.AperFunction,ComponentPad*%
%ADD17R,1.800000X1.800000*%
%TD*%
%TA.AperFunction,ComponentPad*%
%ADD18R,1.600000X1.600000*%
%TD*%
%TA.AperFunction,ComponentPad*%
%ADD19C,2.000000*%
%TD*%
%TA.AperFunction,ComponentPad*%
%ADD20C,1.550000*%
%TD*%
%TA.AperFunction,ComponentPad*%
%ADD21R,1.550000X1.550000*%
%TD*%
%TA.AperFunction,ComponentPad*%
%ADD22O,2.720000X3.240000*%
%TD*%
%TA.AperFunction,ComponentPad*%
%ADD23R,1.050000X1.500000*%
%TD*%
%TA.AperFunction,ComponentPad*%
%ADD24O,1.050000X1.500000*%
%TD*%
%TA.AperFunction,ComponentPad*%
%ADD25O,1.700000X1.700000*%
%TD*%
%TA.AperFunction,ComponentPad*%
%ADD26R,1.700000X1.700000*%
%TD*%
%TA.AperFunction,ViaPad*%
%ADD27C,0.800000*%
%TD*%
%TA.AperFunction,Conductor*%
%ADD28C,0.250000*%
%TD*%
G04 APERTURE END LIST*
D10*
%TO.P,J3,T*%
%TO.N,Net-(J3-PadT)*%
X105180000Y-128320000D03*
D11*
%TO.P,J3,S*%
%TO.N,GND*%
X105180000Y-116920000D03*
D10*
%TO.P,J3,TN*%
%TO.N,N/C*%
X105180000Y-120020000D03*
%TD*%
D12*
%TO.P,S1,10*%
%TO.N,N/C*%
X120510000Y-105510000D03*
%TO.P,S1,7*%
%TO.N,/OUT4*%
X120510000Y-100710000D03*
D13*
%TO.P,S1,1*%
%TO.N,/OUT3*%
X120510000Y-91110000D03*
D12*
%TO.P,S1,4*%
%TO.N,/OUT2*%
X120510000Y-95910000D03*
%TO.P,S1,12*%
%TO.N,/OUT4*%
X111110000Y-105510000D03*
%TO.P,S1,9*%
%TO.N,Net-(S1-Pad11)*%
X111110000Y-100710000D03*
%TO.P,S1,3*%
%TO.N,Net-(S1-Pad3)*%
X111110000Y-91110000D03*
%TO.P,S1,6*%
%TO.N,/OUT1*%
X111110000Y-95910000D03*
%TO.P,S1,11*%
%TO.N,Net-(S1-Pad11)*%
X115810000Y-105510000D03*
%TO.P,S1,8*%
%TO.N,/IN2*%
X115810000Y-100710000D03*
%TO.P,S1,2*%
%TO.N,/IN1*%
X115810000Y-91110000D03*
%TO.P,S1,5*%
%TO.N,Net-(S1-Pad3)*%
X115810000Y-95910000D03*
%TD*%
D14*
%TO.P,R26,1*%
%TO.N,Net-(D3-Pad2)*%
X139370000Y-156140000D03*
D15*
%TO.P,R26,2*%
%TO.N,+12V*%
X149530000Y-156140000D03*
%TD*%
D16*
%TO.P,D3,2*%
%TO.N,Net-(D3-Pad2)*%
X145090000Y-43350000D03*
D17*
%TO.P,D3,1*%
%TO.N,GND*%
X142550000Y-43350000D03*
%TD*%
D15*
%TO.P,U4,8*%
%TO.N,N/C*%
X110100000Y-136130000D03*
%TO.P,U4,4*%
%TO.N,-12V*%
X102480000Y-143750000D03*
%TO.P,U4,7*%
%TO.N,+12V*%
X110100000Y-138670000D03*
%TO.P,U4,3*%
%TO.N,/ENVOUT*%
X102480000Y-141210000D03*
%TO.P,U4,6*%
%TO.N,Net-(R18-Pad1)*%
X110100000Y-141210000D03*
%TO.P,U4,2*%
%TO.N,Net-(R16-Pad2)*%
X102480000Y-138670000D03*
%TO.P,U4,5*%
%TO.N,N/C*%
X110100000Y-143750000D03*
D18*
%TO.P,U4,1*%
X102480000Y-136130000D03*
%TD*%
D15*
%TO.P,U3,8*%
%TO.N,N/C*%
X124090000Y-135970000D03*
%TO.P,U3,4*%
X116470000Y-143590000D03*
%TO.P,U3,7*%
X124090000Y-138510000D03*
%TO.P,U3,3*%
%TO.N,/OUT2*%
X116470000Y-141050000D03*
%TO.P,U3,6*%
%TO.N,N/C*%
X124090000Y-141050000D03*
%TO.P,U3,2*%
%TO.N,Net-(C5-Pad1)*%
X116470000Y-138510000D03*
%TO.P,U3,5*%
%TO.N,N/C*%
X124090000Y-143590000D03*
D18*
%TO.P,U3,1*%
%TO.N,/GATE*%
X116470000Y-135970000D03*
%TD*%
D15*
%TO.P,U2,16*%
%TO.N,N/C*%
X94400000Y-53300000D03*
%TO.P,U2,8*%
%TO.N,Net-(C1-Pad1)*%
X86780000Y-71080000D03*
%TO.P,U2,15*%
%TO.N,/ATTACK*%
X94400000Y-55840000D03*
%TO.P,U2,7*%
%TO.N,GND*%
X86780000Y-68540000D03*
%TO.P,U2,14*%
X94400000Y-58380000D03*
%TO.P,U2,6*%
%TO.N,Net-(R12-Pad1)*%
X86780000Y-66000000D03*
%TO.P,U2,13*%
%TO.N,/RELEASE*%
X94400000Y-60920000D03*
%TO.P,U2,5*%
%TO.N,/TRIG*%
X86780000Y-63460000D03*
%TO.P,U2,12*%
%TO.N,/DECAY*%
X94400000Y-63460000D03*
%TO.P,U2,4*%
%TO.N,/GATE*%
X86780000Y-60920000D03*
%TO.P,U2,11*%
%TO.N,+12V*%
X94400000Y-66000000D03*
%TO.P,U2,3*%
%TO.N,N/C*%
X86780000Y-58380000D03*
%TO.P,U2,10*%
%TO.N,/IIN*%
X94400000Y-68540000D03*
%TO.P,U2,2*%
%TO.N,/ENVOUT*%
X86780000Y-55840000D03*
%TO.P,U2,9*%
%TO.N,/SUSTAIN*%
X94400000Y-71080000D03*
D18*
%TO.P,U2,1*%
%TO.N,Net-(C3-Pad1)*%
X86780000Y-53300000D03*
%TD*%
D15*
%TO.P,U1,8*%
%TO.N,+12V*%
X110140000Y-149880000D03*
%TO.P,U1,4*%
%TO.N,-12V*%
X102520000Y-157500000D03*
%TO.P,U1,7*%
%TO.N,N/C*%
X110140000Y-152420000D03*
%TO.P,U1,3*%
%TO.N,Net-(R10-Pad2)*%
X102520000Y-154960000D03*
%TO.P,U1,6*%
%TO.N,N/C*%
X110140000Y-154960000D03*
%TO.P,U1,2*%
%TO.N,/ENVOUT*%
X102520000Y-152420000D03*
%TO.P,U1,5*%
%TO.N,N/C*%
X110140000Y-157500000D03*
D18*
%TO.P,U1,1*%
%TO.N,/OUT4*%
X102520000Y-149880000D03*
%TD*%
D19*
%TO.P,SW2,1*%
%TO.N,Net-(J4-PadTN)*%
X141060000Y-72400000D03*
%TO.P,SW2,2*%
%TO.N,+12V*%
X141060000Y-76900000D03*
%TO.P,SW2,1*%
%TO.N,Net-(J4-PadTN)*%
X147560000Y-72400000D03*
%TO.P,SW2,2*%
%TO.N,+12V*%
X147560000Y-76900000D03*
%TD*%
D20*
%TO.P,RV6,2*%
%TO.N,Net-(R13-Pad2)*%
X90750000Y-47230000D03*
D21*
%TO.P,RV6,1*%
%TO.N,/ENVOUT*%
X88250000Y-42230000D03*
D20*
%TO.P,RV6,3*%
%TO.N,Net-(R13-Pad2)*%
X93250000Y-42230000D03*
%TD*%
%TO.P,RV5,2*%
%TO.N,Net-(R8-Pad2)*%
X116630000Y-118450000D03*
D21*
%TO.P,RV5,1*%
%TO.N,Net-(RV1-Pad2)*%
X114130000Y-113450000D03*
D20*
%TO.P,RV5,3*%
%TO.N,Net-(R8-Pad2)*%
X119130000Y-113450000D03*
%TD*%
D22*
%TO.P,RV4,*%
%TO.N,*%
X133510000Y-71130000D03*
X123910000Y-71130000D03*
D16*
%TO.P,RV4,3*%
%TO.N,GND*%
X126210000Y-78630000D03*
%TO.P,RV4,2*%
%TO.N,Net-(R3-Pad2)*%
X128710000Y-78630000D03*
D17*
%TO.P,RV4,1*%
%TO.N,-12V*%
X131210000Y-78630000D03*
%TD*%
D22*
%TO.P,RV3,*%
%TO.N,*%
X133840000Y-46030000D03*
X124240000Y-46030000D03*
D16*
%TO.P,RV3,3*%
%TO.N,GND*%
X126540000Y-53530000D03*
%TO.P,RV3,2*%
%TO.N,Net-(R2-Pad2)*%
X129040000Y-53530000D03*
D17*
%TO.P,RV3,1*%
%TO.N,-12V*%
X131540000Y-53530000D03*
%TD*%
D22*
%TO.P,RV2,*%
%TO.N,*%
X113470000Y-46250000D03*
X103870000Y-46250000D03*
D16*
%TO.P,RV2,3*%
%TO.N,GND*%
X106170000Y-53750000D03*
%TO.P,RV2,2*%
%TO.N,Net-(R1-Pad2)*%
X108670000Y-53750000D03*
D17*
%TO.P,RV2,1*%
%TO.N,-12V*%
X111170000Y-53750000D03*
%TD*%
D22*
%TO.P,RV1,*%
%TO.N,*%
X113140000Y-71690000D03*
X103540000Y-71690000D03*
D16*
%TO.P,RV1,3*%
%TO.N,GND*%
X105840000Y-79190000D03*
%TO.P,RV1,2*%
%TO.N,Net-(RV1-Pad2)*%
X108340000Y-79190000D03*
D17*
%TO.P,RV1,1*%
%TO.N,+12V*%
X110840000Y-79190000D03*
%TD*%
D14*
%TO.P,R25,1*%
%TO.N,GND*%
X139470000Y-150690000D03*
D15*
%TO.P,R25,2*%
%TO.N,Net-(J4-PadTN)*%
X149630000Y-150690000D03*
%TD*%
D14*
%TO.P,R24,1*%
%TO.N,+12V*%
X139630000Y-145350000D03*
D15*
%TO.P,R24,2*%
%TO.N,/OUT3*%
X149790000Y-145350000D03*
%TD*%
D14*
%TO.P,R23,1*%
%TO.N,/OUT2*%
X139570000Y-140020000D03*
D15*
%TO.P,R23,2*%
%TO.N,GND*%
X149730000Y-140020000D03*
%TD*%
D14*
%TO.P,R22,1*%
%TO.N,Net-(J3-PadT)*%
X139620000Y-134890000D03*
D15*
%TO.P,R22,2*%
%TO.N,Net-(R18-Pad1)*%
X149780000Y-134890000D03*
%TD*%
D14*
%TO.P,R21,1*%
%TO.N,Net-(C6-Pad2)*%
X139780000Y-129630000D03*
D15*
%TO.P,R21,2*%
%TO.N,GND*%
X149940000Y-129630000D03*
%TD*%
D14*
%TO.P,R20,1*%
%TO.N,Net-(Q1-Pad2)*%
X139780000Y-124490000D03*
D15*
%TO.P,R20,2*%
%TO.N,-12V*%
X149940000Y-124490000D03*
%TD*%
D14*
%TO.P,R19,1*%
%TO.N,Net-(C7-Pad2)*%
X139780000Y-119300000D03*
D15*
%TO.P,R19,2*%
%TO.N,Net-(Q1-Pad2)*%
X149940000Y-119300000D03*
%TD*%
D14*
%TO.P,R18,1*%
%TO.N,Net-(R18-Pad1)*%
X139780000Y-113940000D03*
D15*
%TO.P,R18,2*%
%TO.N,Net-(R16-Pad2)*%
X149940000Y-113940000D03*
%TD*%
D14*
%TO.P,R17,1*%
%TO.N,/OUT2*%
X139870000Y-108940000D03*
D15*
%TO.P,R17,2*%
%TO.N,/GATE*%
X150030000Y-108940000D03*
%TD*%
D14*
%TO.P,R16,1*%
%TO.N,GND*%
X139870000Y-103660000D03*
D15*
%TO.P,R16,2*%
%TO.N,Net-(R16-Pad2)*%
X150030000Y-103660000D03*
%TD*%
D14*
%TO.P,R15,1*%
%TO.N,Net-(C5-Pad1)*%
X140000000Y-98310000D03*
D15*
%TO.P,R15,2*%
%TO.N,GND*%
X150160000Y-98310000D03*
%TD*%
D14*
%TO.P,R14,1*%
%TO.N,+12V*%
X139960000Y-93120000D03*
D15*
%TO.P,R14,2*%
%TO.N,Net-(C5-Pad1)*%
X150120000Y-93120000D03*
%TD*%
D14*
%TO.P,R13,1*%
%TO.N,/IIN*%
X103110000Y-108310000D03*
D15*
%TO.P,R13,2*%
%TO.N,Net-(R13-Pad2)*%
X103110000Y-98150000D03*
%TD*%
D14*
%TO.P,R12,1*%
%TO.N,Net-(R12-Pad1)*%
X84830000Y-155750000D03*
D15*
%TO.P,R12,2*%
%TO.N,-12V*%
X94990000Y-155750000D03*
%TD*%
D14*
%TO.P,R11,1*%
%TO.N,/SUSTAIN*%
X85020000Y-150510000D03*
D15*
%TO.P,R11,2*%
%TO.N,GND*%
X95180000Y-150510000D03*
%TD*%
D14*
%TO.P,R10,1*%
%TO.N,/OUT4*%
X85020000Y-145300000D03*
D15*
%TO.P,R10,2*%
%TO.N,Net-(R10-Pad2)*%
X95180000Y-145300000D03*
%TD*%
D14*
%TO.P,R9,1*%
%TO.N,Net-(R10-Pad2)*%
X85150000Y-140210000D03*
D15*
%TO.P,R9,2*%
%TO.N,/SUSTAIN*%
X95310000Y-140210000D03*
%TD*%
D14*
%TO.P,R8,1*%
%TO.N,/SUSTAIN*%
X85090000Y-135110000D03*
D15*
%TO.P,R8,2*%
%TO.N,Net-(R8-Pad2)*%
X95250000Y-135110000D03*
%TD*%
D14*
%TO.P,R7,1*%
%TO.N,GND*%
X85280000Y-129910000D03*
D15*
%TO.P,R7,2*%
%TO.N,/RELEASE*%
X95440000Y-129910000D03*
%TD*%
D14*
%TO.P,R6,1*%
%TO.N,GND*%
X85400000Y-124620000D03*
D15*
%TO.P,R6,2*%
%TO.N,/DECAY*%
X95560000Y-124620000D03*
%TD*%
D14*
%TO.P,R5,1*%
%TO.N,GND*%
X85440000Y-119390000D03*
D15*
%TO.P,R5,2*%
%TO.N,/ATTACK*%
X95600000Y-119390000D03*
%TD*%
D14*
%TO.P,R4,1*%
%TO.N,Net-(R10-Pad2)*%
X85470000Y-114240000D03*
D15*
%TO.P,R4,2*%
%TO.N,+12V*%
X95630000Y-114240000D03*
%TD*%
D14*
%TO.P,R3,1*%
%TO.N,/RELEASE*%
X85400000Y-109180000D03*
D15*
%TO.P,R3,2*%
%TO.N,Net-(R3-Pad2)*%
X95560000Y-109180000D03*
%TD*%
D14*
%TO.P,R2,1*%
%TO.N,/DECAY*%
X85480000Y-104170000D03*
D15*
%TO.P,R2,2*%
%TO.N,Net-(R2-Pad2)*%
X95640000Y-104170000D03*
%TD*%
D14*
%TO.P,R1,1*%
%TO.N,/ATTACK*%
X85630000Y-99020000D03*
D15*
%TO.P,R1,2*%
%TO.N,Net-(R1-Pad2)*%
X95790000Y-99020000D03*
%TD*%
D23*
%TO.P,Q2,1*%
%TO.N,+12V*%
X129350000Y-110750000D03*
D24*
%TO.P,Q2,3*%
%TO.N,Net-(C7-Pad2)*%
X131890000Y-110750000D03*
%TO.P,Q2,2*%
%TO.N,/OUT3*%
X130620000Y-110750000D03*
%TD*%
D23*
%TO.P,Q1,1*%
%TO.N,GND*%
X129350000Y-102490000D03*
D24*
%TO.P,Q1,3*%
%TO.N,/RELEASE*%
X131890000Y-102490000D03*
%TO.P,Q1,2*%
%TO.N,Net-(Q1-Pad2)*%
X130620000Y-102490000D03*
%TD*%
D10*
%TO.P,J4,T*%
%TO.N,/IN1*%
X130880000Y-96610000D03*
D11*
%TO.P,J4,S*%
%TO.N,GND*%
X130880000Y-85210000D03*
D10*
%TO.P,J4,TN*%
%TO.N,Net-(J4-PadTN)*%
X130880000Y-88310000D03*
%TD*%
D25*
%TO.P,J2,10*%
%TO.N,-12V*%
X145810000Y-65070000D03*
%TO.P,J2,9*%
X143270000Y-65070000D03*
%TO.P,J2,8*%
%TO.N,GND*%
X145810000Y-62530000D03*
%TO.P,J2,7*%
X143270000Y-62530000D03*
%TO.P,J2,6*%
X145810000Y-59990000D03*
%TO.P,J2,5*%
X143270000Y-59990000D03*
%TO.P,J2,4*%
X145810000Y-57450000D03*
%TO.P,J2,3*%
X143270000Y-57450000D03*
%TO.P,J2,2*%
%TO.N,+12V*%
X145810000Y-54910000D03*
D26*
%TO.P,J2,1*%
X143270000Y-54910000D03*
%TD*%
D10*
%TO.P,J1,T*%
%TO.N,Net-(C4-Pad1)*%
X127800000Y-128480000D03*
D11*
%TO.P,J1,S*%
%TO.N,GND*%
X127800000Y-117080000D03*
D10*
%TO.P,J1,TN*%
%TO.N,N/C*%
X127800000Y-120180000D03*
%TD*%
D15*
%TO.P,D2,2*%
%TO.N,Net-(C6-Pad2)*%
X129460000Y-61090000D03*
D18*
%TO.P,D2,1*%
%TO.N,/OUT2*%
X121840000Y-61090000D03*
%TD*%
D15*
%TO.P,D1,2*%
%TO.N,GND*%
X115990000Y-61020000D03*
D18*
%TO.P,D1,1*%
%TO.N,/OUT2*%
X108370000Y-61020000D03*
%TD*%
D19*
%TO.P,C11,2*%
%TO.N,+12V*%
X141570000Y-84480000D03*
%TO.P,C11,1*%
%TO.N,GND*%
X146570000Y-84480000D03*
%TD*%
%TO.P,C10,2*%
%TO.N,GND*%
X104330000Y-84690000D03*
%TO.P,C10,1*%
%TO.N,+12V*%
X99330000Y-84690000D03*
%TD*%
%TO.P,C9,2*%
%TO.N,-12V*%
X134540000Y-142730000D03*
%TO.P,C9,1*%
%TO.N,GND*%
X129540000Y-142730000D03*
%TD*%
%TO.P,C8,2*%
%TO.N,GND*%
X134540000Y-149800000D03*
%TO.P,C8,1*%
%TO.N,-12V*%
X129540000Y-149800000D03*
%TD*%
%TO.P,C7,2*%
%TO.N,Net-(C7-Pad2)*%
X104190000Y-91370000D03*
%TO.P,C7,1*%
%TO.N,/OUT2*%
X99190000Y-91370000D03*
%TD*%
%TO.P,C6,2*%
%TO.N,Net-(C6-Pad2)*%
X92810000Y-91370000D03*
%TO.P,C6,1*%
%TO.N,/OUT1*%
X87810000Y-91370000D03*
%TD*%
%TO.P,C5,2*%
%TO.N,/IN2*%
X92810000Y-84430000D03*
%TO.P,C5,1*%
%TO.N,Net-(C5-Pad1)*%
X87810000Y-84430000D03*
%TD*%
%TO.P,C4,2*%
%TO.N,/TRIG*%
X134680000Y-157050000D03*
%TO.P,C4,1*%
%TO.N,Net-(C4-Pad1)*%
X129680000Y-157050000D03*
%TD*%
%TO.P,C3,2*%
%TO.N,GND*%
X93070000Y-77750000D03*
%TO.P,C3,1*%
%TO.N,Net-(C3-Pad1)*%
X88070000Y-77750000D03*
%TD*%
%TO.P,C2,2*%
%TO.N,/GATE*%
X134380000Y-135660000D03*
%TO.P,C2,1*%
%TO.N,/TRIG*%
X129380000Y-135660000D03*
%TD*%
%TO.P,C1,2*%
%TO.N,GND*%
X116660000Y-123380000D03*
%TO.P,C1,1*%
%TO.N,Net-(C1-Pad1)*%
X116660000Y-128380000D03*
%TD*%
D27*
%TO.N,Net-(C5-Pad1)*%
X117626300Y-98995300D03*
%TO.N,Net-(C7-Pad2)*%
X123398100Y-97133900D03*
%TO.N,-12V*%
X135772100Y-126210200D03*
%TO.N,Net-(R1-Pad2)*%
X102145300Y-94808800D03*
%TO.N,Net-(R2-Pad2)*%
X103469400Y-95215300D03*
%TO.N,/OUT3*%
X139545100Y-121475100D03*
%TD*%
D28*
%TO.N,Net-(C1-Pad1)*%
X86780000Y-71080000D02*
X86780000Y-72205300D01*
X116660000Y-128380000D02*
X116660000Y-126014500D01*
X116660000Y-126014500D02*
X106325200Y-115679700D01*
X106325200Y-115679700D02*
X90294900Y-115679700D01*
X90294900Y-115679700D02*
X84274600Y-109659400D01*
X84274600Y-109659400D02*
X84274600Y-108057000D01*
X84274600Y-108057000D02*
X86779100Y-105552500D01*
X86779100Y-105552500D02*
X86779100Y-94917300D01*
X86779100Y-94917300D02*
X85951300Y-94089500D01*
X85951300Y-94089500D02*
X85951300Y-73034000D01*
X85951300Y-73034000D02*
X86780000Y-72205300D01*
%TO.N,GND*%
X86780000Y-68540000D02*
X86780000Y-67414700D01*
X94400000Y-58380000D02*
X94400000Y-59505300D01*
X94400000Y-59505300D02*
X94118600Y-59505300D01*
X94118600Y-59505300D02*
X87905300Y-65718600D01*
X87905300Y-65718600D02*
X87905300Y-66570800D01*
X87905300Y-66570800D02*
X87061400Y-67414700D01*
X87061400Y-67414700D02*
X86780000Y-67414700D01*
X106170000Y-53750000D02*
X101540000Y-58380000D01*
X101540000Y-58380000D02*
X94400000Y-58380000D01*
X86575300Y-120525300D02*
X85440000Y-119390000D01*
X105180000Y-118160300D02*
X103939700Y-118160300D01*
X103939700Y-118160300D02*
X101574700Y-120525300D01*
X101574700Y-120525300D02*
X86575300Y-120525300D01*
X86575300Y-120525300D02*
X86575300Y-123444700D01*
X86575300Y-123444700D02*
X85400000Y-124620000D01*
X105180000Y-116920000D02*
X105180000Y-118160300D01*
X116660000Y-123380000D02*
X122960000Y-117080000D01*
X122960000Y-117080000D02*
X127800000Y-117080000D01*
X143270000Y-62530000D02*
X144445300Y-62530000D01*
X145810000Y-63117600D02*
X145032900Y-63117600D01*
X145032900Y-63117600D02*
X144445300Y-62530000D01*
X145810000Y-63117600D02*
X145810000Y-63705300D01*
X145810000Y-62530000D02*
X145810000Y-63117600D01*
X146570000Y-84480000D02*
X148919900Y-82130100D01*
X148919900Y-82130100D02*
X148919900Y-66447900D01*
X148919900Y-66447900D02*
X146177300Y-63705300D01*
X146177300Y-63705300D02*
X145810000Y-63705300D01*
X132170300Y-85210000D02*
X132766900Y-85806600D01*
X132766900Y-85806600D02*
X145243400Y-85806600D01*
X145243400Y-85806600D02*
X146570000Y-84480000D01*
X130880000Y-85210000D02*
X132170300Y-85210000D01*
X139870000Y-103660000D02*
X137174400Y-100964400D01*
X137174400Y-100964400D02*
X129800300Y-100964400D01*
X129800300Y-100964400D02*
X129350000Y-101414700D01*
X142550000Y-43350000D02*
X142550000Y-44575300D01*
X136920200Y-52275500D02*
X142094700Y-57450000D01*
X126540000Y-53530000D02*
X127794500Y-52275500D01*
X127794500Y-52275500D02*
X136920200Y-52275500D01*
X136920200Y-52275500D02*
X136920200Y-50205100D01*
X136920200Y-50205100D02*
X142550000Y-44575300D01*
X143270000Y-57450000D02*
X142094700Y-57450000D01*
X149730000Y-140020000D02*
X149730000Y-138894700D01*
X149940000Y-129630000D02*
X149940000Y-130755300D01*
X149940000Y-130755300D02*
X150907000Y-131722300D01*
X150907000Y-131722300D02*
X150907000Y-137717700D01*
X150907000Y-137717700D02*
X149730000Y-138894700D01*
X142260100Y-146364600D02*
X137283600Y-141388100D01*
X137283600Y-141388100D02*
X130881900Y-141388100D01*
X130881900Y-141388100D02*
X129540000Y-142730000D01*
X139470000Y-149800000D02*
X142260100Y-147009900D01*
X142260100Y-147009900D02*
X142260100Y-146364600D01*
X148604700Y-140020000D02*
X142260100Y-146364600D01*
X149730000Y-140020000D02*
X148604700Y-140020000D01*
X139470000Y-149800000D02*
X139470000Y-150690000D01*
X134540000Y-149800000D02*
X139470000Y-149800000D01*
X129350000Y-102490000D02*
X129350000Y-101414700D01*
X93070000Y-77750000D02*
X93070000Y-75674000D01*
X93070000Y-75674000D02*
X87061300Y-69665300D01*
X87061300Y-69665300D02*
X86780000Y-69665300D01*
X86780000Y-68540000D02*
X86780000Y-69665300D01*
X105840000Y-79190000D02*
X104400000Y-77750000D01*
X104400000Y-77750000D02*
X93070000Y-77750000D01*
%TO.N,/GATE*%
X86780000Y-62045300D02*
X86498700Y-62045300D01*
X86498700Y-62045300D02*
X82907700Y-65636300D01*
X82907700Y-65636300D02*
X82907700Y-125017400D01*
X82907700Y-125017400D02*
X97690100Y-139799800D01*
X97690100Y-139799800D02*
X111514900Y-139799800D01*
X111514900Y-139799800D02*
X115344700Y-135970000D01*
X116470000Y-135970000D02*
X117595300Y-135970000D01*
X117595300Y-135970000D02*
X118720600Y-137095300D01*
X118720600Y-137095300D02*
X124874300Y-137095300D01*
X124874300Y-137095300D02*
X125230900Y-137451900D01*
X125230900Y-137451900D02*
X132588100Y-137451900D01*
X132588100Y-137451900D02*
X134380000Y-135660000D01*
X115907400Y-135970000D02*
X116470000Y-135970000D01*
X134380000Y-135660000D02*
X135200300Y-136480300D01*
X135200300Y-136480300D02*
X140280100Y-136480300D01*
X140280100Y-136480300D02*
X151537000Y-125223400D01*
X151537000Y-125223400D02*
X151537000Y-111572300D01*
X151537000Y-111572300D02*
X150030000Y-110065300D01*
X115907400Y-135970000D02*
X115344700Y-135970000D01*
X86780000Y-60920000D02*
X86780000Y-62045300D01*
X150030000Y-108940000D02*
X150030000Y-110065300D01*
%TO.N,/TRIG*%
X86780000Y-64585300D02*
X86498700Y-64585300D01*
X86498700Y-64585300D02*
X83364700Y-67719300D01*
X83364700Y-67719300D02*
X83364700Y-124837500D01*
X83364700Y-124837500D02*
X94774100Y-136246900D01*
X94774100Y-136246900D02*
X95913300Y-136246900D01*
X95913300Y-136246900D02*
X97793100Y-134367100D01*
X97793100Y-134367100D02*
X128087100Y-134367100D01*
X128087100Y-134367100D02*
X129380000Y-135660000D01*
X86780000Y-63460000D02*
X86780000Y-64585300D01*
%TO.N,Net-(C5-Pad1)*%
X117626300Y-98995300D02*
X117626300Y-101332800D01*
X117626300Y-101332800D02*
X116536000Y-102423100D01*
X116536000Y-102423100D02*
X115117100Y-102423100D01*
X115117100Y-102423100D02*
X114041600Y-101347600D01*
X114041600Y-101347600D02*
X114041600Y-101237900D01*
X114041600Y-101237900D02*
X107451300Y-94647600D01*
X107451300Y-94647600D02*
X104856300Y-94647600D01*
X104856300Y-94647600D02*
X104292200Y-94083500D01*
X104292200Y-94083500D02*
X88600800Y-94083500D01*
X88600800Y-94083500D02*
X86433500Y-91916200D01*
X86433500Y-91916200D02*
X86433500Y-85806500D01*
X86433500Y-85806500D02*
X87810000Y-84430000D01*
X140000000Y-98310000D02*
X143804700Y-98310000D01*
X143804700Y-98310000D02*
X148994700Y-93120000D01*
X117626300Y-98995300D02*
X139314700Y-98995300D01*
X139314700Y-98995300D02*
X140000000Y-98310000D01*
X150120000Y-93120000D02*
X148994700Y-93120000D01*
%TO.N,Net-(C6-Pad2)*%
X92810000Y-91370000D02*
X94869800Y-89310200D01*
X94869800Y-89310200D02*
X103047900Y-89310200D01*
X103047900Y-89310200D02*
X129460000Y-62898100D01*
X129460000Y-62898100D02*
X129460000Y-62215300D01*
X129460000Y-61090000D02*
X129460000Y-62215300D01*
%TO.N,Net-(C7-Pad2)*%
X139780000Y-119300000D02*
X139780000Y-117789700D01*
X139780000Y-117789700D02*
X132740300Y-110750000D01*
X104190000Y-91370000D02*
X106125400Y-89434600D01*
X106125400Y-89434600D02*
X111814700Y-89434600D01*
X111814700Y-89434600D02*
X113993900Y-91613800D01*
X113993900Y-91613800D02*
X113993900Y-91724500D01*
X113993900Y-91724500D02*
X116429300Y-94159900D01*
X116429300Y-94159900D02*
X121194700Y-94159900D01*
X121194700Y-94159900D02*
X123398100Y-96363300D01*
X123398100Y-96363300D02*
X123398100Y-97133900D01*
X131890000Y-110750000D02*
X132740300Y-110750000D01*
%TO.N,-12V*%
X141928100Y-65143400D02*
X131540000Y-54755300D01*
X131210000Y-77404700D02*
X141928100Y-66686600D01*
X141928100Y-66686600D02*
X141928100Y-65143400D01*
X141928100Y-65143400D02*
X142021300Y-65143400D01*
X142021300Y-65143400D02*
X142094700Y-65070000D01*
X143270000Y-65070000D02*
X142094700Y-65070000D01*
X131210000Y-78630000D02*
X131210000Y-77404700D01*
X111170000Y-53750000D02*
X112395300Y-53750000D01*
X112395300Y-53750000D02*
X113400600Y-54755300D01*
X113400600Y-54755300D02*
X131540000Y-54755300D01*
X131540000Y-53530000D02*
X131540000Y-54755300D01*
X94990000Y-155750000D02*
X96115300Y-155750000D01*
X102520000Y-156445600D02*
X96810900Y-156445600D01*
X96810900Y-156445600D02*
X96115300Y-155750000D01*
X107585300Y-147730000D02*
X107585300Y-151590700D01*
X107585300Y-151590700D02*
X102730400Y-156445600D01*
X102730400Y-156445600D02*
X102520000Y-156445600D01*
X102520000Y-157500000D02*
X102520000Y-156445600D01*
X107585300Y-147730000D02*
X103605300Y-143750000D01*
X129540000Y-147730000D02*
X107585300Y-147730000D01*
X129540000Y-147730000D02*
X129540000Y-149800000D01*
X134540000Y-142730000D02*
X129540000Y-147730000D01*
X102480000Y-143750000D02*
X103605300Y-143750000D01*
X149940000Y-124490000D02*
X148814700Y-124490000D01*
X148814700Y-124490000D02*
X147094500Y-126210200D01*
X147094500Y-126210200D02*
X135772100Y-126210200D01*
%TO.N,+12V*%
X94400000Y-66000000D02*
X94400000Y-67125300D01*
X107090000Y-80415300D02*
X107090000Y-78690000D01*
X107090000Y-78690000D02*
X95525300Y-67125300D01*
X95525300Y-67125300D02*
X94400000Y-67125300D01*
X107090000Y-80415300D02*
X108849000Y-80415300D01*
X108849000Y-80415300D02*
X109614700Y-79649600D01*
X109614700Y-79649600D02*
X109614700Y-79190000D01*
X99330000Y-84690000D02*
X103604700Y-80415300D01*
X103604700Y-80415300D02*
X107090000Y-80415300D01*
X110840000Y-79190000D02*
X109614700Y-79190000D01*
X129350000Y-110750000D02*
X128499700Y-110750000D01*
X95630000Y-114240000D02*
X96755300Y-114240000D01*
X96755300Y-114240000D02*
X99395000Y-111600300D01*
X99395000Y-111600300D02*
X127649400Y-111600300D01*
X127649400Y-111600300D02*
X128499700Y-110750000D01*
X145810000Y-54910000D02*
X143270000Y-54910000D01*
X110140000Y-149880000D02*
X111265300Y-149880000D01*
X111265300Y-149880000D02*
X112523800Y-151138500D01*
X112523800Y-151138500D02*
X130140700Y-151138500D01*
X130140700Y-151138500D02*
X135929200Y-145350000D01*
X135929200Y-145350000D02*
X139630000Y-145350000D01*
%TO.N,Net-(J3-PadT)*%
X139620000Y-134890000D02*
X135565600Y-130835600D01*
X135565600Y-130835600D02*
X107695600Y-130835600D01*
X107695600Y-130835600D02*
X105180000Y-128320000D01*
%TO.N,Net-(J4-PadTN)*%
X147560000Y-72400000D02*
X141060000Y-72400000D01*
X130880000Y-88310000D02*
X129589600Y-87019600D01*
X129589600Y-87019600D02*
X129589600Y-83870400D01*
X129589600Y-83870400D02*
X141060000Y-72400000D01*
%TO.N,Net-(Q1-Pad2)*%
X130620000Y-102490000D02*
X130620000Y-101414700D01*
X140933800Y-119300000D02*
X140933800Y-117162000D01*
X140933800Y-117162000D02*
X136709300Y-112937500D01*
X136709300Y-112937500D02*
X136709300Y-105834000D01*
X136709300Y-105834000D02*
X132290000Y-101414700D01*
X132290000Y-101414700D02*
X130620000Y-101414700D01*
X140933800Y-119300000D02*
X140933800Y-123336200D01*
X140933800Y-123336200D02*
X139780000Y-124490000D01*
X140933800Y-119300000D02*
X148814700Y-119300000D01*
X149940000Y-119300000D02*
X148814700Y-119300000D01*
%TO.N,/RELEASE*%
X131890000Y-102490000D02*
X131890000Y-103565300D01*
X131890000Y-103565300D02*
X125123600Y-110331700D01*
X125123600Y-110331700D02*
X86551700Y-110331700D01*
X86551700Y-110331700D02*
X85400000Y-109180000D01*
%TO.N,/ATTACK*%
X85630000Y-99020000D02*
X83815100Y-100834900D01*
X83815100Y-100834900D02*
X83815100Y-109836800D01*
X83815100Y-109836800D02*
X93368300Y-119390000D01*
X93368300Y-119390000D02*
X95600000Y-119390000D01*
%TO.N,Net-(R1-Pad2)*%
X95790000Y-99020000D02*
X97934100Y-99020000D01*
X97934100Y-99020000D02*
X102145300Y-94808800D01*
%TO.N,Net-(R2-Pad2)*%
X95640000Y-103044700D02*
X103469400Y-95215300D01*
X95640000Y-104170000D02*
X95640000Y-103044700D01*
%TO.N,Net-(R3-Pad2)*%
X96685300Y-109180000D02*
X96972400Y-109467100D01*
X96972400Y-109467100D02*
X118990100Y-109467100D01*
X118990100Y-109467100D02*
X127943100Y-100514100D01*
X127943100Y-100514100D02*
X144363200Y-100514100D01*
X144363200Y-100514100D02*
X151257900Y-93619400D01*
X151257900Y-93619400D02*
X151257900Y-92663600D01*
X151257900Y-92663600D02*
X149125300Y-90531000D01*
X149125300Y-90531000D02*
X131134500Y-90531000D01*
X131134500Y-90531000D02*
X128710000Y-88106500D01*
X128710000Y-88106500D02*
X128710000Y-78630000D01*
X95560000Y-109180000D02*
X96685300Y-109180000D01*
%TO.N,Net-(R10-Pad2)*%
X95180000Y-145300000D02*
X94054700Y-145300000D01*
X85150000Y-140210000D02*
X88964700Y-140210000D01*
X88964700Y-140210000D02*
X94054700Y-145300000D01*
%TO.N,Net-(R8-Pad2)*%
X95250000Y-135110000D02*
X96375300Y-135110000D01*
X96375300Y-135110000D02*
X104561300Y-126924000D01*
X104561300Y-126924000D02*
X111378500Y-126924000D01*
X111378500Y-126924000D02*
X114209400Y-129754900D01*
X114209400Y-129754900D02*
X117237300Y-129754900D01*
X117237300Y-129754900D02*
X118008400Y-128983800D01*
X118008400Y-128983800D02*
X118008400Y-126726000D01*
X118008400Y-126726000D02*
X115294900Y-124012500D01*
X115294900Y-124012500D02*
X115294900Y-119785100D01*
X115294900Y-119785100D02*
X116630000Y-118450000D01*
X119130000Y-113450000D02*
X116630000Y-115950000D01*
X116630000Y-115950000D02*
X116630000Y-118450000D01*
%TO.N,/SUSTAIN*%
X86061800Y-136081800D02*
X83829600Y-138314000D01*
X83829600Y-138314000D02*
X83829600Y-149319600D01*
X83829600Y-149319600D02*
X85020000Y-150510000D01*
X94184700Y-140210000D02*
X90056500Y-136081800D01*
X90056500Y-136081800D02*
X86061800Y-136081800D01*
X85090000Y-135110000D02*
X86061800Y-136081800D01*
X95310000Y-140210000D02*
X94184700Y-140210000D01*
%TO.N,Net-(R13-Pad2)*%
X93250000Y-42230000D02*
X93250000Y-44730000D01*
X93250000Y-44730000D02*
X90750000Y-47230000D01*
%TO.N,Net-(R16-Pad2)*%
X103605300Y-138670000D02*
X107430700Y-134844600D01*
X107430700Y-134844600D02*
X125911700Y-134844600D01*
X125911700Y-134844600D02*
X128053100Y-136986000D01*
X128053100Y-136986000D02*
X130298500Y-136986000D01*
X130298500Y-136986000D02*
X132949900Y-134334600D01*
X132949900Y-134334600D02*
X136777900Y-134334600D01*
X136777900Y-134334600D02*
X138473200Y-136029900D01*
X138473200Y-136029900D02*
X140093600Y-136029900D01*
X140093600Y-136029900D02*
X151086600Y-125036900D01*
X151086600Y-125036900D02*
X151086600Y-116211900D01*
X151086600Y-116211900D02*
X149940000Y-115065300D01*
X102480000Y-138670000D02*
X103605300Y-138670000D01*
X149940000Y-113940000D02*
X149940000Y-115065300D01*
%TO.N,Net-(R18-Pad1)*%
X111225300Y-141210000D02*
X112639900Y-139795400D01*
X112639900Y-139795400D02*
X126541000Y-139795400D01*
X126541000Y-139795400D02*
X127890200Y-138446200D01*
X127890200Y-138446200D02*
X145098500Y-138446200D01*
X145098500Y-138446200D02*
X148654700Y-134890000D01*
X110100000Y-141210000D02*
X111225300Y-141210000D01*
X149780000Y-134890000D02*
X148654700Y-134890000D01*
%TO.N,/ENVOUT*%
X86780000Y-56965300D02*
X86498700Y-56965300D01*
X86498700Y-56965300D02*
X82436600Y-61027400D01*
X82436600Y-61027400D02*
X82436600Y-125183200D01*
X82436600Y-125183200D02*
X98463400Y-141210000D01*
X98463400Y-141210000D02*
X102480000Y-141210000D01*
X86780000Y-55840000D02*
X86780000Y-54714700D01*
X88250000Y-42230000D02*
X88250000Y-53948000D01*
X88250000Y-53948000D02*
X87483300Y-54714700D01*
X87483300Y-54714700D02*
X86780000Y-54714700D01*
X86780000Y-55840000D02*
X86780000Y-56965300D01*
%TO.N,/IN2*%
X115810000Y-100710000D02*
X113042300Y-97942300D01*
X113042300Y-97942300D02*
X113042300Y-95456800D01*
X113042300Y-95456800D02*
X110882100Y-93296600D01*
X110882100Y-93296600D02*
X104817700Y-93296600D01*
X104817700Y-93296600D02*
X104700700Y-93179600D01*
X104700700Y-93179600D02*
X92739700Y-93179600D01*
X92739700Y-93179600D02*
X91483400Y-91923300D01*
X91483400Y-91923300D02*
X91483400Y-85756600D01*
X91483400Y-85756600D02*
X92810000Y-84430000D01*
%TO.N,/OUT1*%
X87810000Y-91370000D02*
X90069900Y-93629900D01*
X90069900Y-93629900D02*
X104514000Y-93629900D01*
X104514000Y-93629900D02*
X104856300Y-93972200D01*
X104856300Y-93972200D02*
X109172200Y-93972200D01*
X109172200Y-93972200D02*
X111110000Y-95910000D01*
%TO.N,/OUT2*%
X120510000Y-95910000D02*
X118834600Y-97585400D01*
X118834600Y-97585400D02*
X115114700Y-97585400D01*
X115114700Y-97585400D02*
X114068200Y-96538900D01*
X114068200Y-96538900D02*
X114068200Y-95770500D01*
X114068200Y-95770500D02*
X111143900Y-92846200D01*
X111143900Y-92846200D02*
X105004200Y-92846200D01*
X105004200Y-92846200D02*
X104887300Y-92729300D01*
X104887300Y-92729300D02*
X100549300Y-92729300D01*
X100549300Y-92729300D02*
X99190000Y-91370000D01*
X108370000Y-61020000D02*
X109495300Y-61020000D01*
X121840000Y-61090000D02*
X120714700Y-61090000D01*
X120714700Y-61090000D02*
X119519400Y-59894700D01*
X119519400Y-59894700D02*
X110620600Y-59894700D01*
X110620600Y-59894700D02*
X109495300Y-61020000D01*
X116470000Y-141050000D02*
X117595300Y-141050000D01*
X139570000Y-140020000D02*
X128647400Y-140020000D01*
X128647400Y-140020000D02*
X126492100Y-142175300D01*
X126492100Y-142175300D02*
X118720600Y-142175300D01*
X118720600Y-142175300D02*
X117595300Y-141050000D01*
%TO.N,/IN1*%
X130880000Y-96610000D02*
X127055400Y-92785400D01*
X127055400Y-92785400D02*
X117485400Y-92785400D01*
X117485400Y-92785400D02*
X115810000Y-91110000D01*
%TO.N,/OUT3*%
X130620000Y-110750000D02*
X130620000Y-112550000D01*
X130620000Y-112550000D02*
X139545100Y-121475100D01*
%TO.N,/OUT4*%
X102520000Y-149880000D02*
X101394700Y-149880000D01*
X85020000Y-145300000D02*
X88474700Y-148754700D01*
X88474700Y-148754700D02*
X100269400Y-148754700D01*
X100269400Y-148754700D02*
X101394700Y-149880000D01*
X111110000Y-105510000D02*
X112791400Y-107191400D01*
X112791400Y-107191400D02*
X116553700Y-107191400D01*
X116553700Y-107191400D02*
X118160000Y-105585100D01*
X118160000Y-105585100D02*
X118160000Y-103060000D01*
X118160000Y-103060000D02*
X120510000Y-100710000D01*
%TO.N,Net-(S1-Pad11)*%
X115810000Y-105510000D02*
X111110000Y-100810000D01*
X111110000Y-100810000D02*
X111110000Y-100710000D01*
%TO.N,Net-(S1-Pad3)*%
X115810000Y-95910000D02*
X111110000Y-91210000D01*
X111110000Y-91210000D02*
X111110000Y-91110000D01*
%TD*%
M02*
